ISO-10303-21;
HEADER;
/* Generated by software containing ST-Developer
 * from STEP Tools, Inc. (www.steptools.com) 
 */

FILE_DESCRIPTION(
/* description */ (''),
/* implementation_level */ '2;1');

FILE_NAME(
/* name */ 'motor adaptator.step',
/* time_stamp */ '2026-02-13T19:05:34+04:00',
/* author */ (''),
/* organization */ (''),
/* preprocessor_version */ 'ST-DEVELOPER v20.1',
/* originating_system */ 'Autodesk Translation Framework v14.24.0.0',
/* authorisation */ '');

FILE_SCHEMA (('AUTOMOTIVE_DESIGN { 1 0 10303 214 3 1 1 }'));
ENDSEC;

DATA;
#10=MECHANICAL_DESIGN_GEOMETRIC_PRESENTATION_REPRESENTATION('',(#13),#1292);
#11=SHAPE_REPRESENTATION_RELATIONSHIP('SRR','None',#1299,#12);
#12=ADVANCED_BREP_SHAPE_REPRESENTATION('',(#749),#1291);
#13=STYLED_ITEM('',(#1308),#749);
#14=B_SPLINE_CURVE_WITH_KNOTS('',3,(#1138,#1139,#1140,#1141,#1142,#1143,
#1144,#1145,#1146,#1147,#1148,#1149,#1150,#1151,#1152,#1153,#1154,#1155,
#1156,#1157,#1158,#1159,#1160,#1161,#1162,#1163,#1164,#1165,#1166,#1167,
#1168),.UNSPECIFIED.,.F.,.F.,(4,2,2,2,2,2,2,3,2,2,2,2,2,2,4),(-0.653411428632587,
-0.564186469631911,-0.455375612558342,-0.334592775688718,-0.213809938819094,
-0.106904969409547,-0.0534524847047735,0.,0.0482384046879764,0.0964768093759528,
0.192953618751906,0.323742422228486,0.454531225705066,0.567183295784662,
0.652769295884272),.UNSPECIFIED.);
#15=B_SPLINE_CURVE_WITH_KNOTS('',3,(#1172,#1173,#1174,#1175,#1176,#1177,
#1178,#1179,#1180,#1181,#1182,#1183,#1184,#1185,#1186,#1187,#1188,#1189,
#1190,#1191,#1192,#1193,#1194,#1195,#1196,#1197,#1198,#1199,#1200,#1201,
#1202,#1203,#1204,#1205,#1206,#1207,#1208,#1209),.UNSPECIFIED.,.T.,.F.,
(4,2,2,2,2,2,2,2,2,2,2,2,2,2,2,2,2,2,4),(0.,0.0922850689343499,0.1845701378687,
0.305310229499569,0.426050321130438,0.57421606223768,0.722381803344923,
0.821570810693236,0.871165314367393,0.92075981804155,0.970354321715707,
1.01994882538986,1.11913783273818,1.26730357384542,1.41546931495266,1.53620940658353,
1.6569494982144,1.74923456714875,1.8415196360831),.UNSPECIFIED.);
#16=FACE_BOUND('',#113,.T.);
#17=FACE_BOUND('',#117,.T.);
#18=FACE_BOUND('',#118,.T.);
#19=ORIENTED_CLOSED_SHELL('',*,#747,.F.);
#20=PLANE('',#766);
#21=PLANE('',#767);
#22=PLANE('',#768);
#23=PLANE('',#769);
#24=PLANE('',#770);
#25=PLANE('',#771);
#26=PLANE('',#772);
#27=PLANE('',#773);
#28=PLANE('',#774);
#29=PLANE('',#775);
#30=PLANE('',#776);
#31=PLANE('',#777);
#32=PLANE('',#778);
#33=PLANE('',#780);
#34=PLANE('',#781);
#35=PLANE('',#782);
#36=PLANE('',#784);
#37=PLANE('',#786);
#38=PLANE('',#793);
#39=PLANE('',#794);
#40=PLANE('',#795);
#41=PLANE('',#797);
#42=PLANE('',#800);
#43=PLANE('',#801);
#44=PLANE('',#803);
#45=PLANE('',#806);
#46=PLANE('',#807);
#47=PLANE('',#808);
#48=PLANE('',#809);
#49=PLANE('',#810);
#50=PLANE('',#811);
#51=PLANE('',#812);
#52=PLANE('',#813);
#53=PLANE('',#814);
#54=PLANE('',#815);
#55=FACE_OUTER_BOUND('',#96,.T.);
#56=FACE_OUTER_BOUND('',#97,.T.);
#57=FACE_OUTER_BOUND('',#98,.T.);
#58=FACE_OUTER_BOUND('',#99,.T.);
#59=FACE_OUTER_BOUND('',#100,.T.);
#60=FACE_OUTER_BOUND('',#101,.T.);
#61=FACE_OUTER_BOUND('',#102,.T.);
#62=FACE_OUTER_BOUND('',#103,.T.);
#63=FACE_OUTER_BOUND('',#104,.T.);
#64=FACE_OUTER_BOUND('',#105,.T.);
#65=FACE_OUTER_BOUND('',#106,.T.);
#66=FACE_OUTER_BOUND('',#107,.T.);
#67=FACE_OUTER_BOUND('',#108,.T.);
#68=FACE_OUTER_BOUND('',#109,.T.);
#69=FACE_OUTER_BOUND('',#110,.T.);
#70=FACE_OUTER_BOUND('',#111,.T.);
#71=FACE_OUTER_BOUND('',#112,.T.);
#72=FACE_OUTER_BOUND('',#114,.T.);
#73=FACE_OUTER_BOUND('',#115,.T.);
#74=FACE_OUTER_BOUND('',#116,.T.);
#75=FACE_OUTER_BOUND('',#119,.T.);
#76=FACE_OUTER_BOUND('',#120,.T.);
#77=FACE_OUTER_BOUND('',#121,.T.);
#78=FACE_OUTER_BOUND('',#122,.T.);
#79=FACE_OUTER_BOUND('',#123,.T.);
#80=FACE_OUTER_BOUND('',#124,.T.);
#81=FACE_OUTER_BOUND('',#125,.T.);
#82=FACE_OUTER_BOUND('',#126,.T.);
#83=FACE_OUTER_BOUND('',#127,.T.);
#84=FACE_OUTER_BOUND('',#128,.T.);
#85=FACE_OUTER_BOUND('',#129,.T.);
#86=FACE_OUTER_BOUND('',#130,.T.);
#87=FACE_OUTER_BOUND('',#131,.T.);
#88=FACE_OUTER_BOUND('',#132,.T.);
#89=FACE_OUTER_BOUND('',#133,.T.);
#90=FACE_OUTER_BOUND('',#134,.T.);
#91=FACE_OUTER_BOUND('',#135,.T.);
#92=FACE_OUTER_BOUND('',#136,.T.);
#93=FACE_OUTER_BOUND('',#137,.T.);
#94=FACE_OUTER_BOUND('',#138,.T.);
#95=FACE_OUTER_BOUND('',#139,.T.);
#96=EDGE_LOOP('',(#496,#497,#498,#499));
#97=EDGE_LOOP('',(#500,#501,#502,#503));
#98=EDGE_LOOP('',(#504,#505,#506,#507));
#99=EDGE_LOOP('',(#508,#509,#510,#511,#512,#513));
#100=EDGE_LOOP('',(#514,#515,#516,#517,#518,#519));
#101=EDGE_LOOP('',(#520,#521,#522,#523));
#102=EDGE_LOOP('',(#524,#525,#526,#527));
#103=EDGE_LOOP('',(#528,#529,#530,#531));
#104=EDGE_LOOP('',(#532,#533,#534,#535,#536,#537));
#105=EDGE_LOOP('',(#538,#539,#540,#541,#542,#543));
#106=EDGE_LOOP('',(#544,#545,#546,#547));
#107=EDGE_LOOP('',(#548,#549,#550,#551));
#108=EDGE_LOOP('',(#552,#553,#554,#555,#556,#557,#558,#559));
#109=EDGE_LOOP('',(#560,#561,#562,#563,#564,#565,#566,#567));
#110=EDGE_LOOP('',(#568,#569,#570,#571));
#111=EDGE_LOOP('',(#572,#573,#574,#575));
#112=EDGE_LOOP('',(#576,#577,#578,#579));
#113=EDGE_LOOP('',(#580));
#114=EDGE_LOOP('',(#581,#582,#583,#584,#585,#586));
#115=EDGE_LOOP('',(#587,#588,#589,#590));
#116=EDGE_LOOP('',(#591,#592,#593,#594));
#117=EDGE_LOOP('',(#595,#596,#597,#598,#599,#600));
#118=EDGE_LOOP('',(#601));
#119=EDGE_LOOP('',(#602,#603,#604,#605));
#120=EDGE_LOOP('',(#606,#607,#608,#609));
#121=EDGE_LOOP('',(#610,#611,#612,#613));
#122=EDGE_LOOP('',(#614,#615,#616,#617));
#123=EDGE_LOOP('',(#618,#619,#620,#621));
#124=EDGE_LOOP('',(#622,#623,#624,#625,#626,#627));
#125=EDGE_LOOP('',(#628,#629));
#126=EDGE_LOOP('',(#630,#631,#632,#633,#634,#635));
#127=EDGE_LOOP('',(#636,#637,#638,#639,#640,#641));
#128=EDGE_LOOP('',(#642,#643,#644,#645,#646,#647));
#129=EDGE_LOOP('',(#648,#649,#650,#651));
#130=EDGE_LOOP('',(#652,#653,#654,#655,#656));
#131=EDGE_LOOP('',(#657,#658,#659,#660,#661));
#132=EDGE_LOOP('',(#662,#663,#664,#665));
#133=EDGE_LOOP('',(#666,#667,#668,#669));
#134=EDGE_LOOP('',(#670,#671,#672,#673,#674));
#135=EDGE_LOOP('',(#675,#676,#677,#678,#679));
#136=EDGE_LOOP('',(#680,#681,#682,#683,#684,#685));
#137=EDGE_LOOP('',(#686,#687,#688,#689,#690,#691));
#138=EDGE_LOOP('',(#692,#693,#694,#695));
#139=EDGE_LOOP('',(#696,#697,#698,#699));
#140=CIRCLE('',#764,75.5);
#141=CIRCLE('',#765,75.5);
#142=CIRCLE('',#779,13.25);
#143=CIRCLE('',#783,2.5);
#144=CIRCLE('',#785,13.25);
#145=CIRCLE('',#787,11.25);
#146=CIRCLE('',#788,13.25);
#147=CIRCLE('',#790,13.25);
#148=CIRCLE('',#792,11.25);
#149=CIRCLE('',#798,2.5);
#150=CIRCLE('',#802,77.5);
#151=CIRCLE('',#805,77.5);
#152=LINE('',#1016,#240);
#153=LINE('',#1020,#241);
#154=LINE('',#1025,#242);
#155=LINE('',#1026,#243);
#156=LINE('',#1027,#244);
#157=LINE('',#1031,#245);
#158=LINE('',#1032,#246);
#159=LINE('',#1033,#247);
#160=LINE('',#1036,#248);
#161=LINE('',#1038,#249);
#162=LINE('',#1040,#250);
#163=LINE('',#1042,#251);
#164=LINE('',#1043,#252);
#165=LINE('',#1046,#253);
#166=LINE('',#1047,#254);
#167=LINE('',#1050,#255);
#168=LINE('',#1051,#256);
#169=LINE('',#1054,#257);
#170=LINE('',#1056,#258);
#171=LINE('',#1057,#259);
#172=LINE('',#1059,#260);
#173=LINE('',#1061,#261);
#174=LINE('',#1066,#262);
#175=LINE('',#1068,#263);
#176=LINE('',#1070,#264);
#177=LINE('',#1071,#265);
#178=LINE('',#1075,#266);
#179=LINE('',#1076,#267);
#180=LINE('',#1077,#268);
#181=LINE('',#1080,#269);
#182=LINE('',#1082,#270);
#183=LINE('',#1084,#271);
#184=LINE('',#1086,#272);
#185=LINE('',#1088,#273);
#186=LINE('',#1089,#274);
#187=LINE('',#1091,#275);
#188=LINE('',#1092,#276);
#189=LINE('',#1098,#277);
#190=LINE('',#1099,#278);
#191=LINE('',#1101,#279);
#192=LINE('',#1102,#280);
#193=LINE('',#1105,#281);
#194=LINE('',#1106,#282);
#195=LINE('',#1109,#283);
#196=LINE('',#1110,#284);
#197=LINE('',#1113,#285);
#198=LINE('',#1114,#286);
#199=LINE('',#1120,#287);
#200=LINE('',#1124,#288);
#201=LINE('',#1128,#289);
#202=LINE('',#1132,#290);
#203=LINE('',#1134,#291);
#204=LINE('',#1169,#292);
#205=LINE('',#1170,#293);
#206=LINE('',#1212,#294);
#207=LINE('',#1215,#295);
#208=LINE('',#1217,#296);
#209=LINE('',#1218,#297);
#210=LINE('',#1222,#298);
#211=LINE('',#1228,#299);
#212=LINE('',#1230,#300);
#213=LINE('',#1231,#301);
#214=LINE('',#1234,#302);
#215=LINE('',#1236,#303);
#216=LINE('',#1239,#304);
#217=LINE('',#1242,#305);
#218=LINE('',#1243,#306);
#219=LINE('',#1246,#307);
#220=LINE('',#1248,#308);
#221=LINE('',#1252,#309);
#222=LINE('',#1253,#310);
#223=LINE('',#1256,#311);
#224=LINE('',#1257,#312);
#225=LINE('',#1261,#313);
#226=LINE('',#1263,#314);
#227=LINE('',#1265,#315);
#228=LINE('',#1266,#316);
#229=LINE('',#1270,#317);
#230=LINE('',#1271,#318);
#231=LINE('',#1272,#319);
#232=LINE('',#1274,#320);
#233=LINE('',#1276,#321);
#234=LINE('',#1277,#322);
#235=LINE('',#1279,#323);
#236=LINE('',#1281,#324);
#237=LINE('',#1282,#325);
#238=LINE('',#1285,#326);
#239=LINE('',#1286,#327);
#240=VECTOR('',#820,10.);
#241=VECTOR('',#823,10.);
#242=VECTOR('',#828,10.);
#243=VECTOR('',#829,10.);
#244=VECTOR('',#830,10.);
#245=VECTOR('',#833,10.);
#246=VECTOR('',#834,10.);
#247=VECTOR('',#835,10.);
#248=VECTOR('',#838,10.);
#249=VECTOR('',#839,10.);
#250=VECTOR('',#840,10.);
#251=VECTOR('',#841,10.);
#252=VECTOR('',#842,10.);
#253=VECTOR('',#845,10.);
#254=VECTOR('',#846,10.);
#255=VECTOR('',#849,10.);
#256=VECTOR('',#850,10.);
#257=VECTOR('',#853,10.);
#258=VECTOR('',#854,10.);
#259=VECTOR('',#855,10.);
#260=VECTOR('',#858,10.);
#261=VECTOR('',#861,10.);
#262=VECTOR('',#866,10.);
#263=VECTOR('',#867,10.);
#264=VECTOR('',#868,10.);
#265=VECTOR('',#869,10.);
#266=VECTOR('',#872,10.);
#267=VECTOR('',#873,10.);
#268=VECTOR('',#874,10.);
#269=VECTOR('',#877,10.);
#270=VECTOR('',#878,10.);
#271=VECTOR('',#879,10.);
#272=VECTOR('',#880,10.);
#273=VECTOR('',#881,10.);
#274=VECTOR('',#882,10.);
#275=VECTOR('',#883,10.);
#276=VECTOR('',#884,10.);
#277=VECTOR('',#889,10.);
#278=VECTOR('',#890,10.);
#279=VECTOR('',#891,10.);
#280=VECTOR('',#892,10.);
#281=VECTOR('',#895,10.);
#282=VECTOR('',#896,10.);
#283=VECTOR('',#899,10.);
#284=VECTOR('',#900,10.);
#285=VECTOR('',#903,10.);
#286=VECTOR('',#904,10.);
#287=VECTOR('',#911,10.);
#288=VECTOR('',#914,10.);
#289=VECTOR('',#917,10.);
#290=VECTOR('',#922,10.);
#291=VECTOR('',#923,10.);
#292=VECTOR('',#926,10.);
#293=VECTOR('',#927,10.);
#294=VECTOR('',#930,10.);
#295=VECTOR('',#933,10.);
#296=VECTOR('',#936,10.);
#297=VECTOR('',#937,10.);
#298=VECTOR('',#944,2.5);
#299=VECTOR('',#953,10.);
#300=VECTOR('',#954,10.);
#301=VECTOR('',#955,10.);
#302=VECTOR('',#958,10.);
#303=VECTOR('',#959,10.);
#304=VECTOR('',#962,10.);
#305=VECTOR('',#965,10.);
#306=VECTOR('',#966,10.);
#307=VECTOR('',#969,10.);
#308=VECTOR('',#970,10.);
#309=VECTOR('',#975,10.);
#310=VECTOR('',#976,10.);
#311=VECTOR('',#979,10.);
#312=VECTOR('',#980,10.);
#313=VECTOR('',#983,10.);
#314=VECTOR('',#984,10.);
#315=VECTOR('',#985,10.);
#316=VECTOR('',#986,10.);
#317=VECTOR('',#989,10.);
#318=VECTOR('',#990,10.);
#319=VECTOR('',#991,10.);
#320=VECTOR('',#994,10.);
#321=VECTOR('',#995,10.);
#322=VECTOR('',#996,10.);
#323=VECTOR('',#999,10.);
#324=VECTOR('',#1000,10.);
#325=VECTOR('',#1001,10.);
#326=VECTOR('',#1006,10.);
#327=VECTOR('',#1007,10.);
#328=VERTEX_POINT('',#1014);
#329=VERTEX_POINT('',#1015);
#330=VERTEX_POINT('',#1017);
#331=VERTEX_POINT('',#1019);
#332=VERTEX_POINT('',#1023);
#333=VERTEX_POINT('',#1024);
#334=VERTEX_POINT('',#1029);
#335=VERTEX_POINT('',#1030);
#336=VERTEX_POINT('',#1035);
#337=VERTEX_POINT('',#1037);
#338=VERTEX_POINT('',#1039);
#339=VERTEX_POINT('',#1041);
#340=VERTEX_POINT('',#1045);
#341=VERTEX_POINT('',#1049);
#342=VERTEX_POINT('',#1053);
#343=VERTEX_POINT('',#1055);
#344=VERTEX_POINT('',#1064);
#345=VERTEX_POINT('',#1065);
#346=VERTEX_POINT('',#1067);
#347=VERTEX_POINT('',#1069);
#348=VERTEX_POINT('',#1073);
#349=VERTEX_POINT('',#1074);
#350=VERTEX_POINT('',#1079);
#351=VERTEX_POINT('',#1081);
#352=VERTEX_POINT('',#1083);
#353=VERTEX_POINT('',#1085);
#354=VERTEX_POINT('',#1087);
#355=VERTEX_POINT('',#1090);
#356=VERTEX_POINT('',#1094);
#357=VERTEX_POINT('',#1095);
#358=VERTEX_POINT('',#1097);
#359=VERTEX_POINT('',#1100);
#360=VERTEX_POINT('',#1104);
#361=VERTEX_POINT('',#1108);
#362=VERTEX_POINT('',#1112);
#363=VERTEX_POINT('',#1115);
#364=VERTEX_POINT('',#1118);
#365=VERTEX_POINT('',#1122);
#366=VERTEX_POINT('',#1123);
#367=VERTEX_POINT('',#1125);
#368=VERTEX_POINT('',#1127);
#369=VERTEX_POINT('',#1131);
#370=VERTEX_POINT('',#1133);
#371=VERTEX_POINT('',#1136);
#372=VERTEX_POINT('',#1137);
#373=VERTEX_POINT('',#1171);
#374=VERTEX_POINT('',#1211);
#375=VERTEX_POINT('',#1213);
#376=VERTEX_POINT('',#1227);
#377=VERTEX_POINT('',#1229);
#378=VERTEX_POINT('',#1233);
#379=VERTEX_POINT('',#1235);
#380=VERTEX_POINT('',#1237);
#381=VERTEX_POINT('',#1241);
#382=VERTEX_POINT('',#1245);
#383=VERTEX_POINT('',#1247);
#384=VERTEX_POINT('',#1251);
#385=VERTEX_POINT('',#1255);
#386=VERTEX_POINT('',#1259);
#387=VERTEX_POINT('',#1260);
#388=VERTEX_POINT('',#1262);
#389=VERTEX_POINT('',#1264);
#390=VERTEX_POINT('',#1268);
#391=VERTEX_POINT('',#1269);
#392=VERTEX_POINT('',#1275);
#393=VERTEX_POINT('',#1280);
#394=EDGE_CURVE('',#328,#329,#152,.T.);
#395=EDGE_CURVE('',#330,#328,#140,.T.);
#396=EDGE_CURVE('',#331,#330,#153,.T.);
#397=EDGE_CURVE('',#331,#329,#141,.T.);
#398=EDGE_CURVE('',#332,#333,#154,.F.);
#399=EDGE_CURVE('',#332,#331,#155,.T.);
#400=EDGE_CURVE('',#330,#333,#156,.T.);
#401=EDGE_CURVE('',#334,#335,#157,.F.);
#402=EDGE_CURVE('',#334,#328,#158,.T.);
#403=EDGE_CURVE('',#329,#335,#159,.T.);
#404=EDGE_CURVE('',#333,#336,#160,.F.);
#405=EDGE_CURVE('',#337,#336,#161,.T.);
#406=EDGE_CURVE('',#337,#338,#162,.T.);
#407=EDGE_CURVE('',#339,#338,#163,.F.);
#408=EDGE_CURVE('',#332,#339,#164,.T.);
#409=EDGE_CURVE('',#334,#340,#165,.T.);
#410=EDGE_CURVE('',#336,#340,#166,.F.);
#411=EDGE_CURVE('',#340,#341,#167,.T.);
#412=EDGE_CURVE('',#337,#341,#168,.F.);
#413=EDGE_CURVE('',#342,#339,#169,.F.);
#414=EDGE_CURVE('',#343,#338,#170,.T.);
#415=EDGE_CURVE('',#343,#342,#171,.F.);
#416=EDGE_CURVE('',#343,#341,#172,.T.);
#417=EDGE_CURVE('',#335,#342,#173,.F.);
#418=EDGE_CURVE('',#344,#345,#174,.T.);
#419=EDGE_CURVE('',#345,#346,#175,.T.);
#420=EDGE_CURVE('',#347,#346,#176,.T.);
#421=EDGE_CURVE('',#347,#344,#177,.T.);
#422=EDGE_CURVE('',#348,#349,#178,.T.);
#423=EDGE_CURVE('',#346,#349,#179,.T.);
#424=EDGE_CURVE('',#348,#345,#180,.T.);
#425=EDGE_CURVE('',#349,#350,#181,.T.);
#426=EDGE_CURVE('',#349,#351,#182,.T.);
#427=EDGE_CURVE('',#351,#352,#183,.T.);
#428=EDGE_CURVE('',#352,#353,#184,.T.);
#429=EDGE_CURVE('',#353,#354,#185,.T.);
#430=EDGE_CURVE('',#354,#348,#186,.T.);
#431=EDGE_CURVE('',#355,#348,#187,.T.);
#432=EDGE_CURVE('',#350,#355,#188,.T.);
#433=EDGE_CURVE('',#356,#357,#142,.T.);
#434=EDGE_CURVE('',#358,#357,#189,.T.);
#435=EDGE_CURVE('',#351,#358,#190,.T.);
#436=EDGE_CURVE('',#354,#359,#191,.T.);
#437=EDGE_CURVE('',#356,#359,#192,.T.);
#438=EDGE_CURVE('',#353,#360,#193,.T.);
#439=EDGE_CURVE('',#359,#360,#194,.T.);
#440=EDGE_CURVE('',#361,#358,#195,.T.);
#441=EDGE_CURVE('',#352,#361,#196,.T.);
#442=EDGE_CURVE('',#362,#356,#197,.T.);
#443=EDGE_CURVE('',#360,#362,#198,.T.);
#444=EDGE_CURVE('',#363,#363,#143,.T.);
#445=EDGE_CURVE('',#364,#362,#144,.T.);
#446=EDGE_CURVE('',#364,#361,#199,.T.);
#447=EDGE_CURVE('',#365,#366,#200,.T.);
#448=EDGE_CURVE('',#366,#367,#145,.T.);
#449=EDGE_CURVE('',#367,#368,#201,.T.);
#450=EDGE_CURVE('',#368,#365,#146,.T.);
#451=EDGE_CURVE('',#369,#365,#202,.T.);
#452=EDGE_CURVE('',#368,#370,#203,.T.);
#453=EDGE_CURVE('',#369,#370,#147,.T.);
#454=EDGE_CURVE('',#371,#372,#14,.T.);
#455=EDGE_CURVE('',#357,#372,#204,.T.);
#456=EDGE_CURVE('',#371,#364,#205,.T.);
#457=EDGE_CURVE('',#373,#373,#15,.T.);
#458=EDGE_CURVE('',#366,#374,#206,.T.);
#459=EDGE_CURVE('',#375,#374,#148,.T.);
#460=EDGE_CURVE('',#375,#367,#207,.T.);
#461=EDGE_CURVE('',#374,#369,#208,.T.);
#462=EDGE_CURVE('',#370,#375,#209,.T.);
#463=EDGE_CURVE('',#373,#363,#210,.T.);
#464=EDGE_CURVE('',#372,#371,#149,.T.);
#465=EDGE_CURVE('',#376,#350,#211,.T.);
#466=EDGE_CURVE('',#377,#376,#212,.T.);
#467=EDGE_CURVE('',#377,#347,#213,.T.);
#468=EDGE_CURVE('',#378,#355,#214,.T.);
#469=EDGE_CURVE('',#378,#379,#215,.T.);
#470=EDGE_CURVE('',#379,#380,#150,.T.);
#471=EDGE_CURVE('',#380,#376,#216,.T.);
#472=EDGE_CURVE('',#381,#344,#217,.T.);
#473=EDGE_CURVE('',#378,#381,#218,.T.);
#474=EDGE_CURVE('',#382,#380,#219,.T.);
#475=EDGE_CURVE('',#379,#383,#220,.T.);
#476=EDGE_CURVE('',#383,#382,#151,.T.);
#477=EDGE_CURVE('',#384,#381,#221,.T.);
#478=EDGE_CURVE('',#383,#384,#222,.T.);
#479=EDGE_CURVE('',#385,#382,#223,.T.);
#480=EDGE_CURVE('',#377,#385,#224,.T.);
#481=EDGE_CURVE('',#386,#387,#225,.T.);
#482=EDGE_CURVE('',#387,#388,#226,.T.);
#483=EDGE_CURVE('',#389,#388,#227,.T.);
#484=EDGE_CURVE('',#386,#389,#228,.T.);
#485=EDGE_CURVE('',#390,#391,#229,.T.);
#486=EDGE_CURVE('',#390,#387,#230,.T.);
#487=EDGE_CURVE('',#391,#386,#231,.T.);
#488=EDGE_CURVE('',#384,#390,#232,.T.);
#489=EDGE_CURVE('',#384,#392,#233,.T.);
#490=EDGE_CURVE('',#388,#392,#234,.T.);
#491=EDGE_CURVE('',#391,#385,#235,.T.);
#492=EDGE_CURVE('',#393,#389,#236,.T.);
#493=EDGE_CURVE('',#385,#393,#237,.T.);
#494=EDGE_CURVE('',#392,#344,#238,.T.);
#495=EDGE_CURVE('',#347,#393,#239,.T.);
#496=ORIENTED_EDGE('',*,*,#394,.F.);
#497=ORIENTED_EDGE('',*,*,#395,.F.);
#498=ORIENTED_EDGE('',*,*,#396,.F.);
#499=ORIENTED_EDGE('',*,*,#397,.T.);
#500=ORIENTED_EDGE('',*,*,#398,.F.);
#501=ORIENTED_EDGE('',*,*,#399,.T.);
#502=ORIENTED_EDGE('',*,*,#396,.T.);
#503=ORIENTED_EDGE('',*,*,#400,.T.);
#504=ORIENTED_EDGE('',*,*,#401,.F.);
#505=ORIENTED_EDGE('',*,*,#402,.T.);
#506=ORIENTED_EDGE('',*,*,#394,.T.);
#507=ORIENTED_EDGE('',*,*,#403,.T.);
#508=ORIENTED_EDGE('',*,*,#404,.T.);
#509=ORIENTED_EDGE('',*,*,#405,.F.);
#510=ORIENTED_EDGE('',*,*,#406,.T.);
#511=ORIENTED_EDGE('',*,*,#407,.F.);
#512=ORIENTED_EDGE('',*,*,#408,.F.);
#513=ORIENTED_EDGE('',*,*,#398,.T.);
#514=ORIENTED_EDGE('',*,*,#409,.T.);
#515=ORIENTED_EDGE('',*,*,#410,.F.);
#516=ORIENTED_EDGE('',*,*,#404,.F.);
#517=ORIENTED_EDGE('',*,*,#400,.F.);
#518=ORIENTED_EDGE('',*,*,#395,.T.);
#519=ORIENTED_EDGE('',*,*,#402,.F.);
#520=ORIENTED_EDGE('',*,*,#410,.T.);
#521=ORIENTED_EDGE('',*,*,#411,.T.);
#522=ORIENTED_EDGE('',*,*,#412,.F.);
#523=ORIENTED_EDGE('',*,*,#405,.T.);
#524=ORIENTED_EDGE('',*,*,#413,.T.);
#525=ORIENTED_EDGE('',*,*,#407,.T.);
#526=ORIENTED_EDGE('',*,*,#414,.F.);
#527=ORIENTED_EDGE('',*,*,#415,.T.);
#528=ORIENTED_EDGE('',*,*,#414,.T.);
#529=ORIENTED_EDGE('',*,*,#406,.F.);
#530=ORIENTED_EDGE('',*,*,#412,.T.);
#531=ORIENTED_EDGE('',*,*,#416,.F.);
#532=ORIENTED_EDGE('',*,*,#417,.T.);
#533=ORIENTED_EDGE('',*,*,#415,.F.);
#534=ORIENTED_EDGE('',*,*,#416,.T.);
#535=ORIENTED_EDGE('',*,*,#411,.F.);
#536=ORIENTED_EDGE('',*,*,#409,.F.);
#537=ORIENTED_EDGE('',*,*,#401,.T.);
#538=ORIENTED_EDGE('',*,*,#408,.T.);
#539=ORIENTED_EDGE('',*,*,#413,.F.);
#540=ORIENTED_EDGE('',*,*,#417,.F.);
#541=ORIENTED_EDGE('',*,*,#403,.F.);
#542=ORIENTED_EDGE('',*,*,#397,.F.);
#543=ORIENTED_EDGE('',*,*,#399,.F.);
#544=ORIENTED_EDGE('',*,*,#418,.T.);
#545=ORIENTED_EDGE('',*,*,#419,.T.);
#546=ORIENTED_EDGE('',*,*,#420,.F.);
#547=ORIENTED_EDGE('',*,*,#421,.T.);
#548=ORIENTED_EDGE('',*,*,#422,.T.);
#549=ORIENTED_EDGE('',*,*,#423,.F.);
#550=ORIENTED_EDGE('',*,*,#419,.F.);
#551=ORIENTED_EDGE('',*,*,#424,.F.);
#552=ORIENTED_EDGE('',*,*,#425,.F.);
#553=ORIENTED_EDGE('',*,*,#426,.T.);
#554=ORIENTED_EDGE('',*,*,#427,.T.);
#555=ORIENTED_EDGE('',*,*,#428,.T.);
#556=ORIENTED_EDGE('',*,*,#429,.T.);
#557=ORIENTED_EDGE('',*,*,#430,.T.);
#558=ORIENTED_EDGE('',*,*,#431,.F.);
#559=ORIENTED_EDGE('',*,*,#432,.F.);
#560=ORIENTED_EDGE('',*,*,#433,.T.);
#561=ORIENTED_EDGE('',*,*,#434,.F.);
#562=ORIENTED_EDGE('',*,*,#435,.F.);
#563=ORIENTED_EDGE('',*,*,#426,.F.);
#564=ORIENTED_EDGE('',*,*,#422,.F.);
#565=ORIENTED_EDGE('',*,*,#430,.F.);
#566=ORIENTED_EDGE('',*,*,#436,.T.);
#567=ORIENTED_EDGE('',*,*,#437,.F.);
#568=ORIENTED_EDGE('',*,*,#429,.F.);
#569=ORIENTED_EDGE('',*,*,#438,.T.);
#570=ORIENTED_EDGE('',*,*,#439,.F.);
#571=ORIENTED_EDGE('',*,*,#436,.F.);
#572=ORIENTED_EDGE('',*,*,#427,.F.);
#573=ORIENTED_EDGE('',*,*,#435,.T.);
#574=ORIENTED_EDGE('',*,*,#440,.F.);
#575=ORIENTED_EDGE('',*,*,#441,.F.);
#576=ORIENTED_EDGE('',*,*,#442,.T.);
#577=ORIENTED_EDGE('',*,*,#437,.T.);
#578=ORIENTED_EDGE('',*,*,#439,.T.);
#579=ORIENTED_EDGE('',*,*,#443,.T.);
#580=ORIENTED_EDGE('',*,*,#444,.T.);
#581=ORIENTED_EDGE('',*,*,#445,.T.);
#582=ORIENTED_EDGE('',*,*,#443,.F.);
#583=ORIENTED_EDGE('',*,*,#438,.F.);
#584=ORIENTED_EDGE('',*,*,#428,.F.);
#585=ORIENTED_EDGE('',*,*,#441,.T.);
#586=ORIENTED_EDGE('',*,*,#446,.F.);
#587=ORIENTED_EDGE('',*,*,#447,.T.);
#588=ORIENTED_EDGE('',*,*,#448,.T.);
#589=ORIENTED_EDGE('',*,*,#449,.T.);
#590=ORIENTED_EDGE('',*,*,#450,.T.);
#591=ORIENTED_EDGE('',*,*,#451,.T.);
#592=ORIENTED_EDGE('',*,*,#450,.F.);
#593=ORIENTED_EDGE('',*,*,#452,.T.);
#594=ORIENTED_EDGE('',*,*,#453,.F.);
#595=ORIENTED_EDGE('',*,*,#454,.T.);
#596=ORIENTED_EDGE('',*,*,#455,.F.);
#597=ORIENTED_EDGE('',*,*,#433,.F.);
#598=ORIENTED_EDGE('',*,*,#442,.F.);
#599=ORIENTED_EDGE('',*,*,#445,.F.);
#600=ORIENTED_EDGE('',*,*,#456,.F.);
#601=ORIENTED_EDGE('',*,*,#457,.T.);
#602=ORIENTED_EDGE('',*,*,#458,.T.);
#603=ORIENTED_EDGE('',*,*,#459,.F.);
#604=ORIENTED_EDGE('',*,*,#460,.T.);
#605=ORIENTED_EDGE('',*,*,#448,.F.);
#606=ORIENTED_EDGE('',*,*,#461,.T.);
#607=ORIENTED_EDGE('',*,*,#453,.T.);
#608=ORIENTED_EDGE('',*,*,#462,.T.);
#609=ORIENTED_EDGE('',*,*,#459,.T.);
#610=ORIENTED_EDGE('',*,*,#458,.F.);
#611=ORIENTED_EDGE('',*,*,#447,.F.);
#612=ORIENTED_EDGE('',*,*,#451,.F.);
#613=ORIENTED_EDGE('',*,*,#461,.F.);
#614=ORIENTED_EDGE('',*,*,#460,.F.);
#615=ORIENTED_EDGE('',*,*,#462,.F.);
#616=ORIENTED_EDGE('',*,*,#452,.F.);
#617=ORIENTED_EDGE('',*,*,#449,.F.);
#618=ORIENTED_EDGE('',*,*,#457,.F.);
#619=ORIENTED_EDGE('',*,*,#463,.T.);
#620=ORIENTED_EDGE('',*,*,#444,.F.);
#621=ORIENTED_EDGE('',*,*,#463,.F.);
#622=ORIENTED_EDGE('',*,*,#464,.T.);
#623=ORIENTED_EDGE('',*,*,#456,.T.);
#624=ORIENTED_EDGE('',*,*,#446,.T.);
#625=ORIENTED_EDGE('',*,*,#440,.T.);
#626=ORIENTED_EDGE('',*,*,#434,.T.);
#627=ORIENTED_EDGE('',*,*,#455,.T.);
#628=ORIENTED_EDGE('',*,*,#454,.F.);
#629=ORIENTED_EDGE('',*,*,#464,.F.);
#630=ORIENTED_EDGE('',*,*,#420,.T.);
#631=ORIENTED_EDGE('',*,*,#423,.T.);
#632=ORIENTED_EDGE('',*,*,#425,.T.);
#633=ORIENTED_EDGE('',*,*,#465,.F.);
#634=ORIENTED_EDGE('',*,*,#466,.F.);
#635=ORIENTED_EDGE('',*,*,#467,.T.);
#636=ORIENTED_EDGE('',*,*,#465,.T.);
#637=ORIENTED_EDGE('',*,*,#432,.T.);
#638=ORIENTED_EDGE('',*,*,#468,.F.);
#639=ORIENTED_EDGE('',*,*,#469,.T.);
#640=ORIENTED_EDGE('',*,*,#470,.T.);
#641=ORIENTED_EDGE('',*,*,#471,.T.);
#642=ORIENTED_EDGE('',*,*,#468,.T.);
#643=ORIENTED_EDGE('',*,*,#431,.T.);
#644=ORIENTED_EDGE('',*,*,#424,.T.);
#645=ORIENTED_EDGE('',*,*,#418,.F.);
#646=ORIENTED_EDGE('',*,*,#472,.F.);
#647=ORIENTED_EDGE('',*,*,#473,.F.);
#648=ORIENTED_EDGE('',*,*,#474,.T.);
#649=ORIENTED_EDGE('',*,*,#470,.F.);
#650=ORIENTED_EDGE('',*,*,#475,.T.);
#651=ORIENTED_EDGE('',*,*,#476,.T.);
#652=ORIENTED_EDGE('',*,*,#473,.T.);
#653=ORIENTED_EDGE('',*,*,#477,.F.);
#654=ORIENTED_EDGE('',*,*,#478,.F.);
#655=ORIENTED_EDGE('',*,*,#475,.F.);
#656=ORIENTED_EDGE('',*,*,#469,.F.);
#657=ORIENTED_EDGE('',*,*,#466,.T.);
#658=ORIENTED_EDGE('',*,*,#471,.F.);
#659=ORIENTED_EDGE('',*,*,#474,.F.);
#660=ORIENTED_EDGE('',*,*,#479,.F.);
#661=ORIENTED_EDGE('',*,*,#480,.F.);
#662=ORIENTED_EDGE('',*,*,#481,.T.);
#663=ORIENTED_EDGE('',*,*,#482,.T.);
#664=ORIENTED_EDGE('',*,*,#483,.F.);
#665=ORIENTED_EDGE('',*,*,#484,.F.);
#666=ORIENTED_EDGE('',*,*,#485,.F.);
#667=ORIENTED_EDGE('',*,*,#486,.T.);
#668=ORIENTED_EDGE('',*,*,#481,.F.);
#669=ORIENTED_EDGE('',*,*,#487,.F.);
#670=ORIENTED_EDGE('',*,*,#488,.F.);
#671=ORIENTED_EDGE('',*,*,#489,.T.);
#672=ORIENTED_EDGE('',*,*,#490,.F.);
#673=ORIENTED_EDGE('',*,*,#482,.F.);
#674=ORIENTED_EDGE('',*,*,#486,.F.);
#675=ORIENTED_EDGE('',*,*,#491,.F.);
#676=ORIENTED_EDGE('',*,*,#487,.T.);
#677=ORIENTED_EDGE('',*,*,#484,.T.);
#678=ORIENTED_EDGE('',*,*,#492,.F.);
#679=ORIENTED_EDGE('',*,*,#493,.F.);
#680=ORIENTED_EDGE('',*,*,#488,.T.);
#681=ORIENTED_EDGE('',*,*,#485,.T.);
#682=ORIENTED_EDGE('',*,*,#491,.T.);
#683=ORIENTED_EDGE('',*,*,#479,.T.);
#684=ORIENTED_EDGE('',*,*,#476,.F.);
#685=ORIENTED_EDGE('',*,*,#478,.T.);
#686=ORIENTED_EDGE('',*,*,#494,.T.);
#687=ORIENTED_EDGE('',*,*,#421,.F.);
#688=ORIENTED_EDGE('',*,*,#495,.T.);
#689=ORIENTED_EDGE('',*,*,#492,.T.);
#690=ORIENTED_EDGE('',*,*,#483,.T.);
#691=ORIENTED_EDGE('',*,*,#490,.T.);
#692=ORIENTED_EDGE('',*,*,#477,.T.);
#693=ORIENTED_EDGE('',*,*,#472,.T.);
#694=ORIENTED_EDGE('',*,*,#494,.F.);
#695=ORIENTED_EDGE('',*,*,#489,.F.);
#696=ORIENTED_EDGE('',*,*,#480,.T.);
#697=ORIENTED_EDGE('',*,*,#493,.T.);
#698=ORIENTED_EDGE('',*,*,#495,.F.);
#699=ORIENTED_EDGE('',*,*,#467,.F.);
#700=CYLINDRICAL_SURFACE('',#763,75.5);
#701=CYLINDRICAL_SURFACE('',#789,13.25);
#702=CYLINDRICAL_SURFACE('',#791,11.25);
#703=CYLINDRICAL_SURFACE('',#796,2.5);
#704=CYLINDRICAL_SURFACE('',#799,2.5);
#705=CYLINDRICAL_SURFACE('',#804,77.5);
#706=ADVANCED_FACE('',(#55),#700,.F.);
#707=ADVANCED_FACE('',(#56),#20,.T.);
#708=ADVANCED_FACE('',(#57),#21,.T.);
#709=ADVANCED_FACE('',(#58),#22,.F.);
#710=ADVANCED_FACE('',(#59),#23,.T.);
#711=ADVANCED_FACE('',(#60),#24,.T.);
#712=ADVANCED_FACE('',(#61),#25,.F.);
#713=ADVANCED_FACE('',(#62),#26,.F.);
#714=ADVANCED_FACE('',(#63),#27,.F.);
#715=ADVANCED_FACE('',(#64),#28,.F.);
#716=ADVANCED_FACE('',(#65),#29,.F.);
#717=ADVANCED_FACE('',(#66),#30,.F.);
#718=ADVANCED_FACE('',(#67),#31,.F.);
#719=ADVANCED_FACE('',(#68),#32,.T.);
#720=ADVANCED_FACE('',(#69),#33,.T.);
#721=ADVANCED_FACE('',(#70),#34,.T.);
#722=ADVANCED_FACE('',(#71,#16),#35,.T.);
#723=ADVANCED_FACE('',(#72),#36,.T.);
#724=ADVANCED_FACE('',(#73),#37,.F.);
#725=ADVANCED_FACE('',(#74,#17,#18),#701,.T.);
#726=ADVANCED_FACE('',(#75),#702,.F.);
#727=ADVANCED_FACE('',(#76),#38,.T.);
#728=ADVANCED_FACE('',(#77),#39,.F.);
#729=ADVANCED_FACE('',(#78),#40,.F.);
#730=ADVANCED_FACE('',(#79),#703,.T.);
#731=ADVANCED_FACE('',(#80),#41,.T.);
#732=ADVANCED_FACE('',(#81),#704,.T.);
#733=ADVANCED_FACE('',(#82),#42,.T.);
#734=ADVANCED_FACE('',(#83),#43,.T.);
#735=ADVANCED_FACE('',(#84),#44,.T.);
#736=ADVANCED_FACE('',(#85),#705,.T.);
#737=ADVANCED_FACE('',(#86),#45,.F.);
#738=ADVANCED_FACE('',(#87),#46,.F.);
#739=ADVANCED_FACE('',(#88),#47,.T.);
#740=ADVANCED_FACE('',(#89),#48,.T.);
#741=ADVANCED_FACE('',(#90),#49,.T.);
#742=ADVANCED_FACE('',(#91),#50,.T.);
#743=ADVANCED_FACE('',(#92),#51,.F.);
#744=ADVANCED_FACE('',(#93),#52,.T.);
#745=ADVANCED_FACE('',(#94),#53,.T.);
#746=ADVANCED_FACE('',(#95),#54,.T.);
#747=CLOSED_SHELL('',(#706,#707,#708,#709,#710,#711,#712,#713,#714,#715));
#748=CLOSED_SHELL('',(#716,#717,#718,#719,#720,#721,#722,#723,#724,#725,
#726,#727,#728,#729,#730,#731,#732,#733,#734,#735,#736,#737,#738,#739,#740,
#741,#742,#743,#744,#745,#746));
#749=BREP_WITH_VOIDS('Corps7',#748,(#19));
#750=DERIVED_UNIT_ELEMENT(#752,1.);
#751=DERIVED_UNIT_ELEMENT(#1294,-3.);
#752=(
MASS_UNIT()
NAMED_UNIT(*)
SI_UNIT(.KILO.,.GRAM.)
);
#753=DERIVED_UNIT((#750,#751));
#754=MEASURE_REPRESENTATION_ITEM('density measure',
POSITIVE_RATIO_MEASURE(7850.),#753);
#755=PROPERTY_DEFINITION_REPRESENTATION(#760,#757);
#756=PROPERTY_DEFINITION_REPRESENTATION(#761,#758);
#757=REPRESENTATION('material name',(#759),#1291);
#758=REPRESENTATION('density',(#754),#1291);
#759=DESCRIPTIVE_REPRESENTATION_ITEM('Acier','Acier');
#760=PROPERTY_DEFINITION('material property','material name',#1301);
#761=PROPERTY_DEFINITION('material property','density of part',#1301);
#762=AXIS2_PLACEMENT_3D('',#1012,#816,#817);
#763=AXIS2_PLACEMENT_3D('',#1013,#818,#819);
#764=AXIS2_PLACEMENT_3D('',#1018,#821,#822);
#765=AXIS2_PLACEMENT_3D('',#1021,#824,#825);
#766=AXIS2_PLACEMENT_3D('',#1022,#826,#827);
#767=AXIS2_PLACEMENT_3D('',#1028,#831,#832);
#768=AXIS2_PLACEMENT_3D('',#1034,#836,#837);
#769=AXIS2_PLACEMENT_3D('',#1044,#843,#844);
#770=AXIS2_PLACEMENT_3D('',#1048,#847,#848);
#771=AXIS2_PLACEMENT_3D('',#1052,#851,#852);
#772=AXIS2_PLACEMENT_3D('',#1058,#856,#857);
#773=AXIS2_PLACEMENT_3D('',#1060,#859,#860);
#774=AXIS2_PLACEMENT_3D('',#1062,#862,#863);
#775=AXIS2_PLACEMENT_3D('',#1063,#864,#865);
#776=AXIS2_PLACEMENT_3D('',#1072,#870,#871);
#777=AXIS2_PLACEMENT_3D('',#1078,#875,#876);
#778=AXIS2_PLACEMENT_3D('',#1093,#885,#886);
#779=AXIS2_PLACEMENT_3D('',#1096,#887,#888);
#780=AXIS2_PLACEMENT_3D('',#1103,#893,#894);
#781=AXIS2_PLACEMENT_3D('',#1107,#897,#898);
#782=AXIS2_PLACEMENT_3D('',#1111,#901,#902);
#783=AXIS2_PLACEMENT_3D('',#1116,#905,#906);
#784=AXIS2_PLACEMENT_3D('',#1117,#907,#908);
#785=AXIS2_PLACEMENT_3D('',#1119,#909,#910);
#786=AXIS2_PLACEMENT_3D('',#1121,#912,#913);
#787=AXIS2_PLACEMENT_3D('',#1126,#915,#916);
#788=AXIS2_PLACEMENT_3D('',#1129,#918,#919);
#789=AXIS2_PLACEMENT_3D('',#1130,#920,#921);
#790=AXIS2_PLACEMENT_3D('',#1135,#924,#925);
#791=AXIS2_PLACEMENT_3D('',#1210,#928,#929);
#792=AXIS2_PLACEMENT_3D('',#1214,#931,#932);
#793=AXIS2_PLACEMENT_3D('',#1216,#934,#935);
#794=AXIS2_PLACEMENT_3D('',#1219,#938,#939);
#795=AXIS2_PLACEMENT_3D('',#1220,#940,#941);
#796=AXIS2_PLACEMENT_3D('',#1221,#942,#943);
#797=AXIS2_PLACEMENT_3D('',#1223,#945,#946);
#798=AXIS2_PLACEMENT_3D('',#1224,#947,#948);
#799=AXIS2_PLACEMENT_3D('',#1225,#949,#950);
#800=AXIS2_PLACEMENT_3D('',#1226,#951,#952);
#801=AXIS2_PLACEMENT_3D('',#1232,#956,#957);
#802=AXIS2_PLACEMENT_3D('',#1238,#960,#961);
#803=AXIS2_PLACEMENT_3D('',#1240,#963,#964);
#804=AXIS2_PLACEMENT_3D('',#1244,#967,#968);
#805=AXIS2_PLACEMENT_3D('',#1249,#971,#972);
#806=AXIS2_PLACEMENT_3D('',#1250,#973,#974);
#807=AXIS2_PLACEMENT_3D('',#1254,#977,#978);
#808=AXIS2_PLACEMENT_3D('',#1258,#981,#982);
#809=AXIS2_PLACEMENT_3D('',#1267,#987,#988);
#810=AXIS2_PLACEMENT_3D('',#1273,#992,#993);
#811=AXIS2_PLACEMENT_3D('',#1278,#997,#998);
#812=AXIS2_PLACEMENT_3D('',#1283,#1002,#1003);
#813=AXIS2_PLACEMENT_3D('',#1284,#1004,#1005);
#814=AXIS2_PLACEMENT_3D('',#1287,#1008,#1009);
#815=AXIS2_PLACEMENT_3D('',#1288,#1010,#1011);
#816=DIRECTION('axis',(0.,0.,1.));
#817=DIRECTION('refdir',(1.,0.,0.));
#818=DIRECTION('center_axis',(0.,0.,1.));
#819=DIRECTION('ref_axis',(1.,0.,0.));
#820=DIRECTION('',(0.,0.,1.));
#821=DIRECTION('center_axis',(0.,0.,1.));
#822=DIRECTION('ref_axis',(1.,0.,0.));
#823=DIRECTION('',(0.,0.,-1.));
#824=DIRECTION('center_axis',(0.,0.,1.));
#825=DIRECTION('ref_axis',(1.,0.,0.));
#826=DIRECTION('center_axis',(0.,1.,0.));
#827=DIRECTION('ref_axis',(1.,0.,0.));
#828=DIRECTION('',(0.,0.,1.));
#829=DIRECTION('',(1.,0.,0.));
#830=DIRECTION('',(-1.,0.,0.));
#831=DIRECTION('center_axis',(0.,1.,0.));
#832=DIRECTION('ref_axis',(1.,0.,0.));
#833=DIRECTION('',(0.,0.,-1.));
#834=DIRECTION('',(-1.,0.,0.));
#835=DIRECTION('',(1.,0.,0.));
#836=DIRECTION('center_axis',(1.,0.,0.));
#837=DIRECTION('ref_axis',(0.,0.,1.));
#838=DIRECTION('',(0.,1.,0.));
#839=DIRECTION('',(0.,0.,-1.));
#840=DIRECTION('',(0.,-1.,0.));
#841=DIRECTION('',(0.,0.,1.));
#842=DIRECTION('',(0.,-1.,0.));
#843=DIRECTION('center_axis',(0.,0.,1.));
#844=DIRECTION('ref_axis',(1.,0.,0.));
#845=DIRECTION('',(0.,-1.,0.));
#846=DIRECTION('',(1.,0.,0.));
#847=DIRECTION('center_axis',(0.,1.,0.));
#848=DIRECTION('ref_axis',(0.,0.,1.));
#849=DIRECTION('',(0.,0.,1.));
#850=DIRECTION('',(1.,0.,0.));
#851=DIRECTION('center_axis',(0.,-1.,0.));
#852=DIRECTION('ref_axis',(0.,0.,-1.));
#853=DIRECTION('',(-1.,0.,0.));
#854=DIRECTION('',(1.,0.,0.));
#855=DIRECTION('',(0.,0.,-1.));
#856=DIRECTION('center_axis',(0.,0.,-1.));
#857=DIRECTION('ref_axis',(1.,0.,0.));
#858=DIRECTION('',(0.,1.,0.));
#859=DIRECTION('center_axis',(-1.,0.,0.));
#860=DIRECTION('ref_axis',(0.,0.,-1.));
#861=DIRECTION('',(0.,1.,0.));
#862=DIRECTION('center_axis',(0.,0.,1.));
#863=DIRECTION('ref_axis',(1.,0.,0.));
#864=DIRECTION('center_axis',(0.,0.,1.));
#865=DIRECTION('ref_axis',(1.,0.,0.));
#866=DIRECTION('',(0.,-1.,0.));
#867=DIRECTION('',(-1.,0.,0.));
#868=DIRECTION('',(0.,-1.,0.));
#869=DIRECTION('',(1.,0.,0.));
#870=DIRECTION('center_axis',(0.,1.,0.));
#871=DIRECTION('ref_axis',(0.,0.,1.));
#872=DIRECTION('',(-1.,0.,0.));
#873=DIRECTION('',(0.,0.,1.));
#874=DIRECTION('',(0.,0.,-1.));
#875=DIRECTION('center_axis',(0.,-1.,0.));
#876=DIRECTION('ref_axis',(1.,0.,0.));
#877=DIRECTION('',(0.,0.,1.));
#878=DIRECTION('',(-1.,0.,0.));
#879=DIRECTION('',(0.,0.,1.));
#880=DIRECTION('',(1.,0.,0.));
#881=DIRECTION('',(0.,0.,-1.));
#882=DIRECTION('',(-1.,0.,0.));
#883=DIRECTION('',(0.,0.,-1.));
#884=DIRECTION('',(1.,0.,0.));
#885=DIRECTION('center_axis',(0.,0.,-1.));
#886=DIRECTION('ref_axis',(1.,0.,0.));
#887=DIRECTION('center_axis',(0.,0.,1.));
#888=DIRECTION('ref_axis',(1.,0.,0.));
#889=DIRECTION('',(1.,0.,0.));
#890=DIRECTION('',(0.,-1.,0.));
#891=DIRECTION('',(0.,-1.,0.));
#892=DIRECTION('',(1.,0.,0.));
#893=DIRECTION('center_axis',(1.,0.,0.));
#894=DIRECTION('ref_axis',(0.,0.,1.));
#895=DIRECTION('',(0.,-1.,0.));
#896=DIRECTION('',(0.,0.,1.));
#897=DIRECTION('center_axis',(-1.,0.,0.));
#898=DIRECTION('ref_axis',(0.,0.,-1.));
#899=DIRECTION('',(0.,0.,-1.));
#900=DIRECTION('',(0.,-1.,0.));
#901=DIRECTION('center_axis',(0.,-1.,0.));
#902=DIRECTION('ref_axis',(0.,0.,-1.));
#903=DIRECTION('',(0.,0.,-1.));
#904=DIRECTION('',(-1.,0.,0.));
#905=DIRECTION('center_axis',(0.,1.,0.));
#906=DIRECTION('ref_axis',(1.,0.,0.));
#907=DIRECTION('center_axis',(0.,0.,1.));
#908=DIRECTION('ref_axis',(-1.,0.,0.));
#909=DIRECTION('center_axis',(0.,0.,-1.));
#910=DIRECTION('ref_axis',(1.,0.,0.));
#911=DIRECTION('',(-1.,0.,0.));
#912=DIRECTION('center_axis',(0.,0.,1.));
#913=DIRECTION('ref_axis',(1.,0.,0.));
#914=DIRECTION('',(0.,1.,0.));
#915=DIRECTION('center_axis',(0.,0.,1.));
#916=DIRECTION('ref_axis',(1.,0.,0.));
#917=DIRECTION('',(0.,-1.,0.));
#918=DIRECTION('center_axis',(0.,0.,-1.));
#919=DIRECTION('ref_axis',(1.,0.,0.));
#920=DIRECTION('center_axis',(0.,0.,-1.));
#921=DIRECTION('ref_axis',(6.12323399573677E-17,1.,0.));
#922=DIRECTION('',(0.,0.,-1.));
#923=DIRECTION('',(0.,0.,1.));
#924=DIRECTION('center_axis',(0.,0.,1.));
#925=DIRECTION('ref_axis',(1.,0.,0.));
#926=DIRECTION('',(0.,0.,1.));
#927=DIRECTION('',(0.,0.,1.));
#928=DIRECTION('center_axis',(0.,0.,-1.));
#929=DIRECTION('ref_axis',(6.12323399573677E-17,1.,0.));
#930=DIRECTION('',(0.,0.,1.));
#931=DIRECTION('center_axis',(0.,0.,-1.));
#932=DIRECTION('ref_axis',(1.,0.,0.));
#933=DIRECTION('',(0.,0.,-1.));
#934=DIRECTION('center_axis',(0.,0.,1.));
#935=DIRECTION('ref_axis',(1.,0.,0.));
#936=DIRECTION('',(0.,-1.,0.));
#937=DIRECTION('',(0.,1.,0.));
#938=DIRECTION('center_axis',(1.,0.,0.));
#939=DIRECTION('ref_axis',(0.,-1.,0.));
#940=DIRECTION('center_axis',(-1.,0.,0.));
#941=DIRECTION('ref_axis',(0.,1.,0.));
#942=DIRECTION('center_axis',(0.,-1.,0.));
#943=DIRECTION('ref_axis',(1.,0.,0.));
#944=DIRECTION('',(0.,1.,0.));
#945=DIRECTION('center_axis',(0.,-1.,0.));
#946=DIRECTION('ref_axis',(0.,0.,-1.));
#947=DIRECTION('center_axis',(0.,1.,0.));
#948=DIRECTION('ref_axis',(1.,0.,0.));
#949=DIRECTION('center_axis',(0.,-1.,0.));
#950=DIRECTION('ref_axis',(-1.,0.,-1.22464679914735E-16));
#951=DIRECTION('center_axis',(-1.,0.,0.));
#952=DIRECTION('ref_axis',(0.,0.,-1.));
#953=DIRECTION('',(0.,-1.,0.));
#954=DIRECTION('',(0.,0.,1.));
#955=DIRECTION('',(0.,-1.,0.));
#956=DIRECTION('center_axis',(0.,0.,1.));
#957=DIRECTION('ref_axis',(1.,0.,0.));
#958=DIRECTION('',(0.,-1.,0.));
#959=DIRECTION('',(1.,0.,0.));
#960=DIRECTION('center_axis',(0.,0.,1.));
#961=DIRECTION('ref_axis',(1.,0.,0.));
#962=DIRECTION('',(1.,0.,0.));
#963=DIRECTION('center_axis',(1.,0.,0.));
#964=DIRECTION('ref_axis',(0.,0.,1.));
#965=DIRECTION('',(0.,-1.,0.));
#966=DIRECTION('',(0.,0.,-1.));
#967=DIRECTION('center_axis',(0.,0.,1.));
#968=DIRECTION('ref_axis',(1.,0.,0.));
#969=DIRECTION('',(0.,0.,1.));
#970=DIRECTION('',(0.,0.,-1.));
#971=DIRECTION('center_axis',(0.,0.,1.));
#972=DIRECTION('ref_axis',(1.,0.,0.));
#973=DIRECTION('center_axis',(0.,1.,0.));
#974=DIRECTION('ref_axis',(1.,0.,0.));
#975=DIRECTION('',(-1.,0.,0.));
#976=DIRECTION('',(-1.,0.,0.));
#977=DIRECTION('center_axis',(0.,1.,0.));
#978=DIRECTION('ref_axis',(1.,0.,0.));
#979=DIRECTION('',(-1.,0.,0.));
#980=DIRECTION('',(-1.,0.,0.));
#981=DIRECTION('center_axis',(0.,0.,-1.));
#982=DIRECTION('ref_axis',(-1.,0.,0.));
#983=DIRECTION('',(1.,0.,0.));
#984=DIRECTION('',(0.,-1.,0.));
#985=DIRECTION('',(1.,0.,0.));
#986=DIRECTION('',(0.,-1.,0.));
#987=DIRECTION('center_axis',(0.,1.,0.));
#988=DIRECTION('ref_axis',(1.,0.,0.));
#989=DIRECTION('',(-1.,0.,0.));
#990=DIRECTION('',(0.,0.,-1.));
#991=DIRECTION('',(0.,0.,-1.));
#992=DIRECTION('center_axis',(1.,0.,0.));
#993=DIRECTION('ref_axis',(0.,-1.,0.));
#994=DIRECTION('',(0.,1.,0.));
#995=DIRECTION('',(0.,-1.,0.));
#996=DIRECTION('',(0.,0.,1.));
#997=DIRECTION('center_axis',(-1.,0.,0.));
#998=DIRECTION('ref_axis',(0.,1.,0.));
#999=DIRECTION('',(0.,-1.,0.));
#1000=DIRECTION('',(0.,0.,-1.));
#1001=DIRECTION('',(0.,-1.,0.));
#1002=DIRECTION('center_axis',(0.,0.,1.));
#1003=DIRECTION('ref_axis',(1.,0.,0.));
#1004=DIRECTION('center_axis',(0.,-1.,0.));
#1005=DIRECTION('ref_axis',(0.,0.,-1.));
#1006=DIRECTION('',(-1.,0.,0.));
#1007=DIRECTION('',(-1.,0.,0.));
#1008=DIRECTION('center_axis',(0.,0.,1.));
#1009=DIRECTION('ref_axis',(-1.,0.,0.));
#1010=DIRECTION('center_axis',(0.,0.,1.));
#1011=DIRECTION('ref_axis',(-1.,0.,0.));
#1012=CARTESIAN_POINT('',(0.,0.,0.));
#1013=CARTESIAN_POINT('Origin',(182.695950292253,-6.4885898891724,-12.0398402169491));
#1014=CARTESIAN_POINT('',(158.179387561488,64.9200100961843,-10.0398402169491));
#1015=CARTESIAN_POINT('',(158.179387561488,64.9200100961843,-4.03984021694907));
#1016=CARTESIAN_POINT('',(158.179387561495,64.920010096185,-12.0398402169491));
#1017=CARTESIAN_POINT('',(207.212513023019,64.9200100961843,-10.0398402169491));
#1018=CARTESIAN_POINT('Origin',(182.695950292253,-6.4885898891724,-10.0398402169491));
#1019=CARTESIAN_POINT('',(207.212513023019,64.9200100961843,-4.03984021694907));
#1020=CARTESIAN_POINT('',(207.212513023012,64.920010096185,-12.0398402169491));
#1021=CARTESIAN_POINT('Origin',(182.695950292253,-6.4885898891724,-4.03984021694907));
#1022=CARTESIAN_POINT('Origin',(148.218475789723,64.920010096185,-2.03984021694907));
#1023=CARTESIAN_POINT('',(185.695950366759,64.920010096185,-4.03984021694907));
#1024=CARTESIAN_POINT('',(185.695950366759,64.920010096185,-10.0398402169491));
#1025=CARTESIAN_POINT('',(185.695950366759,64.920010096185,-7.03984021694907));
#1026=CARTESIAN_POINT('',(165.457213040988,64.920010096185,-4.03984021694907));
#1027=CARTESIAN_POINT('',(165.457213040988,64.920010096185,-10.0398402169491));
#1028=CARTESIAN_POINT('Origin',(148.218475789723,64.920010096185,-2.03984021694907));
#1029=CARTESIAN_POINT('',(179.695950217748,64.920010096185,-10.0398402169491));
#1030=CARTESIAN_POINT('',(179.695950217748,64.920010096185,-4.03984021694907));
#1031=CARTESIAN_POINT('',(179.695950217748,64.920010096185,-2.03984014244327));
#1032=CARTESIAN_POINT('',(165.457213040988,64.920010096185,-10.0398402169491));
#1033=CARTESIAN_POINT('',(165.457213040988,64.920010096185,-4.03984021694907));
#1034=CARTESIAN_POINT('Origin',(185.695950366759,67.920010096185,-12.0398402169491));
#1035=CARTESIAN_POINT('',(185.695950366759,11.920010096185,-10.0398402169491));
#1036=CARTESIAN_POINT('',(185.695950366759,33.2157101035063,-10.0398402169491));
#1037=CARTESIAN_POINT('',(185.695950366759,11.920010096185,-10.0000001788139));
#1038=CARTESIAN_POINT('',(185.695950366759,11.920010096185,-9.53984017969617));
#1039=CARTESIAN_POINT('',(185.695950366759,7.92001009618504,-10.0000001788139));
#1040=CARTESIAN_POINT('',(185.695950366759,44.920010096185,-10.0000001788139));
#1041=CARTESIAN_POINT('',(185.695950366759,7.92001009618504,-4.03984021694907));
#1042=CARTESIAN_POINT('',(185.695950366759,7.92001009618504,-9.5199201606286));
#1043=CARTESIAN_POINT('',(185.695950366759,40.2157101035063,-4.03984021694907));
#1044=CARTESIAN_POINT('Origin',(182.695950292253,-1.4885898891724,-10.0398402169491));
#1045=CARTESIAN_POINT('',(179.695950217748,11.920010096185,-10.0398402169491));
#1046=CARTESIAN_POINT('',(179.695950217748,33.2157101035063,-10.0398402169491));
#1047=CARTESIAN_POINT('',(182.695950292253,11.920010096185,-10.0398402169491));
#1048=CARTESIAN_POINT('Origin',(182.695950292253,11.920010096185,-7.03984014244327));
#1049=CARTESIAN_POINT('',(179.695950217748,11.920010096185,-10.0000001788139));
#1050=CARTESIAN_POINT('',(179.695950217748,11.920010096185,-4.53984010519036));
#1051=CARTESIAN_POINT('',(176.347975816679,11.920010096185,-10.0000001788139));
#1052=CARTESIAN_POINT('Origin',(182.500001527369,7.92001009618504,-7.00000010430813));
#1053=CARTESIAN_POINT('',(179.695950217748,7.92001009618504,-4.03984021694907));
#1054=CARTESIAN_POINT('',(182.597975909811,7.92001009618504,-4.03984021694907));
#1055=CARTESIAN_POINT('',(179.695950217748,7.92001009618504,-10.0000001788139));
#1056=CARTESIAN_POINT('',(176.250001434237,7.92001009618504,-10.0000001788139));
#1057=CARTESIAN_POINT('',(179.695950217748,7.92001009618504,-4.5199200861228));
#1058=CARTESIAN_POINT('Origin',(170.000001341105,9.92001009618504,-10.0000001788139));
#1059=CARTESIAN_POINT('',(179.695950217748,44.920010096185,-10.0000001788139));
#1060=CARTESIAN_POINT('Origin',(179.695950217748,67.920010096185,-2.03984006793746));
#1061=CARTESIAN_POINT('',(179.695950217748,33.2157101035063,-4.03984021694907));
#1062=CARTESIAN_POINT('Origin',(182.695950292253,-1.4885898891724,-4.03984021694907));
#1063=CARTESIAN_POINT('Origin',(182.695950292253,-1.4885898891724,-12.0398402169491));
#1064=CARTESIAN_POINT('',(187.695950366759,61.5,-12.0398402169491));
#1065=CARTESIAN_POINT('',(187.695950366759,9.92001009618504,-12.0398402169491));
#1066=CARTESIAN_POINT('',(187.695950366759,62.920010096185,-12.0398402169491));
#1067=CARTESIAN_POINT('',(177.695950217748,9.92001009618504,-12.0398402169491));
#1068=CARTESIAN_POINT('',(182.695950292253,9.92001009618504,-12.0398402169491));
#1069=CARTESIAN_POINT('',(177.695950217748,61.5,-12.0398402169491));
#1070=CARTESIAN_POINT('',(177.695950217748,67.920010096185,-12.0398402169491));
#1071=CARTESIAN_POINT('',(186.347975146127,61.5,-12.0398402169491));
#1072=CARTESIAN_POINT('Origin',(182.695950292253,9.92001009618504,-7.03984014244327));
#1073=CARTESIAN_POINT('',(187.695950366759,9.92001009618504,-12.0000001788139));
#1074=CARTESIAN_POINT('',(177.695950217748,9.92001009618504,-12.0000001788139));
#1075=CARTESIAN_POINT('',(176.347975816679,9.92001009618504,-12.0000001788139));
#1076=CARTESIAN_POINT('',(177.695950217748,9.92001009618504,-4.53984010519036));
#1077=CARTESIAN_POINT('',(187.695950366759,9.92001009618504,-9.53984017969617));
#1078=CARTESIAN_POINT('Origin',(182.500001527369,9.92001009618504,-7.00000010430813));
#1079=CARTESIAN_POINT('',(177.695950217748,9.92001009618504,-2.03984006793746));
#1080=CARTESIAN_POINT('',(177.695950217748,9.92001009618504,-4.53984010519036));
#1081=CARTESIAN_POINT('',(170.000001341105,9.92001009618504,-12.0000001788139));
#1082=CARTESIAN_POINT('',(195.000001713634,9.92001009618504,-12.0000001788139));
#1083=CARTESIAN_POINT('',(170.000001341105,9.92001009618504,-2.00000002980232));
#1084=CARTESIAN_POINT('',(170.000001341105,9.92001009618504,-12.0000001788139));
#1085=CARTESIAN_POINT('',(195.000001713634,9.92001009618504,-2.00000002980232));
#1086=CARTESIAN_POINT('',(170.000001341105,9.92001009618504,-2.00000002980232));
#1087=CARTESIAN_POINT('',(195.000001713634,9.92001009618504,-12.0000001788139));
#1088=CARTESIAN_POINT('',(195.000001713634,9.92001009618504,-2.00000002980232));
#1089=CARTESIAN_POINT('',(195.000001713634,9.92001009618504,-12.0000001788139));
#1090=CARTESIAN_POINT('',(187.695950366759,9.92001009618504,-2.03984006793746));
#1091=CARTESIAN_POINT('',(187.695950366759,9.92001009618504,-9.53984017969617));
#1092=CARTESIAN_POINT('',(182.695950292253,9.92001009618504,-2.03984021694907));
#1093=CARTESIAN_POINT('Origin',(170.000001341105,9.92001009618504,-12.0000001788139));
#1094=CARTESIAN_POINT('',(188.866936303106,5.92001009618504,-12.0000001788139));
#1095=CARTESIAN_POINT('',(176.133066751632,5.92001009618504,-12.0000001788139));
#1096=CARTESIAN_POINT('Origin',(182.500001527369,-5.70000029802322,-12.0000001788139));
#1097=CARTESIAN_POINT('',(170.000001341105,5.92001009618504,-12.0000001788139));
#1098=CARTESIAN_POINT('',(195.000001713634,5.92001009618504,-12.0000001788139));
#1099=CARTESIAN_POINT('',(170.000001341105,9.92001009618504,-12.0000001788139));
#1100=CARTESIAN_POINT('',(195.000001713634,5.92001009618504,-12.0000001788139));
#1101=CARTESIAN_POINT('',(195.000001713634,9.92001009618504,-12.0000001788139));
#1102=CARTESIAN_POINT('',(195.000001713634,5.92001009618504,-12.0000001788139));
#1103=CARTESIAN_POINT('Origin',(195.000001713634,9.92001009618504,-12.0000001788139));
#1104=CARTESIAN_POINT('',(195.000001713634,5.92001009618504,-2.00000002980232));
#1105=CARTESIAN_POINT('',(195.000001713634,9.92001009618504,-2.00000002980232));
#1106=CARTESIAN_POINT('',(195.000001713634,5.92001009618504,-2.00000002980232));
#1107=CARTESIAN_POINT('Origin',(170.000001341105,9.92001009618504,-2.00000002980232));
#1108=CARTESIAN_POINT('',(170.000001341105,5.92001009618504,-2.00000002980232));
#1109=CARTESIAN_POINT('',(170.000001341105,5.92001009618504,-12.0000001788139));
#1110=CARTESIAN_POINT('',(170.000001341105,9.92001009618504,-2.00000002980232));
#1111=CARTESIAN_POINT('Origin',(182.500001527369,5.92001009618504,-7.00000010430813));
#1112=CARTESIAN_POINT('',(188.866936303106,5.92001009618504,-2.00000002980232));
#1113=CARTESIAN_POINT('',(188.866936303106,5.92001009618504,0.));
#1114=CARTESIAN_POINT('',(170.000001341105,5.92001009618504,-2.00000002980232));
#1115=CARTESIAN_POINT('',(189.000001661479,5.92001009618504,-6.50000009685755));
#1116=CARTESIAN_POINT('Origin',(191.500001661479,5.92001009618504,-6.50000009685755));
#1117=CARTESIAN_POINT('Origin',(195.000001713634,9.92001009618504,-2.00000002980232));
#1118=CARTESIAN_POINT('',(176.133066751632,5.92001009618504,-2.00000002980232));
#1119=CARTESIAN_POINT('Origin',(182.500001527369,-5.70000029802322,-2.00000002980232));
#1120=CARTESIAN_POINT('',(170.000001341105,5.92001009618504,-2.00000002980232));
#1121=CARTESIAN_POINT('Origin',(182.500001527369,-5.70000029802322,-14.));
#1122=CARTESIAN_POINT('',(185.000001564622,-18.7120139705389,-14.));
#1123=CARTESIAN_POINT('',(185.000001564622,-16.6687057737726,-14.));
#1124=CARTESIAN_POINT('',(185.000001564622,-9.35000033527612,-14.));
#1125=CARTESIAN_POINT('',(180.000001490116,-16.6687057737726,-14.));
#1126=CARTESIAN_POINT('Origin',(182.500001527369,-5.70000029802322,-14.));
#1127=CARTESIAN_POINT('',(180.000001490116,-18.7120139705389,-14.));
#1128=CARTESIAN_POINT('',(180.000001490116,-14.3500004097819,-14.));
#1129=CARTESIAN_POINT('Origin',(182.500001527369,-5.70000029802322,-14.));
#1130=CARTESIAN_POINT('Origin',(182.500001527369,-5.70000029802322,0.));
#1131=CARTESIAN_POINT('',(185.000001564622,-18.7120139705389,0.));
#1132=CARTESIAN_POINT('',(185.000001564622,-18.7120139705389,0.));
#1133=CARTESIAN_POINT('',(180.000001490116,-18.7120139705389,0.));
#1134=CARTESIAN_POINT('',(180.000001490116,-18.7120139705389,0.));
#1135=CARTESIAN_POINT('Origin',(182.500001527369,-5.70000029802322,0.));
#1136=CARTESIAN_POINT('',(176.133066751632,5.92001009618504,-5.10709292645962));
#1137=CARTESIAN_POINT('',(176.133066751632,5.92001009618504,-8.89290728215663));
#1138=CARTESIAN_POINT('Ctrl Pts',(176.133066751632,5.92001009618504,-5.10709292645962));
#1139=CARTESIAN_POINT('Ctrl Pts',(175.921059701642,5.80384539292863,-4.92418836042427));
#1140=CARTESIAN_POINT('Ctrl Pts',(175.675644807702,5.66138027115293,-4.77681511257207));
#1141=CARTESIAN_POINT('Ctrl Pts',(175.111788929285,5.30504990119855,-4.55320763321354));
#1142=CARTESIAN_POINT('Ctrl Pts',(174.78913211193,5.08130510626173,-4.50000010430813));
#1143=CARTESIAN_POINT('Ctrl Pts',(174.179058925335,4.61922974049689,-4.50000010430813));
#1144=CARTESIAN_POINT('Ctrl Pts',(173.845669281092,4.34174742700248,-4.56461095441691));
#1145=CARTESIAN_POINT('Ctrl Pts',(173.235185823705,3.78142120605178,-4.81836942953365));
#1146=CARTESIAN_POINT('Ctrl Pts',(172.957640602804,3.498756923917,-5.00682700373133));
#1147=CARTESIAN_POINT('Ctrl Pts',(172.53272732372,3.03516581966457,-5.43174028281465));
#1148=CARTESIAN_POINT('Ctrl Pts',(172.344569054052,2.81318383137173,-5.6910153275953));
#1149=CARTESIAN_POINT('Ctrl Pts',(172.144928496293,2.56717066672439,-6.14503594443661));
#1150=CARTESIAN_POINT('Ctrl Pts',(172.091664444208,2.49953546598578,-6.30723555820315));
#1151=CARTESIAN_POINT('Ctrl Pts',(172.019217153837,2.40673903507593,-6.64562861501712));
#1152=CARTESIAN_POINT('Ctrl Pts',(172.00000140816,2.38161448471697,-6.82182515529222));
#1153=CARTESIAN_POINT('Ctrl Pts',(172.00000140816,2.38161448471697,-7.00000010430813));
#1154=CARTESIAN_POINT('Ctrl Pts',(172.00000140816,2.38161448471697,-7.16079478660138));
#1155=CARTESIAN_POINT('Ctrl Pts',(172.015707738508,2.40213001520082,-7.32165294496211));
#1156=CARTESIAN_POINT('Ctrl Pts',(172.076306434616,2.47994545190637,-7.63314958783888));
#1157=CARTESIAN_POINT('Ctrl Pts',(172.121166362425,2.53713389103805,-7.78382221685483));
#1158=CARTESIAN_POINT('Ctrl Pts',(172.290435304071,2.74746401359566,-8.20861591661933));
#1159=CARTESIAN_POINT('Ctrl Pts',(172.451148101519,2.93994701038995,-8.45572497429804));
#1160=CARTESIAN_POINT('Ctrl Pts',(172.853404019881,3.38990055231661,-8.91356455740979));
#1161=CARTESIAN_POINT('Ctrl Pts',(173.14476312641,3.69355022116857,-9.13079197060019));
#1162=CARTESIAN_POINT('Ctrl Pts',(173.793978723033,4.29822175968262,-9.42455709693274));
#1163=CARTESIAN_POINT('Ctrl Pts',(174.152471209322,4.59909194576772,-9.50000010430813));
#1164=CARTESIAN_POINT('Ctrl Pts',(174.799338929978,5.08903584953371,-9.50000010430813));
#1165=CARTESIAN_POINT('Ctrl Pts',(175.133367095148,5.31985483733908,-9.4429437448576));
#1166=CARTESIAN_POINT('Ctrl Pts',(175.694925537211,5.67257234054944,-9.21154170605632));
#1167=CARTESIAN_POINT('Ctrl Pts',(175.928857105874,5.80811781287309,-9.06908480379766));
#1168=CARTESIAN_POINT('Ctrl Pts',(176.133066751632,5.92001009618504,-8.89290728215664));
#1169=CARTESIAN_POINT('',(176.133066751632,5.92001009618504,0.));
#1170=CARTESIAN_POINT('',(176.133066751632,5.92001009618504,0.));
#1171=CARTESIAN_POINT('',(189.000001661479,5.84610286523337,-6.50000009685755));
#1172=CARTESIAN_POINT('Ctrl Pts',(189.000001661479,5.84610286523337,-6.50000009685755));
#1173=CARTESIAN_POINT('Ctrl Pts',(189.000001661479,5.84610286523337,-6.80761699330538));
#1174=CARTESIAN_POINT('Ctrl Pts',(189.060600872762,5.81258800128292,-7.1327247618166));
#1175=CARTESIAN_POINT('Ctrl Pts',(189.29652120471,5.67490518011441,-7.72298385196715));
#1176=CARTESIAN_POINT('Ctrl Pts',(189.471449951011,5.57000774109042,-7.98812155315592));
#1177=CARTESIAN_POINT('Ctrl Pts',(189.912902263708,5.2863483290358,-8.46653172648341));
#1178=CARTESIAN_POINT('Ctrl Pts',(190.224527740211,5.07309727326253,-8.67837054835416));
#1179=CARTESIAN_POINT('Ctrl Pts',(190.870771999933,4.57901424821442,-8.94462696978292));
#1180=CARTESIAN_POINT('Ctrl Pts',(191.204626593048,4.29769854368938,-9.00000009685755));
#1181=CARTESIAN_POINT('Ctrl Pts',(191.862470045656,3.68885513973817,-9.00000009685755));
#1182=CARTESIAN_POINT('Ctrl Pts',(192.231343521204,3.30674588757613,-8.91834575520862));
#1183=CARTESIAN_POINT('Ctrl Pts',(192.892306939617,2.53531879509868,-8.6082561256284));
#1184=CARTESIAN_POINT('Ctrl Pts',(193.185127718795,2.1458810259537,-8.38168021579166));
#1185=CARTESIAN_POINT('Ctrl Pts',(193.572072775456,1.58331654109097,-7.9194886165332));
#1186=CARTESIAN_POINT('Ctrl Pts',(193.720447700355,1.35027861110197,-7.68533847359141));
#1187=CARTESIAN_POINT('Ctrl Pts',(193.880591082392,1.08640284689432,-7.27726831811712));
#1188=CARTESIAN_POINT('Ctrl Pts',(193.923888283022,1.01273300929116,-7.13175146249318));
#1189=CARTESIAN_POINT('Ctrl Pts',(193.983572238923,0.910118678999159,-6.82577883964449));
#1190=CARTESIAN_POINT('Ctrl Pts',(194.000001661479,0.881222758176852,-6.66531510910474));
#1191=CARTESIAN_POINT('Ctrl Pts',(194.000001661479,0.881222758176852,-6.33468508461036));
#1192=CARTESIAN_POINT('Ctrl Pts',(193.983572238923,0.910118678999159,-6.17422135407061));
#1193=CARTESIAN_POINT('Ctrl Pts',(193.923888283022,1.01273300929116,-5.86824873122192));
#1194=CARTESIAN_POINT('Ctrl Pts',(193.880591082392,1.08640284689432,-5.72273187559798));
#1195=CARTESIAN_POINT('Ctrl Pts',(193.720447700355,1.35027861110197,-5.31466172012369));
#1196=CARTESIAN_POINT('Ctrl Pts',(193.572072775456,1.58331654109097,-5.0805115771819));
#1197=CARTESIAN_POINT('Ctrl Pts',(193.185127718795,2.1458810259537,-4.61831997792344));
#1198=CARTESIAN_POINT('Ctrl Pts',(192.892306939617,2.53531879509867,-4.3917440680867));
#1199=CARTESIAN_POINT('Ctrl Pts',(192.231343521204,3.30674588757612,-4.08165443850648));
#1200=CARTESIAN_POINT('Ctrl Pts',(191.862470045656,3.68885513973817,-4.00000009685755));
#1201=CARTESIAN_POINT('Ctrl Pts',(191.204626593048,4.29769854368938,-4.00000009685755));
#1202=CARTESIAN_POINT('Ctrl Pts',(190.870771999933,4.57901424821443,-4.05537322393218));
#1203=CARTESIAN_POINT('Ctrl Pts',(190.224527740211,5.07309727326255,-4.32162964536094));
#1204=CARTESIAN_POINT('Ctrl Pts',(189.912902263708,5.2863483290358,-4.53346846723168));
#1205=CARTESIAN_POINT('Ctrl Pts',(189.471449951011,5.57000774109042,-5.01187864055918));
#1206=CARTESIAN_POINT('Ctrl Pts',(189.29652120471,5.67490518011441,-5.27701634174794));
#1207=CARTESIAN_POINT('Ctrl Pts',(189.060600872762,5.81258800128292,-5.8672754318985));
#1208=CARTESIAN_POINT('Ctrl Pts',(189.000001661479,5.84610286523337,-6.19238320040971));
#1209=CARTESIAN_POINT('Ctrl Pts',(189.000001661479,5.84610286523337,-6.50000009685755));
#1210=CARTESIAN_POINT('Origin',(182.500001527369,-5.70000029802322,0.));
#1211=CARTESIAN_POINT('',(185.000001564622,-16.6687057737726,0.));
#1212=CARTESIAN_POINT('',(185.000001564622,-16.6687057737726,0.));
#1213=CARTESIAN_POINT('',(180.000001490116,-16.6687057737726,0.));
#1214=CARTESIAN_POINT('Origin',(182.500001527369,-5.70000029802322,0.));
#1215=CARTESIAN_POINT('',(180.000001490116,-16.6687057737726,0.));
#1216=CARTESIAN_POINT('Origin',(182.500001527369,-5.70000029802322,0.));
#1217=CARTESIAN_POINT('',(185.000001564622,-9.35000033527612,0.));
#1218=CARTESIAN_POINT('',(180.000001490116,-14.3500004097819,0.));
#1219=CARTESIAN_POINT('Origin',(185.000001564622,-13.000000372529,0.));
#1220=CARTESIAN_POINT('Origin',(180.000001490116,-23.0000005215406,0.));
#1221=CARTESIAN_POINT('Origin',(191.500001661479,5.92001009618504,-6.50000009685755));
#1222=CARTESIAN_POINT('',(189.000001661479,5.92001009618504,-6.50000009685755));
#1223=CARTESIAN_POINT('Origin',(182.500001527369,5.92001009618504,-7.00000010430813));
#1224=CARTESIAN_POINT('Origin',(174.50000140816,5.92001009618504,-7.00000010430813));
#1225=CARTESIAN_POINT('Origin',(174.50000140816,5.92001009618504,-7.00000010430813));
#1226=CARTESIAN_POINT('Origin',(177.695950217748,67.920010096185,-2.03984006793746));
#1227=CARTESIAN_POINT('',(177.695950217748,62.920010096185,-2.03984006793746));
#1228=CARTESIAN_POINT('',(177.695950217748,79.920010096185,-2.03984006793746));
#1229=CARTESIAN_POINT('',(177.695950217748,62.920010096185,-12.0398402169491));
#1230=CARTESIAN_POINT('',(177.695950217748,62.920010096185,-2.03984014244327));
#1231=CARTESIAN_POINT('',(177.695950217748,62.920010096185,-12.0398402169491));
#1232=CARTESIAN_POINT('Origin',(182.695950292253,-1.4885898891724,-2.03984021694907));
#1233=CARTESIAN_POINT('',(187.695950366759,62.920010096185,-2.03984006793746));
#1234=CARTESIAN_POINT('',(187.695950366759,67.920010096185,-2.03984006793746));
#1235=CARTESIAN_POINT('',(217.173424794784,62.920010096185,-2.03984021694907));
#1236=CARTESIAN_POINT('',(165.457213040988,62.920010096185,-2.03984021694907));
#1237=CARTESIAN_POINT('',(148.218475789723,62.920010096185,-2.03984021694907));
#1238=CARTESIAN_POINT('Origin',(182.695950292253,-6.4885898891724,-2.03984021694907));
#1239=CARTESIAN_POINT('',(165.457213040988,62.920010096185,-2.03984021694907));
#1240=CARTESIAN_POINT('Origin',(187.695950366759,67.920010096185,-12.0398402169491));
#1241=CARTESIAN_POINT('',(187.695950366759,62.920010096185,-12.0398402169491));
#1242=CARTESIAN_POINT('',(187.695950366759,62.920010096185,-12.0398402169491));
#1243=CARTESIAN_POINT('',(187.695950366759,62.920010096185,-7.03984021694907));
#1244=CARTESIAN_POINT('Origin',(182.695950292253,-6.4885898891724,-12.0398402169491));
#1245=CARTESIAN_POINT('',(148.218475789723,62.920010096185,-12.0398402169491));
#1246=CARTESIAN_POINT('',(148.218475789723,62.920010096185,-12.0398402169491));
#1247=CARTESIAN_POINT('',(217.173424794784,62.920010096185,-12.0398402169491));
#1248=CARTESIAN_POINT('',(217.173424794784,62.920010096185,-12.0398402169491));
#1249=CARTESIAN_POINT('Origin',(182.695950292253,-6.4885898891724,-12.0398402169491));
#1250=CARTESIAN_POINT('Origin',(148.218475789723,62.920010096185,-2.03984021694907));
#1251=CARTESIAN_POINT('',(190.,62.920010096185,-12.0398402169491));
#1252=CARTESIAN_POINT('',(165.457213040988,62.920010096185,-12.0398402169491));
#1253=CARTESIAN_POINT('',(165.457213040988,62.920010096185,-12.0398402169491));
#1254=CARTESIAN_POINT('Origin',(148.218475789723,62.920010096185,-2.03984021694907));
#1255=CARTESIAN_POINT('',(175.,62.920010096185,-12.0398402169491));
#1256=CARTESIAN_POINT('',(165.457213040988,62.920010096185,-12.0398402169491));
#1257=CARTESIAN_POINT('',(165.457213040988,62.920010096185,-12.0398402169491));
#1258=CARTESIAN_POINT('Origin',(182.5,67.5,-27.0398402169491));
#1259=CARTESIAN_POINT('',(175.,70.,-27.0398402169491));
#1260=CARTESIAN_POINT('',(190.,70.,-27.0398402169491));
#1261=CARTESIAN_POINT('',(190.,70.,-27.0398402169491));
#1262=CARTESIAN_POINT('',(190.,61.5,-27.0398402169491));
#1263=CARTESIAN_POINT('',(190.,65.,-27.0398402169491));
#1264=CARTESIAN_POINT('',(175.,61.5,-27.0398402169491));
#1265=CARTESIAN_POINT('',(175.,61.5,-27.0398402169491));
#1266=CARTESIAN_POINT('',(175.,65.,-27.0398402169491));
#1267=CARTESIAN_POINT('Origin',(175.,70.,-12.0398402169491));
#1268=CARTESIAN_POINT('',(190.,70.,-12.0398402169491));
#1269=CARTESIAN_POINT('',(175.,70.,-12.0398402169491));
#1270=CARTESIAN_POINT('',(178.847975146127,70.,-12.0398402169491));
#1271=CARTESIAN_POINT('',(190.,70.,-12.0398402169491));
#1272=CARTESIAN_POINT('',(175.,70.,-12.0398402169491));
#1273=CARTESIAN_POINT('Origin',(190.,70.,-12.0398402169491));
#1274=CARTESIAN_POINT('',(190.,29.2557050554138,-12.0398402169491));
#1275=CARTESIAN_POINT('',(190.,61.5,-12.0398402169491));
#1276=CARTESIAN_POINT('',(190.,65.,-12.0398402169491));
#1277=CARTESIAN_POINT('',(190.,61.5,-12.0398402169491));
#1278=CARTESIAN_POINT('Origin',(175.,65.,-12.0398402169491));
#1279=CARTESIAN_POINT('',(175.,29.2557050554138,-12.0398402169491));
#1280=CARTESIAN_POINT('',(175.,61.5,-12.0398402169491));
#1281=CARTESIAN_POINT('',(175.,61.5,-12.0398402169491));
#1282=CARTESIAN_POINT('',(175.,65.,-12.0398402169491));
#1283=CARTESIAN_POINT('Origin',(182.695950292253,-6.4885898891724,-12.0398402169491));
#1284=CARTESIAN_POINT('Origin',(190.,61.5,-12.0398402169491));
#1285=CARTESIAN_POINT('',(186.347975146127,61.5,-12.0398402169491));
#1286=CARTESIAN_POINT('',(186.347975146127,61.5,-12.0398402169491));
#1287=CARTESIAN_POINT('Origin',(190.,65.,-12.0398402169491));
#1288=CARTESIAN_POINT('Origin',(190.,65.,-12.0398402169491));
#1289=UNCERTAINTY_MEASURE_WITH_UNIT(LENGTH_MEASURE(0.01),#1293,
'DISTANCE_ACCURACY_VALUE',
'Maximum model space distance between geometric entities at asserted c
onnectivities');
#1290=UNCERTAINTY_MEASURE_WITH_UNIT(LENGTH_MEASURE(0.01),#1293,
'DISTANCE_ACCURACY_VALUE',
'Maximum model space distance between geometric entities at asserted c
onnectivities');
#1291=(
GEOMETRIC_REPRESENTATION_CONTEXT(3)
GLOBAL_UNCERTAINTY_ASSIGNED_CONTEXT((#1289))
GLOBAL_UNIT_ASSIGNED_CONTEXT((#1293,#1295,#1296))
REPRESENTATION_CONTEXT('','3D')
);
#1292=(
GEOMETRIC_REPRESENTATION_CONTEXT(3)
GLOBAL_UNCERTAINTY_ASSIGNED_CONTEXT((#1290))
GLOBAL_UNIT_ASSIGNED_CONTEXT((#1293,#1295,#1296))
REPRESENTATION_CONTEXT('','3D')
);
#1293=(
LENGTH_UNIT()
NAMED_UNIT(*)
SI_UNIT(.MILLI.,.METRE.)
);
#1294=(
LENGTH_UNIT()
NAMED_UNIT(*)
SI_UNIT($,.METRE.)
);
#1295=(
NAMED_UNIT(*)
PLANE_ANGLE_UNIT()
SI_UNIT($,.RADIAN.)
);
#1296=(
NAMED_UNIT(*)
SI_UNIT($,.STERADIAN.)
SOLID_ANGLE_UNIT()
);
#1297=SHAPE_DEFINITION_REPRESENTATION(#1298,#1299);
#1298=PRODUCT_DEFINITION_SHAPE('',$,#1301);
#1299=SHAPE_REPRESENTATION('',(#762),#1291);
#1300=PRODUCT_DEFINITION_CONTEXT('part definition',#1305,'design');
#1301=PRODUCT_DEFINITION('raccord fin','raccord fin v3',#1302,#1300);
#1302=PRODUCT_DEFINITION_FORMATION('',$,#1307);
#1303=PRODUCT_RELATED_PRODUCT_CATEGORY('raccord fin v3',
'raccord fin v3',(#1307));
#1304=APPLICATION_PROTOCOL_DEFINITION('international standard',
'automotive_design',2009,#1305);
#1305=APPLICATION_CONTEXT(
'Core Data for Automotive Mechanical Design Process');
#1306=PRODUCT_CONTEXT('part definition',#1305,'mechanical');
#1307=PRODUCT('raccord fin','raccord fin v3',$,(#1306));
#1308=PRESENTATION_STYLE_ASSIGNMENT((#1309));
#1309=SURFACE_STYLE_USAGE(.BOTH.,#1310);
#1310=SURFACE_SIDE_STYLE('',(#1311));
#1311=SURFACE_STYLE_FILL_AREA(#1312);
#1312=FILL_AREA_STYLE('Acier - Satin\X\E9',(#1313));
#1313=FILL_AREA_STYLE_COLOUR('Acier - Satin\X\E9',#1314);
#1314=COLOUR_RGB('Acier - Satin\X\E9',0.627450980392157,0.627450980392157,
0.627450980392157);
ENDSEC;
END-ISO-10303-21;
