ISO-10303-21;
HEADER;
/* Generated by software containing ST-Developer
 * from STEP Tools, Inc. (www.steptools.com) 
 */

FILE_DESCRIPTION(
/* description */ (''),
/* implementation_level */ '2;1');

FILE_NAME(
/* name */ 'plane reactor.step',
/* time_stamp */ '2026-02-13T19:08:42+04:00',
/* author */ (''),
/* organization */ (''),
/* preprocessor_version */ 'ST-DEVELOPER v20.1',
/* originating_system */ 'Autodesk Translation Framework v14.24.0.0',
/* authorisation */ '');

FILE_SCHEMA (('AUTOMOTIVE_DESIGN { 1 0 10303 214 3 1 1 }'));
ENDSEC;

DATA;
#10=MECHANICAL_DESIGN_GEOMETRIC_PRESENTATION_REPRESENTATION('',(#13),#968);
#11=SHAPE_REPRESENTATION_RELATIONSHIP('SRR','None',#974,#12);
#12=ADVANCED_BREP_SHAPE_REPRESENTATION('',(#14),#967);
#13=STYLED_ITEM('',(#983),#14);
#14=MANIFOLD_SOLID_BREP('Corps de maillage1',#81);
#15=PLANE('',#83);
#16=PLANE('',#84);
#17=FACE_OUTER_BOUND('',#20,.T.);
#18=FACE_OUTER_BOUND('',#21,.T.);
#19=FACE_OUTER_BOUND('',#22,.T.);
#20=EDGE_LOOP('',(#55,#56,#57,#58,#59,#60,#61,#62,#63,#64,#65,#66));
#21=EDGE_LOOP('',(#67,#68,#69,#70,#71));
#22=EDGE_LOOP('',(#72,#73,#74,#75,#76));
#23=B_SPLINE_CURVE_WITH_KNOTS('',3,(#274,#275,#276,#277,#278,#279,#280,
#281,#282,#283,#284,#285,#286,#287,#288,#289,#290,#291,#292,#293,#294,#295,
#296,#297,#298,#299,#300,#301,#302,#303,#304,#305,#306,#307,#308,#309,#310),
 .UNSPECIFIED.,.F.,.F.,(4,3,3,3,3,3,3,3,3,3,3,3,4),(-315.64647453068,-313.816992385284,
-313.084616435397,-309.671385157252,-306.993957006481,-305.115417990662,
-303.575377221326,-302.078145990286,-301.252260192314,-299.413526336941,
-298.311725568652,-297.671243658984,-293.897324770823),.UNSPECIFIED.);
#24=B_SPLINE_CURVE_WITH_KNOTS('',3,(#312,#313,#314,#315,#316,#317,#318,
#319,#320,#321,#322,#323),.UNSPECIFIED.,.F.,.F.,(4,2,2,2,2,4),(-42.2740463008517,
-39.8395711971017,-35.1344666401807,-30.7255380603384,-25.4143309721893,
-25.2106234570689),.UNSPECIFIED.);
#25=B_SPLINE_CURVE_WITH_KNOTS('',3,(#325,#326,#327,#328,#329,#330,#331,
#332,#333,#334,#335,#336,#337,#338,#339,#340,#341,#342,#343,#344,#345,#346,
#347,#348,#349,#350,#351,#352,#353,#354,#355,#356,#357,#358,#359,#360,#361,
#362,#363,#364,#365,#366,#367,#368,#369,#370,#371,#372,#373,#374,#375,#376,
#377,#378,#379,#380,#381,#382,#383,#384,#385,#386,#387,#388,#389,#390,#391,
#392,#393,#394,#395,#396,#397,#398,#399,#400,#401,#402,#403,#404,#405,#406,
#407,#408,#409,#410,#411,#412,#413,#414,#415,#416,#417,#418,#419,#420,#421),
 .UNSPECIFIED.,.F.,.F.,(4,3,3,3,3,3,3,3,3,3,3,3,3,3,3,3,3,3,3,3,3,3,3,3,
3,3,3,3,3,3,3,3,4),(-276.604968700818,-272.339982794215,-269.765891700638,
-268.074996887612,-256.59344416409,-251.570264847549,-249.951458382129,
-213.087016740781,-194.654795920107,-190.033886233168,-185.995385281979,
-176.222575099433,-168.066988608553,-158.228896445695,-116.580370410624,
-95.7561073930878,-92.107955546643,-74.931844375552,-65.2460927151496,-61.3924435809164,
-59.1059073381829,-57.3834586468103,-36.1888377339423,-22.6682320774952,
-15.9079292492716,-14.7693285595437,-13.8485293173962,-13.1751701851665,
-9.14762642104801,-6.66574078432067,-5.26428684725469,-4.42363617832187,
-4.18385514759332),.UNSPECIFIED.);
#26=B_SPLINE_CURVE_WITH_KNOTS('',3,(#423,#424,#425,#426,#427,#428,#429,
#430,#431,#432,#433,#434,#435,#436,#437,#438,#439,#440,#441,#442,#443,#444),
 .UNSPECIFIED.,.F.,.F.,(4,2,2,2,2,2,2,2,2,2,4),(-45.3088663217102,-43.3478490211764,
-34.9291304079637,-32.1651187401298,-31.1430855412093,-30.582339589026,
-30.1494018662124,-29.6841083253111,-29.0021001071129,-27.7187715036775,
-24.9715170672107),.UNSPECIFIED.);
#27=B_SPLINE_CURVE_WITH_KNOTS('',3,(#445,#446,#447,#448,#449,#450,#451,
#452,#453,#454,#455,#456,#457,#458,#459,#460,#461,#462,#463,#464,#465,#466,
#467,#468,#469,#470,#471,#472,#473,#474,#475,#476,#477,#478,#479,#480,#481,
#482,#483,#484,#485,#486,#487,#488,#489,#490,#491,#492,#493,#494,#495,#496,
#497,#498,#499,#500,#501,#502,#503,#504,#505,#506,#507,#508,#509,#510,#511,
#512,#513,#514,#515,#516,#517,#518,#519,#520,#521,#522,#523,#524,#525,#526,
#527,#528,#529,#530,#531,#532,#533,#534,#535,#536,#537,#538,#539,#540,#541,
#542,#543,#544,#545,#546,#547,#548,#549,#550,#551,#552,#553,#554,#555,#556,
#557,#558,#559,#560,#561,#562,#563,#564,#565,#566,#567,#568,#569,#570,#571,
#572,#573,#574,#575,#576,#577,#578,#579,#580,#581,#582,#583,#584,#585,#586,
#587,#588,#589,#590,#591,#592,#593,#594,#595,#596,#597,#598,#599,#600,#601,
#602,#603,#604,#605,#606,#607),.UNSPECIFIED.,.F.,.F.,(4,3,3,3,3,3,3,3,3,
3,3,3,3,3,3,3,3,3,3,3,3,3,3,3,3,3,3,3,3,3,3,3,3,3,3,3,3,3,3,3,3,3,3,3,3,
3,3,3,3,3,3,3,3,3,4),(-427.585142748115,-427.123910778817,-423.911809051885,
-423.558708543874,-421.387371072716,-420.454656295938,-419.923313864942,
-414.873358659243,-413.037587883802,-411.872891700865,-409.313177172073,
-404.315988945511,-402.834675871715,-396.079550068771,-393.913969797606,
-392.345424648175,-389.324424265827,-387.68458402473,-386.823504470071,
-377.303326735329,-374.923282301644,-373.999354566269,-373.297939314878,
-367.783149000587,-366.544810407965,-365.777316927883,-365.164833251072,
-358.310436896992,-354.45450739046,-352.676147325361,-351.577173264741,
-344.662210549746,-342.812552740309,-340.279900287531,-339.013574061141,
-338.153997237353,-337.747247834752,-335.900708933292,-335.378877354443,
-334.230752761517,-333.461584641749,-328.218260632409,-326.754051163565,
-325.614402950094,-322.974936623068,-322.604281635086,-320.864829858984,
-320.542045219116,-320.216457033483,-319.972704181075,-319.747662389433,
-319.424491402883,-318.479987184833,-317.981165073584,-315.64647453068),
 .UNSPECIFIED.);
#28=B_SPLINE_CURVE_WITH_KNOTS('',3,(#609,#610,#611,#612,#613,#614,#615,
#616,#617,#618),.UNSPECIFIED.,.F.,.F.,(4,1,1,1,1,1,1,4),(1.34336877881357,
2.,3.,4.,5.,6.,7.,7.78248097823493),.UNSPECIFIED.);
#29=B_SPLINE_CURVE_WITH_KNOTS('',3,(#620,#621,#622,#623,#624,#625,#626,
#627,#628,#629,#630,#631,#632,#633,#634,#635,#636,#637,#638,#639,#640,#641,
#642,#643,#644,#645,#646,#647,#648,#649,#650,#651,#652,#653,#654,#655,#656,
#657,#658,#659,#660,#661,#662,#663,#664,#665,#666,#667,#668,#669,#670,#671,
#672,#673,#674,#675,#676,#677,#678,#679,#680,#681,#682,#683,#684,#685,#686,
#687,#688,#689,#690,#691,#692,#693,#694,#695,#696,#697,#698,#699,#700,#701,
#702,#703,#704,#705,#706,#707,#708,#709,#710,#711,#712,#713,#714,#715,#716,
#717,#718,#719,#720,#721,#722,#723,#724,#725,#726,#727,#728,#729,#730,#731,
#732,#733,#734,#735,#736,#737,#738,#739,#740,#741,#742,#743,#744,#745,#746,
#747,#748,#749,#750,#751,#752,#753,#754,#755,#756,#757,#758,#759,#760,#761,
#762,#763,#764,#765,#766,#767,#768,#769,#770,#771,#772,#773,#774,#775,#776,
#777,#778,#779,#780,#781,#782,#783,#784,#785,#786,#787,#788),
 .UNSPECIFIED.,.F.,.F.,(4,3,3,3,3,3,3,3,3,3,3,3,3,3,3,3,3,3,3,3,3,3,3,3,
3,3,3,3,3,3,3,3,3,3,3,3,3,3,3,3,3,3,3,3,3,3,3,3,3,3,3,3,3,3,3,3,4),(-72.47618894906,
-70.8261973983992,-70.4642579088335,-70.2033714955571,-69.121584308272,
-68.8165954949463,-68.5892581705056,-68.3844865880994,-68.2225334073931,
-68.0341973714052,-67.8230241889705,-67.6287408391044,-67.2832547359956,
-66.8905595033528,-65.876222746417,-63.5400071753506,-62.5137253640945,
-61.0181341386087,-60.1099944007379,-59.5630369617539,-58.0471987119526,
-57.289279587052,-56.9620705982123,-56.6762491356237,-56.5313604621513,
-56.2380276386216,-56.0085849162694,-55.4596872671057,-55.0349177678461,
-53.7392670094713,-52.5703565350501,-51.8069357274468,-51.2506122013634,
-51.0659815724559,-50.9845705849165,-50.69428867528,-50.0521594961183,-49.9609499355424,
-49.8874121117473,-49.0065920351903,-48.6886666549445,-48.4748580426852,
-48.1257719586333,-47.8096404024702,-46.8460000532663,-46.3641798786644,
-46.1232697913634,-45.9553067177707,-45.8823597040624,-45.465438209688,
-45.2555835990896,-45.1881029889896,-45.1261998937227,-45.0485167153136,
-43.9145789593714,-43.6898601583352,-43.1537046020545),.UNSPECIFIED.);
#30=B_SPLINE_CURVE_WITH_KNOTS('',3,(#790,#791,#792,#793,#794,#795,#796,
#797,#798,#799,#800,#801,#802,#803,#804,#805,#806,#807,#808,#809,#810,#811,
#812,#813,#814,#815,#816,#817,#818,#819,#820),.UNSPECIFIED.,.F.,.F.,(4,
3,3,3,3,3,3,3,3,3,4),(-28.5375802177543,-27.5957719527239,-26.7476461452347,
-26.1092055757034,-25.352115867198,-24.7810694784187,-24.1717943089815,
-23.3904325832199,-22.7618449528108,-20.9695206748589,-18.2951564944026),
 .UNSPECIFIED.);
#31=B_SPLINE_CURVE_WITH_KNOTS('',3,(#822,#823,#824,#825,#826,#827,#828,
#829,#830,#831,#832,#833,#834,#835,#836,#837,#838,#839,#840,#841,#842,#843,
#844,#845,#846,#847,#848,#849,#850,#851,#852,#853,#854,#855,#856,#857,#858,
#859,#860,#861,#862,#863,#864,#865,#866,#867,#868,#869,#870,#871,#872,#873,
#874,#875,#876,#877,#878,#879,#880,#881,#882,#883,#884,#885,#886,#887,#888,
#889,#890,#891,#892,#893,#894,#895,#896,#897,#898,#899,#900,#901,#902,#903,
#904,#905,#906,#907,#908,#909),.UNSPECIFIED.,.F.,.F.,(4,3,3,3,3,3,3,3,3,
3,3,3,3,3,3,3,3,3,3,3,3,3,3,3,3,3,3,3,3,4),(-41.8936458808067,-41.6393207309558,
-40.8699664315487,-40.6602224481163,-40.4757442315401,-39.1577395644175,
-38.1474091436315,-37.3896613280421,-37.2123529840189,-37.0347274012375,
-35.1164178812736,-34.679942083638,-34.3999200105105,-34.1076942988205,
-30.2110854832565,-28.0938494450942,-27.2560558087911,-26.9569471992498,
-25.9758849269832,-25.2229509932532,-24.4115379165155,-24.0138256192288,
-23.624397625774,-21.3664233234454,-20.6942577608031,-20.4671720966275,
-19.1084490211167,-18.6800161395648,-18.4709967143868,-16.7778223503348),
 .UNSPECIFIED.);
#32=B_SPLINE_CURVE_WITH_KNOTS('',3,(#911,#912,#913,#914,#915,#916,#917,
#918,#919,#920,#921,#922),.UNSPECIFIED.,.F.,.F.,(4,2,2,2,2,4),(-47.8840589900979,
-46.1954739013036,-40.2124365165684,-37.4356096514157,-31.3905175905548,
-26.8106765072921),.UNSPECIFIED.);
#33=B_SPLINE_CURVE_WITH_KNOTS('',3,(#923,#924,#925,#926,#927,#928,#929,
#930,#931,#932,#933,#934,#935,#936,#937,#938,#939,#940,#941,#942,#943,#944,
#945,#946,#947,#948,#949,#950,#951,#952,#953,#954,#955,#956,#957,#958,#959,
#960,#961,#962),.UNSPECIFIED.,.F.,.F.,(4,3,3,3,3,3,3,3,3,3,3,3,3,4),(-11.8623613445929,
-10.6051173844025,-10.2037743286122,-9.34787342421203,-8.76502822061398,
-8.41092855778397,-8.09251547418457,-5.09263212786686,-2.12458922993384,
-0.241667983013146,1.39858317049006,4.21824042419243,5.59038556015718,6.77953946386519),
 .UNSPECIFIED.);
#34=VERTEX_POINT('',#272);
#35=VERTEX_POINT('',#273);
#36=VERTEX_POINT('',#311);
#37=VERTEX_POINT('',#324);
#38=VERTEX_POINT('',#422);
#39=VERTEX_POINT('',#608);
#40=VERTEX_POINT('',#619);
#41=VERTEX_POINT('',#789);
#42=VERTEX_POINT('',#821);
#43=VERTEX_POINT('',#910);
#44=EDGE_CURVE('',#34,#35,#23,.T.);
#45=EDGE_CURVE('',#35,#36,#24,.T.);
#46=EDGE_CURVE('',#36,#37,#25,.T.);
#47=EDGE_CURVE('',#37,#38,#26,.T.);
#48=EDGE_CURVE('',#38,#34,#27,.T.);
#49=EDGE_CURVE('',#34,#39,#28,.T.);
#50=EDGE_CURVE('',#39,#40,#29,.T.);
#51=EDGE_CURVE('',#40,#41,#30,.T.);
#52=EDGE_CURVE('',#41,#42,#31,.T.);
#53=EDGE_CURVE('',#42,#43,#32,.T.);
#54=EDGE_CURVE('',#43,#39,#33,.T.);
#55=ORIENTED_EDGE('',*,*,#44,.T.);
#56=ORIENTED_EDGE('',*,*,#45,.T.);
#57=ORIENTED_EDGE('',*,*,#46,.T.);
#58=ORIENTED_EDGE('',*,*,#47,.T.);
#59=ORIENTED_EDGE('',*,*,#48,.T.);
#60=ORIENTED_EDGE('',*,*,#49,.T.);
#61=ORIENTED_EDGE('',*,*,#50,.T.);
#62=ORIENTED_EDGE('',*,*,#51,.T.);
#63=ORIENTED_EDGE('',*,*,#52,.T.);
#64=ORIENTED_EDGE('',*,*,#53,.T.);
#65=ORIENTED_EDGE('',*,*,#54,.T.);
#66=ORIENTED_EDGE('',*,*,#49,.F.);
#67=ORIENTED_EDGE('',*,*,#53,.F.);
#68=ORIENTED_EDGE('',*,*,#52,.F.);
#69=ORIENTED_EDGE('',*,*,#51,.F.);
#70=ORIENTED_EDGE('',*,*,#50,.F.);
#71=ORIENTED_EDGE('',*,*,#54,.F.);
#72=ORIENTED_EDGE('',*,*,#45,.F.);
#73=ORIENTED_EDGE('',*,*,#44,.F.);
#74=ORIENTED_EDGE('',*,*,#48,.F.);
#75=ORIENTED_EDGE('',*,*,#47,.F.);
#76=ORIENTED_EDGE('',*,*,#46,.F.);
#77=B_SPLINE_SURFACE_WITH_KNOTS('',3,3,((#92,#93,#94,#95,#96,#97,#98,#99,
#100,#101,#102,#103,#104,#105,#106),(#107,#108,#109,#110,#111,#112,#113,
#114,#115,#116,#117,#118,#119,#120,#121),(#122,#123,#124,#125,#126,#127,
#128,#129,#130,#131,#132,#133,#134,#135,#136),(#137,#138,#139,#140,#141,
#142,#143,#144,#145,#146,#147,#148,#149,#150,#151),(#152,#153,#154,#155,
#156,#157,#158,#159,#160,#161,#162,#163,#164,#165,#166),(#167,#168,#169,
#170,#171,#172,#173,#174,#175,#176,#177,#178,#179,#180,#181),(#182,#183,
#184,#185,#186,#187,#188,#189,#190,#191,#192,#193,#194,#195,#196),(#197,
#198,#199,#200,#201,#202,#203,#204,#205,#206,#207,#208,#209,#210,#211),
(#212,#213,#214,#215,#216,#217,#218,#219,#220,#221,#222,#223,#224,#225,
#226),(#227,#228,#229,#230,#231,#232,#233,#234,#235,#236,#237,#238,#239,
#240,#241),(#242,#243,#244,#245,#246,#247,#248,#249,#250,#251,#252,#253,
#254,#255,#256),(#257,#258,#259,#260,#261,#262,#263,#264,#265,#266,#267,
#268,#269,#270,#271)),.UNSPECIFIED.,.T.,.T.,.F.,(4,1,1,1,1,1,1,1,1,4),(4,
1,1,1,1,1,1,1,1,1,1,1,4),(0.,1.,2.,3.,4.,5.,6.,7.,8.,9.),(0.,1.,2.,3.,4.,
5.,6.,7.,8.,9.,10.,11.,12.),.UNSPECIFIED.);
#78=ADVANCED_FACE('',(#17),#77,.T.);
#79=ADVANCED_FACE('',(#18),#15,.F.);
#80=ADVANCED_FACE('',(#19),#16,.F.);
#81=CLOSED_SHELL('',(#78,#79,#80));
#82=AXIS2_PLACEMENT_3D('',#91,#85,#86);
#83=AXIS2_PLACEMENT_3D('',#963,#87,#88);
#84=AXIS2_PLACEMENT_3D('',#964,#89,#90);
#85=DIRECTION('axis',(0.,0.,1.));
#86=DIRECTION('refdir',(1.,0.,0.));
#87=DIRECTION('center_axis',(-0.000245945465794309,-0.0024206289128408,
0.999997040028866));
#88=DIRECTION('ref_axis',(0.10117385323705,0.994865785665439,0.00243309133751855));
#89=DIRECTION('center_axis',(-0.000245945465794309,-0.0024206289128408,
0.999997040028866));
#90=DIRECTION('ref_axis',(0.10117385323705,0.994865785665439,0.00243309133751855));
#91=CARTESIAN_POINT('',(0.,0.,0.));
#92=CARTESIAN_POINT('Ctrl Pts',(2752.17467811941,-5559.01143551824,638.578411625066));
#93=CARTESIAN_POINT('Ctrl Pts',(2719.47354113941,-5555.37850111873,617.122534126669));
#94=CARTESIAN_POINT('Ctrl Pts',(2711.02565362791,-5550.71985709108,594.399090536717));
#95=CARTESIAN_POINT('Ctrl Pts',(2936.47405484904,-5570.61920739931,715.101721570438));
#96=CARTESIAN_POINT('Ctrl Pts',(2958.96363701682,-5566.62974961165,490.625489943505));
#97=CARTESIAN_POINT('Ctrl Pts',(2161.15386507042,-5465.90039661831,455.977739323946));
#98=CARTESIAN_POINT('Ctrl Pts',(1413.77093070413,-5380.22561409939,682.883480368782));
#99=CARTESIAN_POINT('Ctrl Pts',(942.980578578194,-5333.23127077194,874.202366447196));
#100=CARTESIAN_POINT('Ctrl Pts',(896.033393924449,-5327.65813278321,859.340320462693));
#101=CARTESIAN_POINT('Ctrl Pts',(1491.84589238447,-5382.68805657749,639.773918805197));
#102=CARTESIAN_POINT('Ctrl Pts',(2302.71258373938,-5497.03749218313,407.347285787833));
#103=CARTESIAN_POINT('Ctrl Pts',(3047.35401226712,-5597.51857379325,523.641676499621));
#104=CARTESIAN_POINT('Ctrl Pts',(2907.23247550793,-5572.5174634881,723.134355527099));
#105=CARTESIAN_POINT('Ctrl Pts',(2784.87581509941,-5562.64436991774,660.034289123463));
#106=CARTESIAN_POINT('Ctrl Pts',(2752.17467811941,-5559.01143551824,638.578411625066));
#107=CARTESIAN_POINT('Ctrl Pts',(2767.21231950621,-5411.51085445588,632.583708738412));
#108=CARTESIAN_POINT('Ctrl Pts',(2735.02593831827,-5402.93672695088,611.152675317353));
#109=CARTESIAN_POINT('Ctrl Pts',(2727.00124166766,-5393.01647030605,588.806479540226));
#110=CARTESIAN_POINT('Ctrl Pts',(2949.81213792725,-5441.00959918875,710.792913571412));
#111=CARTESIAN_POINT('Ctrl Pts',(2976.98804328224,-5382.92396490036,486.796794995843));
#112=CARTESIAN_POINT('Ctrl Pts',(2180.51116080733,-5276.27771641701,457.71137375093));
#113=CARTESIAN_POINT('Ctrl Pts',(1427.32674445894,-5242.98111812509,686.640046376807));
#114=CARTESIAN_POINT('Ctrl Pts',(953.900880750576,-5240.0066939181,877.376030828859));
#115=CARTESIAN_POINT('Ctrl Pts',(904.18109496797,-5230.53017075601,863.648553100959));
#116=CARTESIAN_POINT('Ctrl Pts',(1506.74566678082,-5235.97662692644,644.878847832173));
#117=CARTESIAN_POINT('Ctrl Pts',(2322.83334246068,-5295.25553019984,404.923048980514));
#118=CARTESIAN_POINT('Ctrl Pts',(3065.10245014979,-5423.45024380653,515.545222057472));
#119=CARTESIAN_POINT('Ctrl Pts',(2920.11952879529,-5444.46123533604,717.392680066577));
#120=CARTESIAN_POINT('Ctrl Pts',(2799.39870069415,-5420.08498196087,654.01474215947));
#121=CARTESIAN_POINT('Ctrl Pts',(2767.21231950621,-5411.51085445588,632.583708738412));
#122=CARTESIAN_POINT('Ctrl Pts',(2796.88423597382,-5112.04249512808,727.20836539735));
#123=CARTESIAN_POINT('Ctrl Pts',(2765.83471275572,-5094.0922281981,709.424773388545));
#124=CARTESIAN_POINT('Ctrl Pts',(2760.61293436938,-5078.45892118456,692.089346002704));
#125=CARTESIAN_POINT('Ctrl Pts',(2977.25125065769,-5177.08836802812,795.98943292159));
#126=CARTESIAN_POINT('Ctrl Pts',(3012.28677217666,-5018.73343954908,615.280483059663));
#127=CARTESIAN_POINT('Ctrl Pts',(2218.67521901609,-4899.19791006747,599.043184840056));
#128=CARTESIAN_POINT('Ctrl Pts',(1454.36456552115,-4971.64433096033,794.225895844291));
#129=CARTESIAN_POINT('Ctrl Pts',(975.777934843272,-5054.65258580071,952.011011449854));
#130=CARTESIAN_POINT('Ctrl Pts',(921.052628231459,-5040.60822135597,943.630360982699));
#131=CARTESIAN_POINT('Ctrl Pts',(1535.79425544813,-4946.00821337815,761.736715284968));
#132=CARTESIAN_POINT('Ctrl Pts',(2363.16530643765,-4892.12162434445,547.762495337047));
#133=CARTESIAN_POINT('Ctrl Pts',(3100.10070312614,-5069.43519855877,627.247239229404));
#134=CARTESIAN_POINT('Ctrl Pts',(2946.91007367794,-5186.16052276447,798.790898055542));
#135=CARTESIAN_POINT('Ctrl Pts',(2827.93375919191,-5129.99276205807,744.991957406157));
#136=CARTESIAN_POINT('Ctrl Pts',(2796.88423597382,-5112.04249512808,727.20836539735));
#137=CARTESIAN_POINT('Ctrl Pts',(2823.06747282808,-4858.56053058385,1126.68760719373));
#138=CARTESIAN_POINT('Ctrl Pts',(2792.95470245841,-4832.41995784823,1122.67741059832));
#139=CARTESIAN_POINT('Ctrl Pts',(2786.30650812132,-4806.04022629634,1121.61709382275));
#140=CARTESIAN_POINT('Ctrl Pts',(2997.69873312877,-4956.3087600065,1150.01823240097));
#141=CARTESIAN_POINT('Ctrl Pts',(3045.97244896456,-4722.06194647426,1110.32346827513));
#142=CARTESIAN_POINT('Ctrl Pts',(2249.2994934221,-4598.15399918215,1125.2451736106));
#143=CARTESIAN_POINT('Ctrl Pts',(1474.44741555471,-4762.08129498933,1179.59076047675));
#144=CARTESIAN_POINT('Ctrl Pts',(989.270701896147,-4915.5114587367,1216.95189071648));
#145=CARTESIAN_POINT('Ctrl Pts',(932.93456294625,-4896.49375826807,1216.04206747544));
#146=CARTESIAN_POINT('Ctrl Pts',(1557.49585548506,-4723.64272144169,1174.42660565061));
#147=CARTESIAN_POINT('Ctrl Pts',(2395.9854010224,-4563.02803445416,1103.11063314861));
#148=CARTESIAN_POINT('Ctrl Pts',(3133.12188546326,-4770.26657602046,1088.67035389153));
#149=CARTESIAN_POINT('Ctrl Pts',(2966.98313033931,-4962.88366271,1145.67827339524));
#150=CARTESIAN_POINT('Ctrl Pts',(2853.18024319774,-4884.70110331946,1130.69780378915));
#151=CARTESIAN_POINT('Ctrl Pts',(2823.06747282808,-4858.56053058385,1126.68760719373));
#152=CARTESIAN_POINT('Ctrl Pts',(2817.10881651538,-4917.89989010582,1597.2863063791));
#153=CARTESIAN_POINT('Ctrl Pts',(2786.60856081082,-4894.62760611907,1609.15036945953));
#154=CARTESIAN_POINT('Ctrl Pts',(2779.64648819135,-4874.92681969467,1624.39846186212));
#155=CARTESIAN_POINT('Ctrl Pts',(2992.512175326,-5013.48458148187,1564.35204763921));
#156=CARTESIAN_POINT('Ctrl Pts',(3034.78098353834,-4806.84668723955,1689.97454861647));
#157=CARTESIAN_POINT('Ctrl Pts',(2238.87632258613,-4703.47748364308,1721.87613296453));
#158=CARTESIAN_POINT('Ctrl Pts',(1465.76629277454,-4845.79473889584,1611.18373347521));
#159=CARTESIAN_POINT('Ctrl Pts',(987.04022494991,-4974.84700065969,1510.33402742753));
#160=CARTESIAN_POINT('Ctrl Pts',(930.234767625762,-4961.97465687566,1524.56178406404));
#161=CARTESIAN_POINT('Ctrl Pts',(1549.48808710023,-4814.21827264102,1638.42236260452));
#162=CARTESIAN_POINT('Ctrl Pts',(2386.21852943907,-4667.07701986557,1740.06553346376));
#163=CARTESIAN_POINT('Ctrl Pts',(3125.53285397837,-4836.06529798847,1653.19529105366));
#164=CARTESIAN_POINT('Ctrl Pts',(2962.64802241871,-5014.56052361517,1553.21408337952));
#165=CARTESIAN_POINT('Ctrl Pts',(2847.60907221994,-4941.17217409257,1585.42224329867));
#166=CARTESIAN_POINT('Ctrl Pts',(2817.10881651538,-4917.89989010582,1597.2863063791));
#167=CARTESIAN_POINT('Ctrl Pts',(2781.45878759553,-5267.25635694149,1921.13652343466));
#168=CARTESIAN_POINT('Ctrl Pts',(2749.80286607173,-5255.81674799304,1942.76758571326));
#169=CARTESIAN_POINT('Ctrl Pts',(2741.08170694206,-5246.287083736,1965.28072077904));
#170=CARTESIAN_POINT('Ctrl Pts',(2960.02042786459,-5322.08039165153,1845.86088664689));
#171=CARTESIAN_POINT('Ctrl Pts',(2990.86126640788,-5246.09911524204,2074.22897293792));
#172=CARTESIAN_POINT('Ctrl Pts',(2191.28368896071,-5162.9329822468,2114.33346017776));
#173=CARTESIAN_POINT('Ctrl Pts',(1429.47668375708,-5187.37869671384,1890.66793930376));
#174=CARTESIAN_POINT('Ctrl Pts',(938.685935272442,-5212.51047479213,1690.30739006248));
#175=CARTESIAN_POINT('Ctrl Pts',(922.02316544916,-5209.14493240895,1718.27456182675));
#176=CARTESIAN_POINT('Ctrl Pts',(1507.40565293864,-5185.81368118254,1936.42538145333));
#177=CARTESIAN_POINT('Ctrl Pts',(2339.08987611969,-5151.39457002364,2161.43659939308));
#178=CARTESIAN_POINT('Ctrl Pts',(3084.17300886503,-5249.92443596349,2033.40294455696));
#179=CARTESIAN_POINT('Ctrl Pts',(2931.01723608489,-5314.92473742673,1835.49434710744));
#180=CARTESIAN_POINT('Ctrl Pts',(2813.11470911934,-5278.69596588995,1899.50546115606));
#181=CARTESIAN_POINT('Ctrl Pts',(2781.45878759553,-5267.25635694149,1921.13652343466));
#182=CARTESIAN_POINT('Ctrl Pts',(2733.03887068386,-5741.43129356551,1941.77102093399));
#183=CARTESIAN_POINT('Ctrl Pts',(2699.80993077976,-5746.35899488164,1963.67817096431));
#184=CARTESIAN_POINT('Ctrl Pts',(2690.68704347725,-5756.63539293887,1986.9144076479));
#185=CARTESIAN_POINT('Ctrl Pts',(2915.29077812275,-5738.91620253433,1861.38721080089));
#186=CARTESIAN_POINT('Ctrl Pts',(2935.82023327112,-5825.23801163197,2087.02766531252));
#187=CARTESIAN_POINT('Ctrl Pts',(2128.75818063208,-5767.10763676305,2120.53335639569));
#188=CARTESIAN_POINT('Ctrl Pts',(1387.56112728724,-5636.18727068105,1880.76472901912));
#189=CARTESIAN_POINT('Ctrl Pts',(907.410593458497,-5509.26013502295,1679.95412810333));
#190=CARTESIAN_POINT('Ctrl Pts',(888.225744346583,-5520.99087471853,1702.2834756327));
#191=CARTESIAN_POINT('Ctrl Pts',(1459.03804573273,-5661.30678026059,1921.86889399324));
#192=CARTESIAN_POINT('Ctrl Pts',(2273.35778598982,-5792.39134081219,2172.99788626218));
#193=CARTESIAN_POINT('Ctrl Pts',(3026.81012152074,-5807.06228587446,2058.97518112469));
#194=CARTESIAN_POINT('Ctrl Pts',(2890.06068290189,-5727.06918504207,1855.47150746593));
#195=CARTESIAN_POINT('Ctrl Pts',(2766.26781058797,-5736.50359224937,1919.86387090366));
#196=CARTESIAN_POINT('Ctrl Pts',(2733.03887068386,-5741.43129356551,1941.77102093399));
#197=CARTESIAN_POINT('Ctrl Pts',(2694.54613349235,-6118.07488434386,1650.21528596063));
#198=CARTESIAN_POINT('Ctrl Pts',(2660.02695302739,-6134.92830681458,1661.35153123676));
#199=CARTESIAN_POINT('Ctrl Pts',(2650.54793557928,-6154.81901679004,1671.33610494967));
#200=CARTESIAN_POINT('Ctrl Pts',(2884.00779419922,-6069.08536430749,1602.56868325381));
#201=CARTESIAN_POINT('Ctrl Pts',(2886.86861227441,-6276.42681923503,1726.32375262139));
#202=CARTESIAN_POINT('Ctrl Pts',(2082.13273220426,-6239.55316170478,1731.47731385908));
#203=CARTESIAN_POINT('Ctrl Pts',(1354.83895687786,-5965.40925247541,1581.80010094399));
#204=CARTESIAN_POINT('Ctrl Pts',(902.796735765943,-5733.74351102971,1483.71040177869));
#205=CARTESIAN_POINT('Ctrl Pts',(856.15127565129,-5746.00521083386,1489.03830507313));
#206=CARTESIAN_POINT('Ctrl Pts',(1428.16731875336,-6015.81906319918,1602.52576009336));
#207=CARTESIAN_POINT('Ctrl Pts',(2219.87043824199,-6292.79803703294,1766.09663541137));
#208=CARTESIAN_POINT('Ctrl Pts',(2981.33062611549,-6249.81844446012,1719.14788979618));
#209=CARTESIAN_POINT('Ctrl Pts',(2857.66301836904,-6053.6984819657,1604.51863329292));
#210=CARTESIAN_POINT('Ctrl Pts',(2729.06531395731,-6101.22146187313,1639.07904068451));
#211=CARTESIAN_POINT('Ctrl Pts',(2694.54613349235,-6118.07488434386,1650.21528596063));
#212=CARTESIAN_POINT('Ctrl Pts',(2684.98382223413,-6218.08020042553,1185.35109027013));
#213=CARTESIAN_POINT('Ctrl Pts',(2650.06999734943,-6237.41387218883,1181.78165519588));
#214=CARTESIAN_POINT('Ctrl Pts',(2639.43121969587,-6260.52764342207,1179.54735304659));
#215=CARTESIAN_POINT('Ctrl Pts',(2876.81323595849,-6154.10135461358,1189.24175765155));
#216=CARTESIAN_POINT('Ctrl Pts',(2873.92000936596,-6394.76931288797,1156.8254558065));
#217=CARTESIAN_POINT('Ctrl Pts',(2070.2698362983,-6349.18013654337,1121.66484895859));
#218=CARTESIAN_POINT('Ctrl Pts',(1350.63769052706,-6025.69575682958,1144.29774129093));
#219=CARTESIAN_POINT('Ctrl Pts',(889.170039980051,-5772.4527743309,1187.39773173821));
#220=CARTESIAN_POINT('Ctrl Pts',(857.619475529603,-5789.50564236544,1180.68204882624));
#221=CARTESIAN_POINT('Ctrl Pts',(1419.64843153737,-6077.79345012025,1130.88694239223));
#222=CARTESIAN_POINT('Ctrl Pts',(2209.88140310162,-6416.30411337045,1129.09739140851));
#223=CARTESIAN_POINT('Ctrl Pts',(2968.69818979415,-6370.39724059622,1172.77335766057));
#224=CARTESIAN_POINT('Ctrl Pts',(2848.91416900408,-6144.52561284229,1200.9639634921));
#225=CARTESIAN_POINT('Ctrl Pts',(2719.89764711883,-6198.74652866223,1188.92052534439));
#226=CARTESIAN_POINT('Ctrl Pts',(2684.98382223413,-6218.08020042553,1185.35109027013));
#227=CARTESIAN_POINT('Ctrl Pts',(2706.65838765303,-5997.04598150226,763.176582717278));
#228=CARTESIAN_POINT('Ctrl Pts',(2672.52032968254,-6008.74287320524,745.243926244441));
#229=CARTESIAN_POINT('Ctrl Pts',(2664.75940613085,-6024.67924189471,725.645011981654));
#230=CARTESIAN_POINT('Ctrl Pts',(2897.22275218844,-5954.7460172915,821.842280915743));
#231=CARTESIAN_POINT('Ctrl Pts',(2904.14033458412,-6120.96814781683,638.252652745639));
#232=CARTESIAN_POINT('Ctrl Pts',(2102.53144459465,-6036.93399127527,588.641378278151));
#233=CARTESIAN_POINT('Ctrl Pts',(1373.02968299228,-5795.11130680611,771.686499796136));
#234=CARTESIAN_POINT('Ctrl Pts',(910.256121808985,-5614.00004692376,932.969025159872));
#235=CARTESIAN_POINT('Ctrl Pts',(872.166421970337,-5623.37599351918,917.780965153098));
#236=CARTESIAN_POINT('Ctrl Pts',(1446.39560907006,-5826.27679128446,731.107141123112));
#237=CARTESIAN_POINT('Ctrl Pts',(2242.44075410984,-6102.81339624422,562.307916180961));
#238=CARTESIAN_POINT('Ctrl Pts',(2993.61007583012,-6113.84517847911,675.825965882302));
#239=CARTESIAN_POINT('Ctrl Pts',(2869.58775395379,-5954.49789167684,833.240950818673));
#240=CARTESIAN_POINT('Ctrl Pts',(2740.79644562352,-5985.34908979928,781.109239190114));
#241=CARTESIAN_POINT('Ctrl Pts',(2706.65838765303,-5997.04598150226,763.176582717278));
#242=CARTESIAN_POINT('Ctrl Pts',(2737.13703673261,-5706.5120165806,644.573114511721));
#243=CARTESIAN_POINT('Ctrl Pts',(2703.92114396054,-5707.82027528659,623.092392935986));
#244=CARTESIAN_POINT('Ctrl Pts',(2695.05006558815,-5708.42324387611,599.991701533209));
#245=CARTESIAN_POINT('Ctrl Pts',(2923.13597177083,-5700.22881560987,719.410529569463));
#246=CARTESIAN_POINT('Ctrl Pts',(2940.9392307514,-5750.33553432294,494.454184891168));
#247=CARTESIAN_POINT('Ctrl Pts',(2141.79656933351,-5655.52307681961,454.244104896962));
#248=CARTESIAN_POINT('Ctrl Pts',(1400.21511694932,-5517.47011007369,679.126914360756));
#249=CARTESIAN_POINT('Ctrl Pts',(932.060276405813,-5426.45584762578,871.028702065532));
#250=CARTESIAN_POINT('Ctrl Pts',(887.885692880929,-5424.78609481042,855.032087824426));
#251=CARTESIAN_POINT('Ctrl Pts',(1476.94611798813,-5529.39948622855,634.668989778221));
#252=CARTESIAN_POINT('Ctrl Pts',(2282.59182501807,-5698.81945416643,409.771522595152));
#253=CARTESIAN_POINT('Ctrl Pts',(3029.60557438445,-5771.58690377997,531.738130941771));
#254=CARTESIAN_POINT('Ctrl Pts',(2894.34542222057,-5700.57369164016,728.876030987621));
#255=CARTESIAN_POINT('Ctrl Pts',(2770.35292950468,-5705.20375787461,666.053836087456));
#256=CARTESIAN_POINT('Ctrl Pts',(2737.13703673261,-5706.5120165806,644.573114511721));
#257=CARTESIAN_POINT('Ctrl Pts',(2752.17467811941,-5559.01143551824,638.578411625066));
#258=CARTESIAN_POINT('Ctrl Pts',(2719.47354113941,-5555.37850111873,617.122534126669));
#259=CARTESIAN_POINT('Ctrl Pts',(2711.02565362791,-5550.71985709108,594.399090536717));
#260=CARTESIAN_POINT('Ctrl Pts',(2936.47405484904,-5570.61920739931,715.101721570438));
#261=CARTESIAN_POINT('Ctrl Pts',(2958.96363701682,-5566.62974961165,490.625489943505));
#262=CARTESIAN_POINT('Ctrl Pts',(2161.15386507042,-5465.90039661831,455.977739323946));
#263=CARTESIAN_POINT('Ctrl Pts',(1413.77093070413,-5380.22561409939,682.883480368782));
#264=CARTESIAN_POINT('Ctrl Pts',(942.980578578194,-5333.23127077194,874.202366447196));
#265=CARTESIAN_POINT('Ctrl Pts',(896.033393924449,-5327.65813278321,859.340320462693));
#266=CARTESIAN_POINT('Ctrl Pts',(1491.84589238447,-5382.68805657749,639.773918805197));
#267=CARTESIAN_POINT('Ctrl Pts',(2302.71258373938,-5497.03749218313,407.347285787833));
#268=CARTESIAN_POINT('Ctrl Pts',(3047.35401226712,-5597.51857379325,523.641676499621));
#269=CARTESIAN_POINT('Ctrl Pts',(2907.23247550793,-5572.5174634881,723.134355527099));
#270=CARTESIAN_POINT('Ctrl Pts',(2784.87581509941,-5562.64436991774,660.034289123463));
#271=CARTESIAN_POINT('Ctrl Pts',(2752.17467811941,-5559.01143551824,638.578411625066));
#272=CARTESIAN_POINT('',(2804.79320376881,-5036.35068205561,877.009324126464));
#273=CARTESIAN_POINT('',(2993.14698667248,-5068.03082234109,876.978962931928));
#274=CARTESIAN_POINT('Ctrl Pts',(2804.79320376881,-5036.35068205561,877.009324126464));
#275=CARTESIAN_POINT('Ctrl Pts',(2809.68886696928,-5041.37704480451,876.998361201183));
#276=CARTESIAN_POINT('Ctrl Pts',(2814.9460420188,-5046.47051299985,876.987324750502));
#277=CARTESIAN_POINT('Ctrl Pts',(2820.08903530276,-5051.14960045092,876.977263282229));
#278=CARTESIAN_POINT('Ctrl Pts',(2822.14787178885,-5053.022726748,876.973235488134));
#279=CARTESIAN_POINT('Ctrl Pts',(2824.19558440006,-5054.83957371782,876.969341189933));
#280=CARTESIAN_POINT('Ctrl Pts',(2826.30021435574,-5056.65748639655,876.965458310644));
#281=CARTESIAN_POINT('Ctrl Pts',(2836.10882261871,-5065.12985146663,876.947362187959));
#282=CARTESIAN_POINT('Ctrl Pts',(2846.72627843593,-5073.23305311468,876.93035860855));
#283=CARTESIAN_POINT('Ctrl Pts',(2857.84165910502,-5080.15502916252,876.916336809166));
#284=CARTESIAN_POINT('Ctrl Pts',(2866.56085528155,-5085.58480875235,876.905337741909));
#285=CARTESIAN_POINT('Ctrl Pts',(2875.5157572366,-5090.27266157902,876.896192580281));
#286=CARTESIAN_POINT('Ctrl Pts',(2884.94114030133,-5093.95070940518,876.889607502106));
#287=CARTESIAN_POINT('Ctrl Pts',(2891.55418417369,-5096.53130389901,876.884987274942));
#288=CARTESIAN_POINT('Ctrl Pts',(2898.36820377793,-5098.58728485991,876.881686375439));
#289=CARTESIAN_POINT('Ctrl Pts',(2905.32151282354,-5099.92007159876,876.880170323669));
#290=CARTESIAN_POINT('Ctrl Pts',(2911.02188919148,-5101.01270044349,876.878927452738));
#291=CARTESIAN_POINT('Ctrl Pts',(2916.77960118234,-5101.60785743502,876.878902881601));
#292=CARTESIAN_POINT('Ctrl Pts',(2922.50193988074,-5101.63261152629,876.880250348378));
#293=CARTESIAN_POINT('Ctrl Pts',(2928.06521092163,-5101.65667751161,876.881560358723));
#294=CARTESIAN_POINT('Ctrl Pts',(2933.61746540151,-5101.14640013815,876.884161110399));
#295=CARTESIAN_POINT('Ctrl Pts',(2939.14681087257,-5100.05023304072,876.888174453495));
#296=CARTESIAN_POINT('Ctrl Pts',(2942.1968460321,-5099.4455777148,876.89038824853));
#297=CARTESIAN_POINT('Ctrl Pts',(2945.14759749654,-5098.67865117838,876.892970424665));
#298=CARTESIAN_POINT('Ctrl Pts',(2947.94160574035,-5097.7982480222,876.895788736001));
#299=CARTESIAN_POINT('Ctrl Pts',(2954.16212383463,-5095.83813792755,876.902063361961));
#300=CARTESIAN_POINT('Ctrl Pts',(2959.67063501006,-5093.31520249979,876.909525267836));
#301=CARTESIAN_POINT('Ctrl Pts',(2964.30739827899,-5090.80444493468,876.916743292459));
#302=CARTESIAN_POINT('Ctrl Pts',(2967.08582611789,-5089.29995606798,876.92106845624));
#303=CARTESIAN_POINT('Ctrl Pts',(2969.55078474627,-5087.79814729526,876.92531003593));
#304=CARTESIAN_POINT('Ctrl Pts',(2971.66587680665,-5086.41813687987,876.929170737771));
#305=CARTESIAN_POINT('Ctrl Pts',(2972.89538965593,-5085.61593040875,876.931414981702));
#306=CARTESIAN_POINT('Ctrl Pts',(2973.98635091347,-5084.87114671701,876.933486149746));
#307=CARTESIAN_POINT('Ctrl Pts',(2975.09689469708,-5084.0841582981,876.935664296322));
#308=CARTESIAN_POINT('Ctrl Pts',(2981.64056454606,-5079.4469774284,876.948498614327));
#309=CARTESIAN_POINT('Ctrl Pts',(2987.74623119064,-5074.033875662,876.963103429228));
#310=CARTESIAN_POINT('Ctrl Pts',(2993.14698667248,-5068.03082234109,876.978962931928));
#311=CARTESIAN_POINT('',(3003.42821249918,-4966.93316239803,877.226212203333));
#312=CARTESIAN_POINT('Ctrl Pts',(2993.14698667248,-5068.03082234109,876.978962931928));
#313=CARTESIAN_POINT('Ctrl Pts',(2996.67648685156,-5064.10770865034,876.989327429601));
#314=CARTESIAN_POINT('Ctrl Pts',(2999.90973834279,-5059.9270105277,877.000242580065));
#315=CARTESIAN_POINT('Ctrl Pts',(3008.30475177517,-5047.05644415446,877.033462258971));
#316=CARTESIAN_POINT('Ctrl Pts',(3012.49138824954,-5037.74029672481,877.057042952167));
#317=CARTESIAN_POINT('Ctrl Pts',(3016.92735158581,-5018.62400596444,877.104407543555));
#318=CARTESIAN_POINT('Ctrl Pts',(3017.33426513241,-5009.21280062893,877.127288726325));
#319=CARTESIAN_POINT('Ctrl Pts',(3014.24328486097,-4988.4908831665,877.176688732504));
#320=CARTESIAN_POINT('Ctrl Pts',(3010.04116992022,-4977.87611510191,877.201349728927));
#321=CARTESIAN_POINT('Ctrl Pts',(3003.88995475784,-4967.6823294373,877.22451230632));
#322=CARTESIAN_POINT('Ctrl Pts',(3003.66028759759,-4967.30709614139,877.22536412381));
#323=CARTESIAN_POINT('Ctrl Pts',(3003.42821249918,-4966.93316239803,877.226212203333));
#324=CARTESIAN_POINT('',(969.915514182489,-5195.03684210743,876.173921498562));
#325=CARTESIAN_POINT('Ctrl Pts',(3003.42821249918,-4966.93316239803,877.226212203333));
#326=CARTESIAN_POINT('Ctrl Pts',(2998.62929442191,-4959.20084896562,877.243749044557));
#327=CARTESIAN_POINT('Ctrl Pts',(2992.80891094856,-4952.035978644,877.259661086989));
#328=CARTESIAN_POINT('Ctrl Pts',(2986.40382727997,-4945.43953769934,877.274053363976));
#329=CARTESIAN_POINT('Ctrl Pts',(2982.53810083069,-4941.45831941239,877.282739683889));
#330=CARTESIAN_POINT('Ctrl Pts',(2978.45929363847,-4937.68424969142,877.290872166111));
#331=CARTESIAN_POINT('Ctrl Pts',(2974.2634530466,-4934.117529537,877.298473946573));
#332=CARTESIAN_POINT('Ctrl Pts',(2971.50724713346,-4931.77458657602,877.30346748048));
#333=CARTESIAN_POINT('Ctrl Pts',(2968.69698036249,-4929.51603440722,877.308243438927));
#334=CARTESIAN_POINT('Ctrl Pts',(2965.77905987402,-4927.28711921784,877.312921180011));
#335=CARTESIAN_POINT('Ctrl Pts',(2945.96572927931,-4912.15228820062,877.344684084758));
#336=CARTESIAN_POINT('Ctrl Pts',(2922.05637796651,-4899.09769781849,877.370404083267));
#337=CARTESIAN_POINT('Ctrl Pts',(2899.9721166291,-4888.6386391563,877.390290117986));
#338=CARTESIAN_POINT('Ctrl Pts',(2890.31025229399,-4884.06280099159,877.398990258176));
#339=CARTESIAN_POINT('Ctrl Pts',(2880.99684767008,-4879.98489695134,877.4065707834));
#340=CARTESIAN_POINT('Ctrl Pts',(2872.52645738475,-4876.44994607706,877.413044352769));
#341=CARTESIAN_POINT('Ctrl Pts',(2869.79672752753,-4875.3107469823,877.415130572529));
#342=CARTESIAN_POINT('Ctrl Pts',(2867.17135519221,-4874.23413125374,877.41709096707));
#343=CARTESIAN_POINT('Ctrl Pts',(2864.47589678696,-4873.14646852455,877.419060864977));
#344=CARTESIAN_POINT('Ctrl Pts',(2803.09328484437,-4848.3775538568,877.463920573659));
#345=CARTESIAN_POINT('Ctrl Pts',(2725.5140130245,-4826.43183224816,877.497962852519));
#346=CARTESIAN_POINT('Ctrl Pts',(2639.08173689967,-4810.34817838348,877.515637835994));
#347=CARTESIAN_POINT('Ctrl Pts',(2595.86559883725,-4802.30635145114,877.524475327731));
#348=CARTESIAN_POINT('Ctrl Pts',(2550.43612668097,-4795.73029153466,877.529220369853));
#349=CARTESIAN_POINT('Ctrl Pts',(2503.71120739451,-4791.00039112471,877.529177921376));
#350=CARTESIAN_POINT('Ctrl Pts',(2491.99739199197,-4789.81461742791,877.529167279654));
#351=CARTESIAN_POINT('Ctrl Pts',(2480.20215982849,-4788.74486879946,877.528855759322));
#352=CARTESIAN_POINT('Ctrl Pts',(2468.33997487487,-4787.797121992,877.528232450198));
#353=CARTESIAN_POINT('Ctrl Pts',(2457.97287219077,-4786.96882699324,877.527687701509));
#354=CARTESIAN_POINT('Ctrl Pts',(2447.64751498224,-4786.24110268834,877.526909774911));
#355=CARTESIAN_POINT('Ctrl Pts',(2437.36662128677,-4785.61237063169,877.525903159738));
#356=CARTESIAN_POINT('Ctrl Pts',(2412.48778039826,-4784.09089543095,877.523467241278));
#357=CARTESIAN_POINT('Ctrl Pts',(2387.82502954321,-4783.14052804799,877.519702025151));
#358=CARTESIAN_POINT('Ctrl Pts',(2363.0863348629,-4782.76401567235,877.514529036795));
#359=CARTESIAN_POINT('Ctrl Pts',(2342.44144763311,-4782.44980929906,877.510212084643));
#360=CARTESIAN_POINT('Ctrl Pts',(2321.74402085328,-4782.53704498603,877.504910465454));
#361=CARTESIAN_POINT('Ctrl Pts',(2300.82491980881,-4783.00279693709,877.498638076198));
#362=CARTESIAN_POINT('Ctrl Pts',(2275.59018723995,-4783.56463398274,877.491071686749));
#363=CARTESIAN_POINT('Ctrl Pts',(2249.93848820761,-4784.6876424663,877.482044354157));
#364=CARTESIAN_POINT('Ctrl Pts',(2224.2451345702,-4786.3239447142,877.471764279369));
#365=CARTESIAN_POINT('Ctrl Pts',(2115.47503055188,-4793.25105778092,877.428244666483));
#366=CARTESIAN_POINT('Ctrl Pts',(2004.84000301757,-4809.3664022074,877.362025018435));
#367=CARTESIAN_POINT('Ctrl Pts',(1896.2982309455,-4831.11957723182,877.282673062455));
#368=CARTESIAN_POINT('Ctrl Pts',(1842.02734490947,-4841.99616474403,877.242997084464));
#369=CARTESIAN_POINT('Ctrl Pts',(1788.27981131714,-4854.28262851982,877.200037025667));
#370=CARTESIAN_POINT('Ctrl Pts',(1735.55067904634,-4867.5363090347,877.154986159064));
#371=CARTESIAN_POINT('Ctrl Pts',(1726.31319097326,-4869.8581889976,877.147093807626));
#372=CARTESIAN_POINT('Ctrl Pts',(1717.12873497063,-4872.20408706318,877.139156360138));
#373=CARTESIAN_POINT('Ctrl Pts',(1707.92974135774,-4874.58986288168,877.131118807652));
#374=CARTESIAN_POINT('Ctrl Pts',(1664.61933553921,-4885.82249584565,877.093276661587));
#375=CARTESIAN_POINT('Ctrl Pts',(1619.66666226154,-4898.31157374272,877.051989210157));
#376=CARTESIAN_POINT('Ctrl Pts',(1575.15173421747,-4911.44706655255,877.009244685242));
#377=CARTESIAN_POINT('Ctrl Pts',(1550.04939679542,-4918.85427997971,876.98514069284));
#378=CARTESIAN_POINT('Ctrl Pts',(1525.08449729946,-4926.46125126798,876.960586961687));
#379=CARTESIAN_POINT('Ctrl Pts',(1500.63256484722,-4934.16711293606,876.935920015205));
#380=CARTESIAN_POINT('Ctrl Pts',(1490.90392719175,-4937.23302750696,876.926105830381));
#381=CARTESIAN_POINT('Ctrl Pts',(1481.25643244176,-4940.31437509612,876.916274244625));
#382=CARTESIAN_POINT('Ctrl Pts',(1471.71344545795,-4943.40385651869,876.906448673105));
#383=CARTESIAN_POINT('Ctrl Pts',(1466.05117968275,-4945.23697909885,876.900618737737));
#384=CARTESIAN_POINT('Ctrl Pts',(1460.42570293077,-4947.07295435651,876.894790945195));
#385=CARTESIAN_POINT('Ctrl Pts',(1454.84185967025,-4948.91015638331,876.88897042269));
#386=CARTESIAN_POINT('Ctrl Pts',(1450.63554824724,-4950.29412142516,876.884585820695));
#387=CARTESIAN_POINT('Ctrl Pts',(1446.45224759318,-4951.6787979517,876.880205155865));
#388=CARTESIAN_POINT('Ctrl Pts',(1442.16073527528,-4953.10842083769,876.875689078009));
#389=CARTESIAN_POINT('Ctrl Pts',(1389.35395085472,-4970.69983895573,876.820119029018));
#390=CARTESIAN_POINT('Ctrl Pts',(1325.3435540949,-4993.37166016094,876.749495687211));
#391=CARTESIAN_POINT('Ctrl Pts',(1260.69339333435,-5020.05948221128,876.66899372135));
#392=CARTESIAN_POINT('Ctrl Pts',(1219.45135683542,-5037.08434522984,876.617639401806));
#393=CARTESIAN_POINT('Ctrl Pts',(1177.95374437138,-5055.75445485576,876.562239681031));
#394=CARTESIAN_POINT('Ctrl Pts',(1138.93757864757,-5075.78009780596,876.504169009767));
#395=CARTESIAN_POINT('Ctrl Pts',(1119.42949578567,-5085.79291928106,876.475133674136));
#396=CARTESIAN_POINT('Ctrl Pts',(1100.54137766103,-5096.14414656666,876.445431659158));
#397=CARTESIAN_POINT('Ctrl Pts',(1082.61685242797,-5106.80117479811,876.415226403381));
#398=CARTESIAN_POINT('Ctrl Pts',(1079.59792305276,-5108.59607955358,876.410139097985));
#399=CARTESIAN_POINT('Ctrl Pts',(1076.60634139616,-5110.39968054733,876.405037468227));
#400=CARTESIAN_POINT('Ctrl Pts',(1073.64377441267,-5112.21185791494,876.399922214238));
#401=CARTESIAN_POINT('Ctrl Pts',(1071.24791302087,-5113.67738622683,876.395785450543));
#402=CARTESIAN_POINT('Ctrl Pts',(1068.87102774594,-5115.14852379582,876.391639775982));
#403=CARTESIAN_POINT('Ctrl Pts',(1066.51400797258,-5116.62521655905,876.387485540161));
#404=CARTESIAN_POINT('Ctrl Pts',(1064.79037407216,-5117.70508773194,876.384447643843));
#405=CARTESIAN_POINT('Ctrl Pts',(1063.01319830883,-5118.82789009214,876.381292658327));
#406=CARTESIAN_POINT('Ctrl Pts',(1061.13407057705,-5120.02769927658,876.377926192616));
#407=CARTESIAN_POINT('Ctrl Pts',(1049.89449749362,-5127.20408371637,876.357790447312));
#408=CARTESIAN_POINT('Ctrl Pts',(1035.67555779035,-5136.70491100275,876.331295307914));
#409=CARTESIAN_POINT('Ctrl Pts',(1021.02593112348,-5147.85500532662,876.300701967403));
#410=CARTESIAN_POINT('Ctrl Pts',(1011.99841953395,-5154.72600675362,876.281849491343));
#411=CARTESIAN_POINT('Ctrl Pts',(1002.81044189986,-5162.2269633706,876.26143265701));
#412=CARTESIAN_POINT('Ctrl Pts',(994.052952151227,-5170.19232368754,876.239997547183));
#413=CARTESIAN_POINT('Ctrl Pts',(989.107833687501,-5174.69014800753,876.227893718298));
#414=CARTESIAN_POINT('Ctrl Pts',(984.299361708074,-5179.33550920289,876.215466364012));
#415=CARTESIAN_POINT('Ctrl Pts',(979.735582618119,-5184.10086346013,876.202808731477));
#416=CARTESIAN_POINT('Ctrl Pts',(976.998037099595,-5186.95932219223,876.195216154242));
#417=CARTESIAN_POINT('Ctrl Pts',(974.31243946903,-5189.907016638,876.187420346205));
#418=CARTESIAN_POINT('Ctrl Pts',(971.91094658085,-5192.6886212894,876.180096455597));
#419=CARTESIAN_POINT('Ctrl Pts',(971.225962364105,-5193.48202579741,876.178007442759));
#420=CARTESIAN_POINT('Ctrl Pts',(970.560927374376,-5194.2648581326,876.175948927741));
#421=CARTESIAN_POINT('Ctrl Pts',(969.915514182489,-5195.03684210743,876.173921498562));
#422=CARTESIAN_POINT('',(966.838427559145,-5225.29454311563,876.099921818126));
#423=CARTESIAN_POINT('Ctrl Pts',(969.915514182489,-5195.03684210743,876.173921498562));
#424=CARTESIAN_POINT('Ctrl Pts',(968.019211737046,-5197.30502490525,876.167964665082));
#425=CARTESIAN_POINT('Ctrl Pts',(966.455114955147,-5199.28436491219,876.1627887196));
#426=CARTESIAN_POINT('Ctrl Pts',(959.707451464078,-5208.12933696547,876.139718698988));
#427=CARTESIAN_POINT('Ctrl Pts',(956.05812524055,-5214.23033823403,876.124052857497));
#428=CARTESIAN_POINT('Ctrl Pts',(953.36230150608,-5220.44713281131,876.108341232668));
#429=CARTESIAN_POINT('Ctrl Pts',(952.5023073531,-5222.67560112415,876.102735409399));
#430=CARTESIAN_POINT('Ctrl Pts',(952.064671046559,-5225.50833498875,876.095770756623));
#431=CARTESIAN_POINT('Ctrl Pts',(952.006730576978,-5226.34120627689,876.093740428096));
#432=CARTESIAN_POINT('Ctrl Pts',(952.168983008202,-5227.52901225136,876.090905087469));
#433=CARTESIAN_POINT('Ctrl Pts',(952.278035095038,-5227.94915031152,876.089914907068));
#434=CARTESIAN_POINT('Ctrl Pts',(952.6134604736,-5228.62308804345,876.088366045675));
#435=CARTESIAN_POINT('Ctrl Pts',(952.803743841927,-5228.88560251578,876.087777393144));
#436=CARTESIAN_POINT('Ctrl Pts',(953.306510173152,-5229.34418214831,876.086790992206));
#437=CARTESIAN_POINT('Ctrl Pts',(953.608461756011,-5229.51686641993,876.086447250649));
#438=CARTESIAN_POINT('Ctrl Pts',(954.426548478588,-5229.81081085623,876.085936923457));
#439=CARTESIAN_POINT('Ctrl Pts',(954.959527062684,-5229.86425028441,876.085938649724));
#440=CARTESIAN_POINT('Ctrl Pts',(956.446961056888,-5229.83434765378,876.08637686184));
#441=CARTESIAN_POINT('Ctrl Pts',(957.524549377799,-5229.58609835937,876.087242811785));
#442=CARTESIAN_POINT('Ctrl Pts',(960.819914571196,-5228.52288203631,876.090626954101));
#443=CARTESIAN_POINT('Ctrl Pts',(963.585361747194,-5227.17286262483,876.094575011002));
#444=CARTESIAN_POINT('Ctrl Pts',(966.838427559144,-5225.29454311563,876.099921818126));
#445=CARTESIAN_POINT('Ctrl Pts',(966.838427559144,-5225.29454311563,876.099921818126));
#446=CARTESIAN_POINT('Ctrl Pts',(968.439118422022,-5224.37030455124,876.102552747165));
#447=CARTESIAN_POINT('Ctrl Pts',(970.122342950312,-5223.34011692401,876.105460439168));
#448=CARTESIAN_POINT('Ctrl Pts',(971.948610742494,-5222.17690123155,876.108725324652));
#449=CARTESIAN_POINT('Ctrl Pts',(984.667065488884,-5214.07605960903,876.13146256968));
#450=CARTESIAN_POINT('Ctrl Pts',(1003.49493692582,-5199.98499863358,876.17020254357));
#451=CARTESIAN_POINT('Ctrl Pts',(1030.7974820676,-5181.06791074019,876.222708886071));
#452=CARTESIAN_POINT('Ctrl Pts',(1033.79880125955,-5178.98838963124,876.228480812923));
#453=CARTESIAN_POINT('Ctrl Pts',(1036.83717127665,-5176.89584853218,876.234293368943));
#454=CARTESIAN_POINT('Ctrl Pts',(1039.87182601215,-5174.82141751515,876.240061173286));
#455=CARTESIAN_POINT('Ctrl Pts',(1058.53297033148,-5162.06502182497,876.275529402334));
#456=CARTESIAN_POINT('Ctrl Pts',(1077.62540667499,-5149.61418109327,876.310364068658));
#457=CARTESIAN_POINT('Ctrl Pts',(1098.44954578357,-5136.89949185185,876.346263321907));
#458=CARTESIAN_POINT('Ctrl Pts',(1107.39471553183,-5131.43779891137,876.361684123337));
#459=CARTESIAN_POINT('Ctrl Pts',(1116.65908616042,-5125.92668690982,876.377303056571));
#460=CARTESIAN_POINT('Ctrl Pts',(1126.34838147143,-5120.32516511417,876.393245347622));
#461=CARTESIAN_POINT('Ctrl Pts',(1131.86811146109,-5117.13412935246,876.402327240495));
#462=CARTESIAN_POINT('Ctrl Pts',(1137.54785729328,-5113.90219044812,876.411547500277));
#463=CARTESIAN_POINT('Ctrl Pts',(1143.22751424985,-5110.72155860424,876.420643542479));
#464=CARTESIAN_POINT('Ctrl Pts',(1197.20779427503,-5080.49237418295,876.507093641305));
#465=CARTESIAN_POINT('Ctrl Pts',(1254.08379956223,-5053.2020644375,876.587141986669));
#466=CARTESIAN_POINT('Ctrl Pts',(1311.41311022976,-5028.61292957331,876.660763259396));
#467=CARTESIAN_POINT('Ctrl Pts',(1332.25358679099,-5019.67423341892,876.687526225684));
#468=CARTESIAN_POINT('Ctrl Pts',(1353.15382012943,-5011.09224961801,876.713440418131));
#469=CARTESIAN_POINT('Ctrl Pts',(1373.99564647712,-5002.85334630371,876.738509772597));
#470=CARTESIAN_POINT('Ctrl Pts',(1387.21864573027,-4997.62621262769,876.754414907294));
#471=CARTESIAN_POINT('Ctrl Pts',(1400.36529144763,-4992.55642104662,876.769920395177));
#472=CARTESIAN_POINT('Ctrl Pts',(1413.71014023058,-4987.52975681171,876.78537023474));
#473=CARTESIAN_POINT('Ctrl Pts',(1443.03882166239,-4976.48239041525,876.819325165972));
#474=CARTESIAN_POINT('Ctrl Pts',(1473.09188798445,-4965.74165691796,876.852716010251));
#475=CARTESIAN_POINT('Ctrl Pts',(1503.5559962824,-4955.38817822927,876.88527054578));
#476=CARTESIAN_POINT('Ctrl Pts',(1563.02937958624,-4935.17565795596,876.948824953833));
#477=CARTESIAN_POINT('Ctrl Pts',(1624.08048465532,-4916.46800927619,877.009124650078));
#478=CARTESIAN_POINT('Ctrl Pts',(1684.42425771805,-4900.00701518471,877.063812047557));
#479=CARTESIAN_POINT('Ctrl Pts',(1702.31192092132,-4895.12749401202,877.08002299523));
#480=CARTESIAN_POINT('Ctrl Pts',(1720.10145078204,-4890.45026788287,877.095720124702));
#481=CARTESIAN_POINT('Ctrl Pts',(1738.01818575316,-4885.91836096118,877.111096774869));
#482=CARTESIAN_POINT('Ctrl Pts',(1819.72258764419,-4865.25183075575,877.181217810149));
#483=CARTESIAN_POINT('Ctrl Pts',(1903.05186802394,-4847.89806694766,877.24371947625));
#484=CARTESIAN_POINT('Ctrl Pts',(1986.57966331115,-4834.85428759035,877.295837062481));
#485=CARTESIAN_POINT('Ctrl Pts',(2013.35727646664,-4830.67267024352,877.312545088329));
#486=CARTESIAN_POINT('Ctrl Pts',(2040.15527352575,-4826.93398176002,877.328185957933));
#487=CARTESIAN_POINT('Ctrl Pts',(2066.92658916307,-4823.67053395113,877.342669880622));
#488=CARTESIAN_POINT('Ctrl Pts',(2086.31724295039,-4821.30679555767,877.35316068855));
#489=CARTESIAN_POINT('Ctrl Pts',(2105.60528812404,-4819.2026005137,877.362998000284));
#490=CARTESIAN_POINT('Ctrl Pts',(2124.84284455449,-4817.35805359017,877.372194380896));
#491=CARTESIAN_POINT('Ctrl Pts',(2161.89416268384,-4813.80547688349,877.389906506911));
#492=CARTESIAN_POINT('Ctrl Pts',(2198.79200764887,-4811.2019916633,877.405283481691));
#493=CARTESIAN_POINT('Ctrl Pts',(2236.12045997082,-4809.63290747342,877.418262454259));
#494=CARTESIAN_POINT('Ctrl Pts',(2256.38285338627,-4808.78118715877,877.425307617718));
#495=CARTESIAN_POINT('Ctrl Pts',(2276.77190581942,-4808.23670569281,877.431640219039));
#496=CARTESIAN_POINT('Ctrl Pts',(2297.38006916911,-4807.99573123055,877.437292029853));
#497=CARTESIAN_POINT('Ctrl Pts',(2308.20140875744,-4807.86919562211,877.440259793796));
#498=CARTESIAN_POINT('Ctrl Pts',(2319.09436610279,-4807.82670527343,877.443041728865));
#499=CARTESIAN_POINT('Ctrl Pts',(2330.0376129982,-4807.86962672638,877.445629281569));
#500=CARTESIAN_POINT('Ctrl Pts',(2451.02719505911,-4808.34417040653,877.474237511213));
#501=CARTESIAN_POINT('Ctrl Pts',(2570.09804760582,-4819.22213145861,877.477190949211));
#502=CARTESIAN_POINT('Ctrl Pts',(2671.49820565188,-4837.71556878559,877.457364050535));
#503=CARTESIAN_POINT('Ctrl Pts',(2696.84824516339,-4842.33892811733,877.452407325866));
#504=CARTESIAN_POINT('Ctrl Pts',(2721.09385540223,-4847.43848605596,877.446026267493));
#505=CARTESIAN_POINT('Ctrl Pts',(2743.98883155381,-4852.97102016724,877.438264948063));
#506=CARTESIAN_POINT('Ctrl Pts',(2752.8766082557,-4855.11873709217,877.435252021841));
#507=CARTESIAN_POINT('Ctrl Pts',(2761.56084758635,-4857.33169974341,877.432031100218));
#508=CARTESIAN_POINT('Ctrl Pts',(2770.0271520448,-4859.60735120218,877.428604831553));
#509=CARTESIAN_POINT('Ctrl Pts',(2776.4544892084,-4861.33495021118,877.426003722175));
#510=CARTESIAN_POINT('Ctrl Pts',(2782.76819079694,-4863.10333838916,877.423275928826));
#511=CARTESIAN_POINT('Ctrl Pts',(2788.77636311594,-4864.85377571035,877.420516444208));
#512=CARTESIAN_POINT('Ctrl Pts',(2836.01487189624,-4878.61637178388,877.398820339062));
#513=CARTESIAN_POINT('Ctrl Pts',(2867.22845718384,-4891.99550468924,877.374111189757));
#514=CARTESIAN_POINT('Ctrl Pts',(2887.64215058096,-4902.44110971056,877.35384685158));
#515=CARTESIAN_POINT('Ctrl Pts',(2892.22601740289,-4904.78665597506,877.349296522268));
#516=CARTESIAN_POINT('Ctrl Pts',(2896.26532479506,-4906.98393092333,877.344971171534));
#517=CARTESIAN_POINT('Ctrl Pts',(2899.82098316395,-4909.00098688753,877.340963113738));
#518=CARTESIAN_POINT('Ctrl Pts',(2902.02469758567,-4910.25111129672,877.338479012665));
#519=CARTESIAN_POINT('Ctrl Pts',(2904.04257277577,-4911.43216634781,877.336116396921));
#520=CARTESIAN_POINT('Ctrl Pts',(2905.88815875086,-4912.53819630147,877.333893015758));
#521=CARTESIAN_POINT('Ctrl Pts',(2907.36099378234,-4913.42084261738,877.332118688412));
#522=CARTESIAN_POINT('Ctrl Pts',(2908.78680346748,-4914.29287799112,877.33035848059));
#523=CARTESIAN_POINT('Ctrl Pts',(2910.22636728231,-4915.19166564292,877.328536898015));
#524=CARTESIAN_POINT('Ctrl Pts',(2926.33674105613,-4925.25013256501,877.308151295205));
#525=CARTESIAN_POINT('Ctrl Pts',(2941.73258064429,-4937.20333358745,877.283003493712));
#526=CARTESIAN_POINT('Ctrl Pts',(2954.38445068805,-4951.25617021721,877.252098369651));
#527=CARTESIAN_POINT('Ctrl Pts',(2961.50173957746,-4959.16157057809,877.23471274244));
#528=CARTESIAN_POINT('Ctrl Pts',(2967.7822831391,-4967.76752058257,877.215425545159));
#529=CARTESIAN_POINT('Ctrl Pts',(2972.75595305733,-4977.06414130548,877.194145064821));
#530=CARTESIAN_POINT('Ctrl Pts',(2975.04981655888,-4981.35175574604,877.184330477615));
#531=CARTESIAN_POINT('Ctrl Pts',(2977.06291685621,-4985.78219534779,877.17410111003));
#532=CARTESIAN_POINT('Ctrl Pts',(2978.74224330423,-4990.34939605202,877.163458603179));
#533=CARTESIAN_POINT('Ctrl Pts',(2979.78001751088,-4993.17179135998,877.156881847886));
#534=CARTESIAN_POINT('Ctrl Pts',(2980.68037587717,-4996.02791009375,877.15018966355));
#535=CARTESIAN_POINT('Ctrl Pts',(2981.42051443419,-4998.8270844883,877.143595915284));
#536=CARTESIAN_POINT('Ctrl Pts',(2986.07761300376,-5016.44004485262,877.102106743655));
#537=CARTESIAN_POINT('Ctrl Pts',(2984.77889769578,-5032.76831749878,877.062262523712));
#538=CARTESIAN_POINT('Ctrl Pts',(2979.70376330431,-5046.10180664289,877.02873878886));
#539=CARTESIAN_POINT('Ctrl Pts',(2978.3462343706,-5049.66833235517,877.019771648974));
#540=CARTESIAN_POINT('Ctrl Pts',(2976.72134497929,-5053.02877578676,877.011237603004));
#541=CARTESIAN_POINT('Ctrl Pts',(2974.78746412229,-5056.2352590909,877.003000243199));
#542=CARTESIAN_POINT('Ctrl Pts',(2972.13948887473,-5060.62575108545,876.991721200444));
#543=CARTESIAN_POINT('Ctrl Pts',(2968.92893677963,-5064.67208026552,876.98113688698));
#544=CARTESIAN_POINT('Ctrl Pts',(2965.18337033798,-5068.14315192822,876.971813477875));
#545=CARTESIAN_POINT('Ctrl Pts',(2963.31058711715,-5069.87868775957,876.967151773322));
#546=CARTESIAN_POINT('Ctrl Pts',(2961.30854483232,-5071.46566000198,876.962817896378));
#547=CARTESIAN_POINT('Ctrl Pts',(2959.18756314102,-5072.8709797409,876.958894481343));
#548=CARTESIAN_POINT('Ctrl Pts',(2957.74784984476,-5073.82490476623,876.956231284006));
#549=CARTESIAN_POINT('Ctrl Pts',(2956.25334213598,-5074.69516779213,876.953757125445));
#550=CARTESIAN_POINT('Ctrl Pts',(2954.70712524376,-5075.47122683357,876.951498282772));
#551=CARTESIAN_POINT('Ctrl Pts',(2953.97545963832,-5075.83845584994,876.950429404595));
#552=CARTESIAN_POINT('Ctrl Pts',(2953.24866792183,-5076.17831209956,876.94942798464));
#553=CARTESIAN_POINT('Ctrl Pts',(2952.44605195371,-5076.52201767118,876.94839859819));
#554=CARTESIAN_POINT('Ctrl Pts',(2948.80237946496,-5078.08235360425,876.943725445357));
#555=CARTESIAN_POINT('Ctrl Pts',(2943.79243525536,-5079.61688686206,876.938778722081));
#556=CARTESIAN_POINT('Ctrl Pts',(2937.07646874824,-5079.96789847253,876.936277284313));
#557=CARTESIAN_POINT('Ctrl Pts',(2935.17853775792,-5080.06709429382,876.935570378426));
#558=CARTESIAN_POINT('Ctrl Pts',(2933.21547771991,-5080.06425356504,876.935094447652));
#559=CARTESIAN_POINT('Ctrl Pts',(2931.27518217384,-5079.96837358515,876.934849329886));
#560=CARTESIAN_POINT('Ctrl Pts',(2927.00617829542,-5079.7574201524,876.934310026121));
#561=CARTESIAN_POINT('Ctrl Pts',(2922.72880977999,-5079.1031239897,876.934841836512));
#562=CARTESIAN_POINT('Ctrl Pts',(2918.54003973101,-5078.15524341038,876.93610609839));
#563=CARTESIAN_POINT('Ctrl Pts',(2915.73383872933,-5077.52022563666,876.936953070868));
#564=CARTESIAN_POINT('Ctrl Pts',(2912.99071282161,-5076.76114460475,876.938115868423));
#565=CARTESIAN_POINT('Ctrl Pts',(2910.26196903472,-5075.89746987659,876.939535386482));
#566=CARTESIAN_POINT('Ctrl Pts',(2891.66045989069,-5070.00990599813,876.949212065644));
#567=CARTESIAN_POINT('Ctrl Pts',(2871.87153559169,-5058.5734747058,876.972028493222));
#568=CARTESIAN_POINT('Ctrl Pts',(2853.44220323335,-5046.47748008322,876.996775870055));
#569=CARTESIAN_POINT('Ctrl Pts',(2848.29577266841,-5043.0996476567,877.003686628082));
#570=CARTESIAN_POINT('Ctrl Pts',(2843.25567872389,-5039.66980727873,877.010749431521));
#571=CARTESIAN_POINT('Ctrl Pts',(2838.37802592418,-5036.29355028577,877.017722480865));
#572=CARTESIAN_POINT('Ctrl Pts',(2834.58156891622,-5033.6656849891,877.023149862259));
#573=CARTESIAN_POINT('Ctrl Pts',(2830.89796589883,-5031.08026594889,877.028502252723));
#574=CARTESIAN_POINT('Ctrl Pts',(2827.41962670407,-5028.63468577168,877.033566628045));
#575=CARTESIAN_POINT('Ctrl Pts',(2819.36366779497,-5022.97063396035,877.045295903775));
#576=CARTESIAN_POINT('Ctrl Pts',(2812.26792128754,-5017.95020808525,877.055703355929));
#577=CARTESIAN_POINT('Ctrl Pts',(2806.05019862215,-5013.91388691688,877.063944595348));
#578=CARTESIAN_POINT('Ctrl Pts',(2805.1770562387,-5013.34707439162,877.06510189615));
#579=CARTESIAN_POINT('Ctrl Pts',(2804.3195731648,-5012.79820095242,877.066219624301));
#580=CARTESIAN_POINT('Ctrl Pts',(2803.37660899146,-5012.20631932914,877.067420435862));
#581=CARTESIAN_POINT('Ctrl Pts',(2798.9513597454,-5009.4286701021,877.073055740584));
#582=CARTESIAN_POINT('Ctrl Pts',(2793.31933130192,-5006.14840973797,877.079610881208));
#583=CARTESIAN_POINT('Ctrl Pts',(2788.83855229664,-5004.4524950224,877.082614043012));
#584=CARTESIAN_POINT('Ctrl Pts',(2788.00706811443,-5004.13778941904,877.083171330379));
#585=CARTESIAN_POINT('Ctrl Pts',(2787.12333874199,-5003.84262398686,877.083668468598));
#586=CARTESIAN_POINT('Ctrl Pts',(2786.2650614867,-5003.63297305288,877.083964867188));
#587=CARTESIAN_POINT('Ctrl Pts',(2785.39932966491,-5003.42150119586,877.084263840148));
#588=CARTESIAN_POINT('Ctrl Pts',(2784.58942359594,-5003.28226211947,877.084401693965));
#589=CARTESIAN_POINT('Ctrl Pts',(2783.76034465172,-5003.33994908827,877.084058145997));
#590=CARTESIAN_POINT('Ctrl Pts',(2783.13965149871,-5003.38313666022,877.083800947483));
#591=CARTESIAN_POINT('Ctrl Pts',(2782.51838942235,-5003.56298394281,877.083212805619));
#592=CARTESIAN_POINT('Ctrl Pts',(2782.12132132381,-5004.01586081287,877.082018898141));
#593=CARTESIAN_POINT('Ctrl Pts',(2781.75473313656,-5004.43397375483,877.0809166379));
#594=CARTESIAN_POINT('Ctrl Pts',(2781.644760841,-5005.02690894262,877.079454310325));
#595=CARTESIAN_POINT('Ctrl Pts',(2781.66550312011,-5005.59046546642,877.078095246556));
#596=CARTESIAN_POINT('Ctrl Pts',(2781.69529004437,-5006.3997601154,877.076143564712));
#597=CARTESIAN_POINT('Ctrl Pts',(2781.95553555977,-5007.23712628181,877.074180612353));
#598=CARTESIAN_POINT('Ctrl Pts',(2782.24894630558,-5007.99322936784,877.072422525201));
#599=CARTESIAN_POINT('Ctrl Pts',(2783.10647281193,-5010.20302722642,877.06728431416));
#600=CARTESIAN_POINT('Ctrl Pts',(2784.77072894779,-5012.82656619862,877.061342998534));
#601=CARTESIAN_POINT('Ctrl Pts',(2786.3612937845,-5015.07888204988,877.056282154893));
#602=CARTESIAN_POINT('Ctrl Pts',(2787.20132064173,-5016.26840024011,877.053609365655));
#603=CARTESIAN_POINT('Ctrl Pts',(2787.96739035399,-5017.29031036107,877.051324105078));
#604=CARTESIAN_POINT('Ctrl Pts',(2788.83341821177,-5018.40636910982,877.048835529261));
#605=CARTESIAN_POINT('Ctrl Pts',(2792.88678113181,-5023.62997838312,877.03718798138));
#606=CARTESIAN_POINT('Ctrl Pts',(2798.5456114629,-5029.9362977422,877.023314445002));
#607=CARTESIAN_POINT('Ctrl Pts',(2804.79320376881,-5036.35068205561,877.009324126464));
#608=CARTESIAN_POINT('',(2703.91718295477,-6027.42551541654,874.585482555614));
#609=CARTESIAN_POINT('Ctrl Pts',(2804.79320376881,-5036.35068205561,877.009324126464));
#610=CARTESIAN_POINT('Ctrl Pts',(2810.97405275303,-4975.67036132638,953.211434720129));
#611=CARTESIAN_POINT('Ctrl Pts',(2822.38546731426,-4865.35229172206,1180.55057407724));
#612=CARTESIAN_POINT('Ctrl Pts',(2817.10881651538,-4917.89989010582,1597.2863063791));
#613=CARTESIAN_POINT('Ctrl Pts',(2781.45878759553,-5267.25635694149,1921.13652343466));
#614=CARTESIAN_POINT('Ctrl Pts',(2733.03887068386,-5741.43129356551,1941.77102093399));
#615=CARTESIAN_POINT('Ctrl Pts',(2694.54613349235,-6118.07488434386,1650.21528596063));
#616=CARTESIAN_POINT('Ctrl Pts',(2685.67715043103,-6210.82918091707,1219.0566919702));
#617=CARTESIAN_POINT('Ctrl Pts',(2696.53677199818,-6100.24518035283,965.45871621782));
#618=CARTESIAN_POINT('Ctrl Pts',(2703.91718295477,-6027.42551541654,874.585482555613));
#619=CARTESIAN_POINT('',(941.737488306212,-5472.11785617361,875.496278921213));
#620=CARTESIAN_POINT('Ctrl Pts',(2703.91718295477,-6027.42551541654,874.585482555614));
#621=CARTESIAN_POINT('Ctrl Pts',(2699.4605474409,-6030.43987556915,874.577089794135));
#622=CARTESIAN_POINT('Ctrl Pts',(2695.2428241835,-6033.45086037359,874.568763962706));
#623=CARTESIAN_POINT('Ctrl Pts',(2691.5036628322,-6036.31898037825,874.560901655444));
#624=CARTESIAN_POINT('Ctrl Pts',(2690.68344641937,-6036.94812656393,874.559176992384));
#625=CARTESIAN_POINT('Ctrl Pts',(2689.88620547785,-6037.57032303747,874.557474802778));
#626=CARTESIAN_POINT('Ctrl Pts',(2689.11435975055,-6038.18396074864,874.555799576677));
#627=CARTESIAN_POINT('Ctrl Pts',(2688.55801243504,-6038.62627153852,874.554592071717));
#628=CARTESIAN_POINT('Ctrl Pts',(2687.98830627464,-6039.08474241185,874.553342163518));
#629=CARTESIAN_POINT('Ctrl Pts',(2687.35868352691,-6039.60102214321,874.551937584856));
#630=CARTESIAN_POINT('Ctrl Pts',(2684.74790049392,-6041.74181894216,874.546113382739));
#631=CARTESIAN_POINT('Ctrl Pts',(2681.44535923187,-6044.60832540661,874.538362366321));
#632=CARTESIAN_POINT('Ctrl Pts',(2678.91110021517,-6047.40350797202,874.530972955199));
#633=CARTESIAN_POINT('Ctrl Pts',(2678.19661527835,-6048.19155521798,874.528889654754));
#634=CARTESIAN_POINT('Ctrl Pts',(2677.56936634448,-6048.93196015287,874.526943134369));
#635=CARTESIAN_POINT('Ctrl Pts',(2676.93915611832,-6049.79441809439,874.524700439753));
#636=CARTESIAN_POINT('Ctrl Pts',(2676.46940017847,-6050.43729046315,874.523028745019));
#637=CARTESIAN_POINT('Ctrl Pts',(2676.018956747,-6051.13099478534,874.521238754461));
#638=CARTESIAN_POINT('Ctrl Pts',(2675.68011819513,-6051.817248677,874.51949424748));
#639=CARTESIAN_POINT('Ctrl Pts',(2675.37491311445,-6052.43538428528,874.517922902098));
#640=CARTESIAN_POINT('Ctrl Pts',(2675.12108739525,-6053.09923849841,874.51625352517));
#641=CARTESIAN_POINT('Ctrl Pts',(2675.09021849651,-6053.78050566054,874.51459683321));
#642=CARTESIAN_POINT('Ctrl Pts',(2675.06580438457,-6054.31931765057,874.51328656091));
#643=CARTESIAN_POINT('Ctrl Pts',(2675.22737303348,-6054.87564779094,874.511979625296));
#644=CARTESIAN_POINT('Ctrl Pts',(2675.5984890496,-6055.26665628828,874.511124410592));
#645=CARTESIAN_POINT('Ctrl Pts',(2676.03006142788,-6055.72136171675,874.510129877811));
#646=CARTESIAN_POINT('Ctrl Pts',(2676.67238739844,-6055.96016903389,874.509709789831));
#647=CARTESIAN_POINT('Ctrl Pts',(2677.30943127188,-6056.09140535254,874.509548792979));
#648=CARTESIAN_POINT('Ctrl Pts',(2678.0237214575,-6056.23855505183,874.50936827406));
#649=CARTESIAN_POINT('Ctrl Pts',(2678.82139252527,-6056.26591312268,874.50949823429));
#650=CARTESIAN_POINT('Ctrl Pts',(2679.54643471952,-6056.24448267079,874.509728430983));
#651=CARTESIAN_POINT('Ctrl Pts',(2680.21348734746,-6056.22476624689,874.509940216325));
#652=CARTESIAN_POINT('Ctrl Pts',(2680.91128560394,-6056.16178389349,874.510264294507));
#653=CARTESIAN_POINT('Ctrl Pts',(2681.63114485133,-6056.06755243439,874.510669441219));
#654=CARTESIAN_POINT('Ctrl Pts',(2682.911240991,-6055.89998450015,874.511389896979));
#655=CARTESIAN_POINT('Ctrl Pts',(2684.24471827859,-6055.63404346312,874.512361607111));
#656=CARTESIAN_POINT('Ctrl Pts',(2685.49463883224,-6055.34220810025,874.513375447522));
#657=CARTESIAN_POINT('Ctrl Pts',(2686.91535543467,-6055.01049474135,874.514527824687));
#658=CARTESIAN_POINT('Ctrl Pts',(2688.17141362868,-6054.66695680136,874.515668327751));
#659=CARTESIAN_POINT('Ctrl Pts',(2689.52888747024,-6054.26571002304,874.516973465703));
#660=CARTESIAN_POINT('Ctrl Pts',(2693.03525958686,-6053.22928451536,874.520344653555));
#661=CARTESIAN_POINT('Ctrl Pts',(2696.85021763579,-6051.88068662162,874.524547392683));
#662=CARTESIAN_POINT('Ctrl Pts',(2700.96396421222,-6050.27246987199,874.52945206048));
#663=CARTESIAN_POINT('Ctrl Pts',(2710.43872566748,-6046.56843273992,874.540748467913));
#664=CARTESIAN_POINT('Ctrl Pts',(2721.51028504188,-6041.5253596966,874.555678920353));
#665=CARTESIAN_POINT('Ctrl Pts',(2734.14757548742,-6036.03304275876,874.572081914368));
#666=CARTESIAN_POINT('Ctrl Pts',(2739.69904149443,-6033.62030951412,874.579287625441));
#667=CARTESIAN_POINT('Ctrl Pts',(2745.57164139864,-6031.10948379624,874.586809764353));
#668=CARTESIAN_POINT('Ctrl Pts',(2751.52063025301,-6028.67719475879,874.594160582114));
#669=CARTESIAN_POINT('Ctrl Pts',(2760.19003804485,-6025.13264188613,874.604872862526));
#670=CARTESIAN_POINT('Ctrl Pts',(2769.09933701251,-6021.72002956317,874.615324763206));
#671=CARTESIAN_POINT('Ctrl Pts',(2777.98456921897,-6018.77046087691,874.624649884624));
#672=CARTESIAN_POINT('Ctrl Pts',(2783.37978170042,-6016.97944974504,874.63031220276));
#673=CARTESIAN_POINT('Ctrl Pts',(2788.76618734041,-6015.35925733934,874.635558864916));
#674=CARTESIAN_POINT('Ctrl Pts',(2794.08502999802,-6013.98500453995,874.640193579929));
#675=CARTESIAN_POINT('Ctrl Pts',(2797.28848034498,-6013.15731496716,874.64298499159));
#676=CARTESIAN_POINT('Ctrl Pts',(2800.44898621116,-6012.42251021554,874.64554100087));
#677=CARTESIAN_POINT('Ctrl Pts',(2803.6118900431,-6011.78555421651,874.6478607437));
#678=CARTESIAN_POINT('Ctrl Pts',(2812.37756405568,-6010.02029389103,874.65428968069));
#679=CARTESIAN_POINT('Ctrl Pts',(2821.7558082635,-6008.89386946895,874.659322887753));
#680=CARTESIAN_POINT('Ctrl Pts',(2830.76921225795,-6009.40368322551,874.660305626586));
#681=CARTESIAN_POINT('Ctrl Pts',(2835.27591425518,-6009.65859010379,874.660796996003));
#682=CARTESIAN_POINT('Ctrl Pts',(2839.74308385937,-6010.32155216416,874.660290889482));
#683=CARTESIAN_POINT('Ctrl Pts',(2844.07093975012,-6011.5629084161,874.658350437437));
#684=CARTESIAN_POINT('Ctrl Pts',(2845.93936251889,-6012.09882697343,874.657512705111));
#685=CARTESIAN_POINT('Ctrl Pts',(2847.77894053758,-6012.7424949191,874.656407056471));
#686=CARTESIAN_POINT('Ctrl Pts',(2849.57759012813,-6013.50768577914,874.65499717889));
#687=CARTESIAN_POINT('Ctrl Pts',(2851.1487347916,-6014.1760903103,874.653765631817));
#688=CARTESIAN_POINT('Ctrl Pts',(2852.77049830938,-6014.97021834178,874.652242203418));
#689=CARTESIAN_POINT('Ctrl Pts',(2854.43500982602,-6015.94278984826,874.650297342013));
#690=CARTESIAN_POINT('Ctrl Pts',(2855.2787843398,-6016.43580599251,874.649311452477));
#691=CARTESIAN_POINT('Ctrl Pts',(2856.13156773819,-6016.97399934328,874.648218421066));
#692=CARTESIAN_POINT('Ctrl Pts',(2856.98879951296,-6017.56372863381,874.647001733962));
#693=CARTESIAN_POINT('Ctrl Pts',(2858.72429898912,-6018.75765879939,874.644538503019));
#694=CARTESIAN_POINT('Ctrl Pts',(2860.47822426531,-6020.16212828459,874.641570164759));
#695=CARTESIAN_POINT('Ctrl Pts',(2862.21805710225,-6021.822786403,874.637978221068));
#696=CARTESIAN_POINT('Ctrl Pts',(2863.5789412261,-6023.12174065913,874.635168629803));
#697=CARTESIAN_POINT('Ctrl Pts',(2864.92663377695,-6024.58227674091,874.631964663324));
#698=CARTESIAN_POINT('Ctrl Pts',(2866.15636622781,-6026.09542033317,874.628604341369));
#699=CARTESIAN_POINT('Ctrl Pts',(2869.09826494858,-6029.71532578112,874.620565416436));
#700=CARTESIAN_POINT('Ctrl Pts',(2871.51929036399,-6033.77169758004,874.611341858501));
#701=CARTESIAN_POINT('Ctrl Pts',(2873.41831379237,-6038.07819182259,874.601384460752));
#702=CARTESIAN_POINT('Ctrl Pts',(2874.88789055587,-6041.41081204015,874.593678836831));
#703=CARTESIAN_POINT('Ctrl Pts',(2876.05879195177,-6044.90999244957,874.585496573231));
#704=CARTESIAN_POINT('Ctrl Pts',(2876.93555908415,-6048.61416970393,874.576745745669));
#705=CARTESIAN_POINT('Ctrl Pts',(2879.60991306191,-6059.91281538618,874.550053583482));
#706=CARTESIAN_POINT('Ctrl Pts',(2879.47547405414,-6072.91278337775,874.518552327188));
#707=CARTESIAN_POINT('Ctrl Pts',(2875.37592421167,-6086.49677585157,874.484662156244));
#708=CARTESIAN_POINT('Ctrl Pts',(2871.67739147027,-6098.75198504624,874.454087114676));
#709=CARTESIAN_POINT('Ctrl Pts',(2864.73978960425,-6111.44043489581,874.421666718425));
#710=CARTESIAN_POINT('Ctrl Pts',(2853.65518359177,-6123.5956896798,874.389517053501));
#711=CARTESIAN_POINT('Ctrl Pts',(2846.415776418,-6131.53434249102,874.368519959457));
#712=CARTESIAN_POINT('Ctrl Pts',(2837.40677946585,-6139.23449477524,874.347664964522));
#713=CARTESIAN_POINT('Ctrl Pts',(2826.4712245618,-6146.39299147052,874.327647291053));
#714=CARTESIAN_POINT('Ctrl Pts',(2818.50221663942,-6151.60956414356,874.313059919871));
#715=CARTESIAN_POINT('Ctrl Pts',(2809.49831350554,-6156.55121077557,874.298883516045));
#716=CARTESIAN_POINT('Ctrl Pts',(2799.36315341779,-6161.12746664878,874.285313361929));
#717=CARTESIAN_POINT('Ctrl Pts',(2795.99953334181,-6162.64621780759,874.280809748526));
#718=CARTESIAN_POINT('Ctrl Pts',(2792.51130440144,-6164.12466973797,874.276373037813));
#719=CARTESIAN_POINT('Ctrl Pts',(2788.89494402818,-6165.55936950429,874.272010721729));
#720=CARTESIAN_POINT('Ctrl Pts',(2787.30034690728,-6166.19198569311,874.270087203066));
#721=CARTESIAN_POINT('Ctrl Pts',(2785.597569525,-6166.84934547127,874.268077182655));
#722=CARTESIAN_POINT('Ctrl Pts',(2783.76064668646,-6167.53428071127,874.265967419522));
#723=CARTESIAN_POINT('Ctrl Pts',(2777.210849349,-6169.9765101382,874.258444773135));
#724=CARTESIAN_POINT('Ctrl Pts',(2769.03379858854,-6172.74817177479,874.249724474471));
#725=CARTESIAN_POINT('Ctrl Pts',(2758.83893390565,-6175.57678992826,874.240370031153));
#726=CARTESIAN_POINT('Ctrl Pts',(2736.28699431465,-6181.83394269165,874.219677177725));
#727=CARTESIAN_POINT('Ctrl Pts',(2703.85772919832,-6188.34218142345,874.195947245924));
#728=CARTESIAN_POINT('Ctrl Pts',(2657.3720038917,-6192.27428274067,874.174996072409));
#729=CARTESIAN_POINT('Ctrl Pts',(2650.76906056524,-6192.83280779283,874.172020117739));
#730=CARTESIAN_POINT('Ctrl Pts',(2643.8824109882,-6193.33883022112,874.169101476341));
#731=CARTESIAN_POINT('Ctrl Pts',(2636.7000351306,-6193.78344310148,874.166258752358));
#732=CARTESIAN_POINT('Ctrl Pts',(2630.90923549391,-6194.1419127997,874.163966802544));
#733=CARTESIAN_POINT('Ctrl Pts',(2625.02491736942,-6194.45429747986,874.161763407271));
#734=CARTESIAN_POINT('Ctrl Pts',(2619.05694511681,-6194.7203353278,874.159651626398));
#735=CARTESIAN_POINT('Ctrl Pts',(2547.57387007937,-6197.90687887093,874.134357173908));
#736=CARTESIAN_POINT('Ctrl Pts',(2463.82490984295,-6194.45832377688,874.122107132781));
#737=CARTESIAN_POINT('Ctrl Pts',(2375.21592983418,-6184.56098417631,874.124271948724));
#738=CARTESIAN_POINT('Ctrl Pts',(2343.23318510316,-6180.98861390493,874.125053322753));
#739=CARTESIAN_POINT('Ctrl Pts',(2310.61724826826,-6176.57597899773,874.127712940486));
#740=CARTESIAN_POINT('Ctrl Pts',(2277.71649418676,-6171.33085700092,874.132317656786));
#741=CARTESIAN_POINT('Ctrl Pts',(2255.59034443737,-6167.80344986405,874.135414383448));
#742=CARTESIAN_POINT('Ctrl Pts',(2233.37038042004,-6163.90555156482,874.139384861123));
#743=CARTESIAN_POINT('Ctrl Pts',(2211.11919223866,-6159.63313652207,874.144254228074));
#744=CARTESIAN_POINT('Ctrl Pts',(2174.78959790821,-6152.65754923885,874.152204460869));
#745=CARTESIAN_POINT('Ctrl Pts',(2138.30760723932,-6144.68041937997,874.162541582456));
#746=CARTESIAN_POINT('Ctrl Pts',(2101.58629724304,-6135.52598819485,874.17566966243));
#747=CARTESIAN_POINT('Ctrl Pts',(2068.33156322807,-6127.23575633356,874.187558421511));
#748=CARTESIAN_POINT('Ctrl Pts',(2034.82146757177,-6117.94964325976,874.20179504136));
#749=CARTESIAN_POINT('Ctrl Pts',(2001.41232299387,-6107.80920065638,874.218124510625));
#750=CARTESIAN_POINT('Ctrl Pts',(1899.57370827789,-6076.89884241816,874.267900419286));
#751=CARTESIAN_POINT('Ctrl Pts',(1798.17287750581,-6037.93665896362,874.337274537852));
#752=CARTESIAN_POINT('Ctrl Pts',(1699.43445761136,-5993.29791592025,874.421044351179));
#753=CARTESIAN_POINT('Ctrl Pts',(1650.06524766413,-5970.97854439856,874.462929257842));
#754=CARTESIAN_POINT('Ctrl Pts',(1601.36087517525,-5947.24169457908,874.508408877855));
#755=CARTESIAN_POINT('Ctrl Pts',(1553.59884198959,-5922.38455470675,874.556832077153));
#756=CARTESIAN_POINT('Ctrl Pts',(1529.71782539676,-5909.95598477058,874.581043676802));
#757=CARTESIAN_POINT('Ctrl Pts',(1506.07243447779,-5897.24725660569,874.605991388804));
#758=CARTESIAN_POINT('Ctrl Pts',(1482.69748244998,-5884.29530502818,874.63159436959));
#759=CARTESIAN_POINT('Ctrl Pts',(1466.4004114902,-5875.26517424224,874.649444827386));
#760=CARTESIAN_POINT('Ctrl Pts',(1450.23480500477,-5866.11680566678,874.667613829027));
#761=CARTESIAN_POINT('Ctrl Pts',(1434.21238749755,-5856.86285128884,874.686073632256));
#762=CARTESIAN_POINT('Ctrl Pts',(1427.25378948824,-5852.84382304397,874.694090796329));
#763=CARTESIAN_POINT('Ctrl Pts',(1420.33278139977,-5848.81121331872,874.702150081322));
#764=CARTESIAN_POINT('Ctrl Pts',(1413.38615182236,-5844.72803207177,874.710325480056));
#765=CARTESIAN_POINT('Ctrl Pts',(1373.68337254393,-5821.39101057165,874.757051168802));
#766=CARTESIAN_POINT('Ctrl Pts',(1333.5268738248,-5796.61542310651,874.807147511655));
#767=CARTESIAN_POINT('Ctrl Pts',(1294.14475785861,-5770.80332431485,874.85994332771));
#768=CARTESIAN_POINT('Ctrl Pts',(1274.32203650186,-5757.81097920014,874.886517744162));
#769=CARTESIAN_POINT('Ctrl Pts',(1254.69516091453,-5744.55670709429,874.91377435806));
#770=CARTESIAN_POINT('Ctrl Pts',(1235.41860227816,-5731.09507677256,874.941619069858));
#771=CARTESIAN_POINT('Ctrl Pts',(1229.22005398941,-5726.76637022444,874.95057278374));
#772=CARTESIAN_POINT('Ctrl Pts',(1223.05771690286,-5722.41623636163,874.959587271361));
#773=CARTESIAN_POINT('Ctrl Pts',(1216.93669127222,-5718.04652722767,874.968659303984));
#774=CARTESIAN_POINT('Ctrl Pts',(1211.32159039831,-5714.0379902508,874.976981500522));
#775=CARTESIAN_POINT('Ctrl Pts',(1205.78079357688,-5710.04089126358,874.985294284648));
#776=CARTESIAN_POINT('Ctrl Pts',(1200.37711935094,-5706.10234084724,874.993499068772));
#777=CARTESIAN_POINT('Ctrl Pts',(1193.59596265516,-5701.15979131322,875.003795382812));
#778=CARTESIAN_POINT('Ctrl Pts',(1186.99921400146,-5696.28698233,875.013968234815));
#779=CARTESIAN_POINT('Ctrl Pts',(1180.58065632678,-5691.48398161601,875.024015931795));
#780=CARTESIAN_POINT('Ctrl Pts',(1086.88926734069,-5621.37480273134,875.17068169908));
#781=CARTESIAN_POINT('Ctrl Pts',(1031.13616106991,-5566.1775673028,875.290581854277));
#782=CARTESIAN_POINT('Ctrl Pts',(993.603105469913,-5526.60469646499,875.377142260965));
#783=CARTESIAN_POINT('Ctrl Pts',(986.164969461601,-5518.76231883744,875.394296421946));
#784=CARTESIAN_POINT('Ctrl Pts',(979.491071788711,-5511.59056915911,875.410015198229));
#785=CARTESIAN_POINT('Ctrl Pts',(973.53939820718,-5505.16839414668,875.424097155298));
#786=CARTESIAN_POINT('Ctrl Pts',(959.339327517985,-5489.84575625238,875.457695232055));
#787=CARTESIAN_POINT('Ctrl Pts',(949.156079520161,-5478.70320514905,875.48216276217));
#788=CARTESIAN_POINT('Ctrl Pts',(941.737488306212,-5472.11785617361,875.496278921213));
#789=CARTESIAN_POINT('',(938.731074779045,-5501.68061236054,875.423978831062));
#790=CARTESIAN_POINT('Ctrl Pts',(941.737488306211,-5472.11785617361,875.496278921213));
#791=CARTESIAN_POINT('Ctrl Pts',(940.490033177226,-5471.01051286291,875.49865258954));
#792=CARTESIAN_POINT('Ctrl Pts',(939.323754703152,-5470.03480660819,875.50072757755));
#793=CARTESIAN_POINT('Ctrl Pts',(938.235151543189,-5469.19518760431,875.502492251799));
#794=CARTESIAN_POINT('Ctrl Pts',(937.254832652009,-5468.43908620652,875.504081392421));
#795=CARTESIAN_POINT('Ctrl Pts',(936.275991567546,-5467.74314928618,875.505525260199));
#796=CARTESIAN_POINT('Ctrl Pts',(935.293785001988,-5467.14795029562,875.506724450383));
#797=CARTESIAN_POINT('Ctrl Pts',(934.554412949427,-5466.6999045232,875.507627160402));
#798=CARTESIAN_POINT('Ctrl Pts',(933.843266333791,-5466.32472952003,875.508360418747));
#799=CARTESIAN_POINT('Ctrl Pts',(933.120192220855,-5466.03639053083,875.508880545181));
#800=CARTESIAN_POINT('Ctrl Pts',(932.262740493137,-5465.6944660171,875.509497333006));
#801=CARTESIAN_POINT('Ctrl Pts',(931.316146598052,-5465.43925446664,875.509882296127));
#802=CARTESIAN_POINT('Ctrl Pts',(930.416809279026,-5465.58271764098,875.509313835401));
#803=CARTESIAN_POINT('Ctrl Pts',(929.738470473789,-5465.69092691488,875.508885065281));
#804=CARTESIAN_POINT('Ctrl Pts',(929.12840469292,-5466.07824944854,875.507797455025));
#805=CARTESIAN_POINT('Ctrl Pts',(928.730010802297,-5466.63420599461,875.506353703091));
#806=CARTESIAN_POINT('Ctrl Pts',(928.304946376742,-5467.2273811297,875.504813298981));
#807=CARTESIAN_POINT('Ctrl Pts',(928.083600099793,-5467.9610940042,875.502982807852));
#808=CARTESIAN_POINT('Ctrl Pts',(927.957961550217,-5468.69856234836,875.501166765049));
#809=CARTESIAN_POINT('Ctrl Pts',(927.796837055336,-5469.64432473453,875.49883779054));
#810=CARTESIAN_POINT('Ctrl Pts',(927.789615301351,-5470.68110420012,875.496326348597));
#811=CARTESIAN_POINT('Ctrl Pts',(927.845234104768,-5471.63058988242,875.494041668533));
#812=CARTESIAN_POINT('Ctrl Pts',(927.88997815953,-5472.39442938909,875.492203695695));
#813=CARTESIAN_POINT('Ctrl Pts',(927.978593226721,-5473.18874589706,875.490302739037));
#814=CARTESIAN_POINT('Ctrl Pts',(928.114296776654,-5474.05967481546,875.488227912847));
#815=CARTESIAN_POINT('Ctrl Pts',(928.501235296253,-5476.54299928658,875.482311854096));
#816=CARTESIAN_POINT('Ctrl Pts',(929.256974422028,-5479.50027394551,875.475339239526));
#817=CARTESIAN_POINT('Ctrl Pts',(930.416574712781,-5482.92019457684,875.46734605554));
#818=CARTESIAN_POINT('Ctrl Pts',(932.146838326004,-5488.02312898941,875.455419260148));
#819=CARTESIAN_POINT('Ctrl Pts',(934.834919651246,-5494.31036235678,875.4408612796));
#820=CARTESIAN_POINT('Ctrl Pts',(938.731074779046,-5501.68061236054,875.423978831062));
#821=CARTESIAN_POINT('',(2884.71946431537,-6134.22360601239,874.371430877401));
#822=CARTESIAN_POINT('Ctrl Pts',(938.731074779046,-5501.68061236054,875.423978831062));
#823=CARTESIAN_POINT('Ctrl Pts',(940.962804013044,-5505.9023134622,875.414308514376));
#824=CARTESIAN_POINT('Ctrl Pts',(943.602554734527,-5510.4878917094,875.403857734875));
#825=CARTESIAN_POINT('Ctrl Pts',(946.543219813716,-5515.19881652052,875.393177545701));
#826=CARTESIAN_POINT('Ctrl Pts',(955.438971268565,-5529.44974789612,875.360869103281));
#827=CARTESIAN_POINT('Ctrl Pts',(967.277194371243,-5545.27167202883,875.325481548818));
#828=CARTESIAN_POINT('Ctrl Pts',(982.511855919145,-5562.52544513832,875.287463350171));
#829=CARTESIAN_POINT('Ctrl Pts',(986.665181118946,-5567.22922739314,875.277098699668));
#830=CARTESIAN_POINT('Ctrl Pts',(991.07104902249,-5572.03918999249,875.266539137108));
#831=CARTESIAN_POINT('Ctrl Pts',(995.737046404049,-5576.95389283039,875.255790014402));
#832=CARTESIAN_POINT('Ctrl Pts',(999.840977593934,-5581.27657040951,875.246335731357));
#833=CARTESIAN_POINT('Ctrl Pts',(1004.15301619219,-5585.68515504463,875.236724681818));
#834=CARTESIAN_POINT('Ctrl Pts',(1008.5527799016,-5590.05943054161,875.227218257873));
#835=CARTESIAN_POINT('Ctrl Pts',(1039.98689288717,-5621.31144298682,875.159299609487));
#836=CARTESIAN_POINT('Ctrl Pts',(1077.2175687518,-5652.25490929943,875.093553481578));
#837=CARTESIAN_POINT('Ctrl Pts',(1116.52720310442,-5681.71497817951,875.031909430939));
#838=CARTESIAN_POINT('Ctrl Pts',(1146.66041917499,-5704.29790563831,874.984655531788));
#839=CARTESIAN_POINT('Ctrl Pts',(1178.0127011307,-5726.01081988181,874.939807442629));
#840=CARTESIAN_POINT('Ctrl Pts',(1208.89092841578,-5746.34968103342,874.898168844014));
#841=CARTESIAN_POINT('Ctrl Pts',(1232.0495988796,-5761.60382689713,874.866939895054));
#842=CARTESIAN_POINT('Ctrl Pts',(1254.94251047494,-5776.08412284365,874.837518792739));
#843=CARTESIAN_POINT('Ctrl Pts',(1276.86252437965,-5789.56714815366,874.810272439223));
#844=CARTESIAN_POINT('Ctrl Pts',(1281.99167326857,-5792.72209342827,874.803896959514));
#845=CARTESIAN_POINT('Ctrl Pts',(1287.06756912927,-5795.82240282148,874.797640636011));
#846=CARTESIAN_POINT('Ctrl Pts',(1292.08118037221,-5798.86515585896,874.791508316835));
#847=CARTESIAN_POINT('Ctrl Pts',(1297.10376193074,-5801.91335296733,874.785365025759));
#848=CARTESIAN_POINT('Ctrl Pts',(1302.13934001285,-5804.9496731553,874.779253680831));
#849=CARTESIAN_POINT('Ctrl Pts',(1307.21089488248,-5807.98844331938,874.773145253757));
#850=CARTESIAN_POINT('Ctrl Pts',(1361.98235198394,-5840.80636089327,874.70717584988));
#851=CARTESIAN_POINT('Ctrl Pts',(1419.96665384839,-5873.26390569668,874.642868964273));
#852=CARTESIAN_POINT('Ctrl Pts',(1476.53668150581,-5903.38644104532,874.583866451437));
#853=CARTESIAN_POINT('Ctrl Pts',(1489.40814342948,-5910.24026599185,874.570441522569));
#854=CARTESIAN_POINT('Ctrl Pts',(1502.20563296597,-5916.97471957268,874.557287355108));
#855=CARTESIAN_POINT('Ctrl Pts',(1514.87661582037,-5923.56288169088,874.544456192202));
#856=CARTESIAN_POINT('Ctrl Pts',(1523.00571463106,-5927.78953257147,874.536224329504));
#857=CARTESIAN_POINT('Ctrl Pts',(1531.08271503752,-5931.95601920954,874.528125289137));
#858=CARTESIAN_POINT('Ctrl Pts',(1539.09344730256,-5936.05575679555,874.520171525536));
#859=CARTESIAN_POINT('Ctrl Pts',(1547.45329519299,-5940.33416499542,874.511871129061));
#860=CARTESIAN_POINT('Ctrl Pts',(1555.80351561301,-5944.57214176781,874.503666234519));
#861=CARTESIAN_POINT('Ctrl Pts',(1564.21561139605,-5948.8045056797,874.495490144678));
#862=CARTESIAN_POINT('Ctrl Pts',(1676.38454545732,-6005.23987693558,874.386468171343));
#863=CARTESIAN_POINT('Ctrl Pts',(1795.50846662448,-6058.58668791946,874.286633031038));
#864=CARTESIAN_POINT('Ctrl Pts',(1916.72636705011,-6102.24676288496,874.210760959643));
#865=CARTESIAN_POINT('Ctrl Pts',(1982.59053751197,-6125.96961742879,874.169535604097));
#866=CARTESIAN_POINT('Ctrl Pts',(2049.07267683665,-6146.83479848067,874.135379623194));
#867=CARTESIAN_POINT('Ctrl Pts',(2115.39732340797,-6163.77319371614,874.110690226965));
#868=CARTESIAN_POINT('Ctrl Pts',(2141.64209056003,-6170.47574339964,874.100920593975));
#869=CARTESIAN_POINT('Ctrl Pts',(2167.92392218847,-6176.57374766683,874.092623461298));
#870=CARTESIAN_POINT('Ctrl Pts',(2193.87803618645,-6181.9412221565,874.086014074452));
#871=CARTESIAN_POINT('Ctrl Pts',(2203.14415926667,-6183.85751485889,874.083654394904));
#872=CARTESIAN_POINT('Ctrl Pts',(2212.38014007168,-6185.68387906376,874.081504986143));
#873=CARTESIAN_POINT('Ctrl Pts',(2221.59943100945,-6187.42113200047,874.079567178524));
#874=CARTESIAN_POINT('Ctrl Pts',(2251.83827478582,-6193.11924051098,874.073211260019));
#875=CARTESIAN_POINT('Ctrl Pts',(2281.894594877,-6197.87071152202,874.069101915393));
#876=CARTESIAN_POINT('Ctrl Pts',(2312.2256999831,-6201.81081652756,874.06702417492));
#877=CARTESIAN_POINT('Ctrl Pts',(2335.50385360035,-6204.83472117153,874.065429575523));
#878=CARTESIAN_POINT('Ctrl Pts',(2359.00197758468,-6207.38100559177,874.065045221747));
#879=CARTESIAN_POINT('Ctrl Pts',(2382.64823911421,-6209.4292024667,874.065902990517));
#880=CARTESIAN_POINT('Ctrl Pts',(2408.13106697133,-6211.63647943165,874.066827380781));
#881=CARTESIAN_POINT('Ctrl Pts',(2433.76193169928,-6213.26265465874,874.06919481598));
#882=CARTESIAN_POINT('Ctrl Pts',(2459.37546978639,-6214.27448042765,874.073045106222));
#883=CARTESIAN_POINT('Ctrl Pts',(2471.92988795676,-6214.77042455591,874.074932317336));
#884=CARTESIAN_POINT('Ctrl Pts',(2484.48014989606,-6215.11876407949,874.077175803273));
#885=CARTESIAN_POINT('Ctrl Pts',(2497.00679185836,-6215.31510989609,874.079781401417));
#886=CARTESIAN_POINT('Ctrl Pts',(2509.27250523305,-6215.50736585072,874.082332725236));
#887=CARTESIAN_POINT('Ctrl Pts',(2521.4353892811,-6215.55214842978,874.085215737947));
#888=CARTESIAN_POINT('Ctrl Pts',(2533.41845961674,-6215.45243964525,874.088404287167));
#889=CARTESIAN_POINT('Ctrl Pts',(2602.89847989172,-6214.8743099859,874.106892075209));
#890=CARTESIAN_POINT('Ctrl Pts',(2666.91972965656,-6209.44697101752,874.135775470424));
#891=CARTESIAN_POINT('Ctrl Pts',(2721.17885359491,-6199.95333083292,874.172100943376));
#892=CARTESIAN_POINT('Ctrl Pts',(2737.33099249785,-6197.12721452609,874.182914499553));
#893=CARTESIAN_POINT('Ctrl Pts',(2752.61810409906,-6193.94077760415,874.194387510639));
#894=CARTESIAN_POINT('Ctrl Pts',(2766.92646441199,-6190.41367831794,874.206444421179));
#895=CARTESIAN_POINT('Ctrl Pts',(2771.76042747929,-6189.2220765333,874.210517750267));
#896=CARTESIAN_POINT('Ctrl Pts',(2776.49106468121,-6187.98800927578,874.214668460207));
#897=CARTESIAN_POINT('Ctrl Pts',(2780.96264989419,-6186.75762916864,874.218746532047));
#898=CARTESIAN_POINT('Ctrl Pts',(2807.71751368115,-6179.39588817413,874.243146884808));
#899=CARTESIAN_POINT('Ctrl Pts',(2826.57773485404,-6171.84983700608,874.266051728122));
#900=CARTESIAN_POINT('Ctrl Pts',(2839.81639676887,-6165.44228293572,874.284818083185));
#901=CARTESIAN_POINT('Ctrl Pts',(2843.99081477523,-6163.42185147067,874.290735494702));
#902=CARTESIAN_POINT('Ctrl Pts',(2847.60624174137,-6161.5149801459,874.296240536728));
#903=CARTESIAN_POINT('Ctrl Pts',(2850.73580673382,-6159.76660238542,874.30124242761));
#904=CARTESIAN_POINT('Ctrl Pts',(2852.26262669546,-6158.91362183649,874.303682698659));
#905=CARTESIAN_POINT('Ctrl Pts',(2853.65414388519,-6158.10990943294,874.305970432256));
#906=CARTESIAN_POINT('Ctrl Pts',(2854.98135101611,-6157.32226617083,874.308203451495));
#907=CARTESIAN_POINT('Ctrl Pts',(2865.73247181716,-6150.94191478343,874.326292157492));
#908=CARTESIAN_POINT('Ctrl Pts',(2876.04409982398,-6143.3221006714,874.347273060098));
#909=CARTESIAN_POINT('Ctrl Pts',(2884.71946431537,-6134.22360601239,874.371430877401));
#910=CARTESIAN_POINT('',(2894.97092601792,-6033.41862355287,874.617964362756));
#911=CARTESIAN_POINT('Ctrl Pts',(2884.71946431537,-6134.22360601239,874.371430877401));
#912=CARTESIAN_POINT('Ctrl Pts',(2886.7545137867,-6132.0892995214,874.377097769366));
#913=CARTESIAN_POINT('Ctrl Pts',(2888.69871601538,-6129.87425185928,874.382937763248));
#914=CARTESIAN_POINT('Ctrl Pts',(2897.04681949636,-6119.43033225617,874.41027187611));
#915=CARTESIAN_POINT('Ctrl Pts',(2902.09569531158,-6110.3858431231,874.433407044115));
#916=CARTESIAN_POINT('Ctrl Pts',(2906.53652306159,-6095.80104591062,874.469803735118));
#917=CARTESIAN_POINT('Ctrl Pts',(2907.4802927968,-6091.07500252028,874.481475882862));
#918=CARTESIAN_POINT('Ctrl Pts',(2908.98975110404,-6075.79787085402,874.518827504465));
#919=CARTESIAN_POINT('Ctrl Pts',(2907.76151520736,-6065.32993172774,874.543864496044));
#920=CARTESIAN_POINT('Ctrl Pts',(2902.42024534888,-6047.6447061271,874.585360326186));
#921=CARTESIAN_POINT('Ctrl Pts',(2899.08879324799,-6040.29132431658,874.602340829107));
#922=CARTESIAN_POINT('Ctrl Pts',(2894.97092601792,-6033.41862355287,874.617964362756));
#923=CARTESIAN_POINT('Ctrl Pts',(2894.97092601792,-6033.41862355287,874.617964362756));
#924=CARTESIAN_POINT('Ctrl Pts',(2890.06712107419,-6025.23419649419,874.63656981001));
#925=CARTESIAN_POINT('Ctrl Pts',(2883.98856231859,-6017.63340472055,874.653473562408));
#926=CARTESIAN_POINT('Ctrl Pts',(2877.10142636177,-6011.04812511154,874.667720262937));
#927=CARTESIAN_POINT('Ctrl Pts',(2874.9028839324,-6008.94594261936,874.672268158578));
#928=CARTESIAN_POINT('Ctrl Pts',(2872.60457599644,-6006.93921111369,874.67656046517));
#929=CARTESIAN_POINT('Ctrl Pts',(2870.39237311606,-6005.16444439135,874.68031244665));
#930=CARTESIAN_POINT('Ctrl Pts',(2865.67464742299,-6001.37959145612,874.688313891536));
#931=CARTESIAN_POINT('Ctrl Pts',(2861.19149237078,-5998.48490457762,874.694218260107));
#932=CARTESIAN_POINT('Ctrl Pts',(2857.17602957713,-5996.27399033027,874.698582491109));
#933=CARTESIAN_POINT('Ctrl Pts',(2854.44160878441,-5994.76841794682,874.701554413552));
#934=CARTESIAN_POINT('Ctrl Pts',(2851.92481982865,-5993.5800134516,874.703812113684));
#935=CARTESIAN_POINT('Ctrl Pts',(2849.70546024447,-5992.63230344094,874.705560331685));
#936=CARTESIAN_POINT('Ctrl Pts',(2848.35711856541,-5992.05653513545,874.706622437714));
#937=CARTESIAN_POINT('Ctrl Pts',(2847.11842234813,-5991.56966027537,874.707496331945));
#938=CARTESIAN_POINT('Ctrl Pts',(2846.00615865071,-5991.15660489204,874.708222631686));
#939=CARTESIAN_POINT('Ctrl Pts',(2845.00599019294,-5990.78517771459,874.708875734086));
#940=CARTESIAN_POINT('Ctrl Pts',(2844.03008209329,-5990.44405774448,874.70946144051));
#941=CARTESIAN_POINT('Ctrl Pts',(2843.03669289788,-5990.11722030972,874.710008274705));
#942=CARTESIAN_POINT('Ctrl Pts',(2833.67761860965,-5987.03796814333,874.715160194893));
#943=CARTESIAN_POINT('Ctrl Pts',(2823.96039065918,-5985.67279254548,874.716074872969));
#944=CARTESIAN_POINT('Ctrl Pts',(2814.05325322872,-5985.69686723681,874.71357997416));
#945=CARTESIAN_POINT('Ctrl Pts',(2804.25126911977,-5985.72068640188,874.711111555947));
#946=CARTESIAN_POINT('Ctrl Pts',(2794.32447575062,-5987.11348004149,874.705298652368));
#947=CARTESIAN_POINT('Ctrl Pts',(2784.61925714157,-5989.43822491674,874.697284329475));
#948=CARTESIAN_POINT('Ctrl Pts',(2778.46228335331,-5990.91303901809,874.692200056984));
#949=CARTESIAN_POINT('Ctrl Pts',(2772.38532578176,-5992.76183592382,874.686230187909));
#950=CARTESIAN_POINT('Ctrl Pts',(2766.45753730046,-5994.86981871172,874.679669611706));
#951=CARTESIAN_POINT('Ctrl Pts',(2761.29371968989,-5996.70612557005,874.673954559788));
#952=CARTESIAN_POINT('Ctrl Pts',(2756.19630206523,-5998.7537639611,874.667744281962));
#953=CARTESIAN_POINT('Ctrl Pts',(2751.12809719656,-6000.99198954157,874.661079846675));
#954=CARTESIAN_POINT('Ctrl Pts',(2742.41565057479,-6004.83958872168,874.649623416201));
#955=CARTESIAN_POINT('Ctrl Pts',(2733.85707931051,-6009.22660381738,874.636899101159));
#956=CARTESIAN_POINT('Ctrl Pts',(2725.64137531337,-6013.90634980158,874.623550518067));
#957=CARTESIAN_POINT('Ctrl Pts',(2721.64332261977,-6016.18368002721,874.617054624519));
#958=CARTESIAN_POINT('Ctrl Pts',(2717.73695285372,-6018.5223383707,874.610432826984));
#959=CARTESIAN_POINT('Ctrl Pts',(2713.84121908521,-6020.96324022022,874.603566151012));
#960=CARTESIAN_POINT('Ctrl Pts',(2710.46502592807,-6023.07861991792,874.597615224741));
#961=CARTESIAN_POINT('Ctrl Pts',(2707.12909365613,-6025.25305693261,874.591531244209));
#962=CARTESIAN_POINT('Ctrl Pts',(2703.91718295477,-6027.42551541654,874.585482555614));
#963=CARTESIAN_POINT('Origin',(2883.21664381458,-6396.09987000007,873.737154131877));
#964=CARTESIAN_POINT('Origin',(2883.21664381458,-6396.09987000007,873.737154131877));
#965=UNCERTAINTY_MEASURE_WITH_UNIT(LENGTH_MEASURE(0.01),#969,
'DISTANCE_ACCURACY_VALUE',
'Maximum model space distance between geometric entities at asserted c
onnectivities');
#966=UNCERTAINTY_MEASURE_WITH_UNIT(LENGTH_MEASURE(0.01),#969,
'DISTANCE_ACCURACY_VALUE',
'Maximum model space distance between geometric entities at asserted c
onnectivities');
#967=(
GEOMETRIC_REPRESENTATION_CONTEXT(3)
GLOBAL_UNCERTAINTY_ASSIGNED_CONTEXT((#965))
GLOBAL_UNIT_ASSIGNED_CONTEXT((#969,#970,#971))
REPRESENTATION_CONTEXT('','3D')
);
#968=(
GEOMETRIC_REPRESENTATION_CONTEXT(3)
GLOBAL_UNCERTAINTY_ASSIGNED_CONTEXT((#966))
GLOBAL_UNIT_ASSIGNED_CONTEXT((#969,#970,#971))
REPRESENTATION_CONTEXT('','3D')
);
#969=(
LENGTH_UNIT()
NAMED_UNIT(*)
SI_UNIT(.MILLI.,.METRE.)
);
#970=(
NAMED_UNIT(*)
PLANE_ANGLE_UNIT()
SI_UNIT($,.RADIAN.)
);
#971=(
NAMED_UNIT(*)
SI_UNIT($,.STERADIAN.)
SOLID_ANGLE_UNIT()
);
#972=SHAPE_DEFINITION_REPRESENTATION(#973,#974);
#973=PRODUCT_DEFINITION_SHAPE('',$,#976);
#974=SHAPE_REPRESENTATION('',(#82),#967);
#975=PRODUCT_DEFINITION_CONTEXT('part definition',#980,'design');
#976=PRODUCT_DEFINITION('3D','3D v3',#977,#975);
#977=PRODUCT_DEFINITION_FORMATION('',$,#982);
#978=PRODUCT_RELATED_PRODUCT_CATEGORY('3D v3','3D v3',(#982));
#979=APPLICATION_PROTOCOL_DEFINITION('international standard',
'automotive_design',2009,#980);
#980=APPLICATION_CONTEXT(
'Core Data for Automotive Mechanical Design Process');
#981=PRODUCT_CONTEXT('part definition',#980,'mechanical');
#982=PRODUCT('3D','3D v3',$,(#981));
#983=PRESENTATION_STYLE_ASSIGNMENT((#984));
#984=SURFACE_STYLE_USAGE(.BOTH.,#985);
#985=SURFACE_SIDE_STYLE('',(#986));
#986=SURFACE_STYLE_FILL_AREA(#987);
#987=FILL_AREA_STYLE('Acier - Satin\X\E9',(#988));
#988=FILL_AREA_STYLE_COLOUR('Acier - Satin\X\E9',#989);
#989=COLOUR_RGB('Acier - Satin\X\E9',0.627450980392157,0.627450980392157,
0.627450980392157);
ENDSEC;
END-ISO-10303-21;

